{"glyphs":{"0":{"ha":696,"x_min":51,"x_max":644,"o":"m 644 719 l 644 172 q 598 47 644 94 q 440 0 551 0 l 256 0 q 98 47 144 0 q 51 172 51 94 l 51 719 q 98 844 51 797 q 256 892 144 892 l 440 892 q 598 844 551 892 q 644 719 644 797 m 401 204 l 401 688 q 393 710 401 703 q 367 718 385 718 l 329 718 q 303 710 311 718 q 294 688 294 703 l 294 204 q 303 181 294 189 q 329 174 311 174 l 367 174 q 393 181 385 174 q 401 204 401 189 z "},"1":{"ha":449,"x_min":25,"x_max":393,"o":"m 311 892 l 311 718 l 25 718 l 25 892 l 311 892 m 150 892 l 393 892 l 393 0 l 150 0 l 150 892 z "},"2":{"ha":651,"x_min":32,"x_max":611,"o":"m 275 688 l 275 586 l 32 586 l 32 719 q 78 844 32 797 q 236 892 125 892 l 404 892 q 563 844 515 892 q 611 719 611 797 l 611 592 q 587 469 611 519 q 514 367 563 419 l 342 174 l 611 174 l 611 0 l 39 0 l 39 158 l 303 442 q 358 517 344 486 q 372 593 372 547 l 372 688 q 364 710 372 703 q 338 718 356 718 l 310 718 q 283 710 292 718 q 275 688 275 703 z "},"3":{"ha":663,"x_min":35,"x_max":614,"o":"m 278 688 l 278 600 l 35 600 l 35 719 q 81 844 35 797 q 239 892 128 892 l 410 892 q 567 844 521 892 q 614 719 614 797 l 614 611 q 601 517 614 557 q 547 454 588 476 q 601 400 588 436 q 614 311 614 364 l 614 172 q 567 47 614 94 q 410 0 521 0 l 239 0 q 81 47 128 0 q 35 172 35 94 l 35 292 l 278 292 l 278 204 q 286 181 278 189 q 313 174 294 174 l 340 174 q 367 181 358 174 q 375 204 375 189 l 375 342 q 367 365 375 357 q 340 372 358 372 l 228 372 l 228 532 l 340 532 q 367 540 358 532 q 375 563 375 547 l 375 688 q 367 710 375 703 q 340 718 358 718 l 313 718 q 286 710 294 718 q 278 688 278 703 z "},"4":{"ha":704,"x_min":14,"x_max":704,"o":"m 79 160 l 79 336 l 704 336 l 704 160 l 79 160 m 14 160 l 14 375 l 349 892 l 593 892 l 121 160 l 14 160 m 382 513 l 610 513 l 610 0 l 382 0 l 382 513 z "},"5":{"ha":692,"x_min":56,"x_max":650,"o":"m 299 313 l 299 204 q 307 181 299 189 q 333 174 315 174 l 376 174 q 403 181 394 174 q 411 204 411 189 l 411 383 q 403 406 411 399 q 376 414 394 414 l 210 414 l 210 588 l 446 588 q 603 540 557 588 q 650 415 650 493 l 650 172 q 603 47 650 94 q 446 0 557 0 l 260 0 q 102 47 149 0 q 56 172 56 94 l 56 313 l 299 313 m 306 414 l 67 414 l 67 892 l 636 892 l 636 718 l 306 718 l 306 414 z "},"6":{"ha":686,"x_min":51,"x_max":644,"o":"m 408 204 l 408 338 q 400 360 408 353 q 374 368 392 368 l 228 368 l 228 535 l 440 535 q 598 488 551 535 q 644 363 644 440 l 644 172 q 598 47 644 94 q 440 0 551 0 l 342 0 l 342 174 l 374 174 q 400 181 392 174 q 408 204 408 189 m 288 688 l 288 204 q 296 181 288 189 q 322 174 304 174 l 354 174 l 354 0 l 256 0 q 98 47 144 0 q 51 172 51 94 l 51 719 q 98 844 51 797 q 256 892 144 892 l 354 892 l 354 718 l 322 718 q 296 710 304 718 q 288 688 288 703 m 394 619 l 394 688 q 386 710 394 703 q 360 718 378 718 l 333 718 l 333 892 l 426 892 q 584 844 538 892 q 631 719 631 797 l 631 619 l 394 619 z "},"7":{"ha":586,"x_min":14,"x_max":579,"o":"m 526 892 l 526 704 l 14 704 l 14 892 l 526 892 m 579 892 l 579 760 l 308 0 l 57 0 l 389 892 l 579 892 z "},"8":{"ha":692,"x_min":49,"x_max":643,"o":"m 281 349 l 281 201 q 289 178 281 186 q 315 171 297 171 l 358 171 l 358 0 l 253 0 q 95 47 142 0 q 49 172 49 94 l 49 311 q 62 400 49 364 q 114 454 75 436 q 62 517 75 476 q 49 611 49 557 l 49 719 q 95 844 49 797 q 253 892 142 892 l 354 892 l 354 721 l 315 721 q 289 713 297 721 q 281 690 281 706 l 281 556 q 289 533 281 540 q 315 525 297 525 l 349 525 l 349 379 l 315 379 q 289 372 297 379 q 281 349 281 364 m 411 556 l 411 690 q 403 713 411 706 q 376 721 394 721 l 347 721 l 347 892 l 439 892 q 597 844 550 892 q 643 719 643 797 l 643 611 q 630 517 643 557 q 576 454 617 476 q 630 400 617 436 q 643 311 643 364 l 643 172 q 597 47 643 94 q 439 0 550 0 l 351 0 l 351 171 l 376 171 q 403 178 394 171 q 411 201 411 186 l 411 349 q 403 372 411 364 q 376 379 394 379 l 342 379 l 342 525 l 376 525 q 403 533 394 525 q 411 556 411 540 z "},"9":{"ha":686,"x_min":42,"x_max":635,"o":"m 278 688 l 278 533 q 286 510 278 518 q 313 503 294 503 l 458 503 l 458 343 l 246 343 q 88 390 135 343 q 42 515 42 438 l 42 719 q 88 844 42 797 q 246 892 135 892 l 344 892 l 344 718 l 313 718 q 286 710 294 718 q 278 688 278 703 m 399 204 l 399 688 q 390 710 399 703 q 364 718 382 718 l 332 718 l 332 892 l 431 892 q 588 844 542 892 q 635 719 635 797 l 635 172 q 588 47 635 94 q 431 0 542 0 l 332 0 l 332 174 l 364 174 q 390 181 382 174 q 399 204 399 189 m 289 265 l 289 204 q 297 181 289 189 q 324 174 306 174 l 353 174 l 353 0 l 257 0 q 99 47 146 0 q 53 172 53 94 l 53 265 l 289 265 z "},"A":{"ha":754,"x_min":0,"x_max":754,"o":"m 601 306 l 601 133 l 156 133 l 156 306 l 601 306 m 754 0 l 510 0 l 376 626 l 239 0 l 0 0 l 229 892 l 525 892 l 754 0 z "},"Æ":{"ha":1069,"x_min":0,"x_max":1046,"o":"m 569 892 l 239 0 l 0 0 l 354 892 l 569 892 m 601 326 l 601 160 l 156 160 l 156 326 l 601 326 m 513 892 l 742 892 l 742 0 l 513 0 l 513 892 m 1046 174 l 1046 0 l 588 0 l 588 174 l 1046 174 m 993 536 l 993 363 l 606 363 l 606 536 l 993 536 m 1033 892 l 1033 718 l 588 718 l 588 892 l 1033 892 z "},"Á":{"ha":754,"x_min":0,"x_max":754,"o":"m 601 306 l 601 133 l 156 133 l 156 306 l 601 306 m 754 0 l 510 0 l 376 626 l 239 0 l 0 0 l 229 892 l 525 892 l 754 0 m 288 938 l 422 1146 l 658 1146 l 474 938 l 288 938 z "},"Ă":{"ha":754,"x_min":0,"x_max":754,"o":"m 601 306 l 601 133 l 156 133 l 156 306 l 601 306 m 754 0 l 510 0 l 376 626 l 239 0 l 0 0 l 229 892 l 525 892 l 754 0 m 442 1146 l 650 1146 l 650 1110 q 603 985 650 1032 q 446 938 557 938 l 363 938 l 363 1069 l 407 1069 q 433 1077 425 1069 q 442 1100 442 1085 l 442 1146 m 103 1146 l 311 1146 l 311 1100 q 319 1077 311 1085 q 346 1069 328 1069 l 390 1069 l 390 938 l 307 938 q 149 985 196 938 q 103 1110 103 1032 l 103 1146 z "},"Â":{"ha":754,"x_min":0,"x_max":754,"o":"m 601 306 l 601 133 l 156 133 l 156 306 l 601 306 m 754 0 l 510 0 l 376 626 l 239 0 l 0 0 l 229 892 l 525 892 l 754 0 m 85 938 l 269 1146 l 483 1146 l 668 938 l 450 938 l 376 1033 l 303 938 l 85 938 z "},"Ä":{"ha":754,"x_min":0,"x_max":754,"o":"m 104 938 l 104 1118 l 315 1118 l 315 938 l 104 938 m 438 938 l 438 1118 l 649 1118 l 649 938 l 438 938 m 601 306 l 601 133 l 156 133 l 156 306 l 601 306 m 754 0 l 510 0 l 376 626 l 239 0 l 0 0 l 229 892 l 525 892 l 754 0 z "},"À":{"ha":754,"x_min":0,"x_max":754,"o":"m 601 306 l 601 133 l 156 133 l 156 306 l 601 306 m 754 0 l 510 0 l 376 626 l 239 0 l 0 0 l 229 892 l 525 892 l 754 0 m 325 1146 l 460 938 l 274 938 l 89 1146 l 325 1146 z "},"Ā":{"ha":754,"x_min":0,"x_max":754,"o":"m 601 306 l 601 133 l 156 133 l 156 306 l 601 306 m 754 0 l 510 0 l 376 626 l 239 0 l 0 0 l 229 892 l 525 892 l 754 0 m 107 938 l 107 1085 l 647 1085 l 647 938 l 107 938 z "},"Ą":{"ha":754,"x_min":0,"x_max":782,"o":"m 601 306 l 601 133 l 156 133 l 156 306 l 601 306 m 754 0 l 510 0 l 376 626 l 239 0 l 0 0 l 229 892 l 525 892 l 754 0 m 463 -168 q 496 -63 463 -103 q 622 -24 529 -24 l 757 -24 l 757 -158 l 656 -158 q 633 -165 640 -158 q 626 -183 626 -171 l 626 -221 q 633 -240 626 -233 q 656 -246 640 -246 l 782 -246 l 782 -381 l 622 -381 q 496 -341 529 -381 q 463 -235 463 -301 l 463 -168 m 757 -31 l 631 -31 l 631 21 l 757 21 l 757 -31 z "},"Å":{"ha":754,"x_min":0,"x_max":754,"o":"m 601 306 l 601 133 l 156 133 l 156 306 l 601 306 m 754 0 l 510 0 l 376 626 l 239 0 l 0 0 l 229 892 l 525 892 l 754 0 m 579 1082 l 579 1060 q 549 970 579 1004 q 438 936 518 936 l 318 936 q 207 970 238 936 q 176 1060 176 1004 l 176 1082 q 207 1173 176 1139 q 318 1207 238 1207 l 438 1207 q 549 1173 518 1207 q 579 1082 579 1139 m 432 1061 l 432 1081 q 426 1101 432 1094 q 404 1107 419 1107 l 351 1107 q 330 1101 336 1107 q 324 1081 324 1094 l 324 1061 q 330 1041 324 1047 q 351 1035 336 1035 l 404 1035 q 426 1041 419 1035 q 432 1061 432 1047 z "},"Ã":{"ha":754,"x_min":0,"x_max":754,"o":"m 601 306 l 601 133 l 156 133 l 156 306 l 601 306 m 754 0 l 510 0 l 376 626 l 239 0 l 0 0 l 229 892 l 525 892 l 754 0 m 469 938 q 397 956 429 938 q 340 992 364 974 q 300 1010 315 1010 q 275 981 275 1010 l 275 938 l 88 938 l 88 1014 q 117 1110 88 1075 q 225 1146 147 1146 l 251 1146 q 324 1128 292 1146 q 382 1092 357 1110 q 421 1074 407 1074 q 440 1081 433 1074 q 446 1103 446 1089 l 446 1146 l 633 1146 l 633 1063 q 603 969 633 1001 q 493 938 572 938 l 469 938 z "},"B":{"ha":717,"x_min":56,"x_max":668,"o":"m 56 892 l 464 892 q 622 844 575 892 q 668 719 668 797 l 668 606 q 655 511 668 551 q 601 449 642 471 q 655 394 642 431 q 668 306 668 358 l 668 172 q 622 47 668 94 q 464 0 575 0 l 56 0 l 56 892 m 429 190 l 429 336 q 421 359 429 351 q 394 367 413 367 l 294 367 l 294 160 l 394 160 q 421 167 413 160 q 429 190 429 175 m 429 557 l 429 701 q 421 724 429 717 q 394 732 413 732 l 294 732 l 294 526 l 394 526 q 421 534 413 526 q 429 557 429 542 z "},"C":{"ha":688,"x_min":49,"x_max":653,"o":"m 292 701 l 292 190 q 300 167 292 175 q 326 160 308 160 l 363 160 l 363 0 l 253 0 q 95 47 142 0 q 49 172 49 94 l 49 719 q 95 844 49 797 q 253 892 142 892 l 363 892 l 363 732 l 326 732 q 300 724 308 732 q 292 701 292 717 m 410 558 l 410 701 q 401 724 410 717 q 375 732 393 732 l 339 732 l 339 892 l 449 892 q 606 844 560 892 q 653 719 653 797 l 653 558 l 410 558 m 410 190 l 410 328 l 653 328 l 653 172 q 606 47 653 94 q 449 0 560 0 l 339 0 l 339 160 l 375 160 q 401 167 393 160 q 410 190 410 175 z "},"Ć":{"ha":688,"x_min":49,"x_max":653,"o":"m 292 701 l 292 190 q 300 167 292 175 q 326 160 308 160 l 363 160 l 363 0 l 253 0 q 95 47 142 0 q 49 172 49 94 l 49 719 q 95 844 49 797 q 253 892 142 892 l 363 892 l 363 732 l 326 732 q 300 724 308 732 q 292 701 292 717 m 410 558 l 410 701 q 401 724 410 717 q 375 732 393 732 l 339 732 l 339 892 l 449 892 q 606 844 560 892 q 653 719 653 797 l 653 558 l 410 558 m 410 190 l 410 328 l 653 328 l 653 172 q 606 47 653 94 q 449 0 560 0 l 339 0 l 339 160 l 375 160 q 401 167 393 160 q 410 190 410 175 m 254 938 l 389 1146 l 625 1146 l 440 938 l 254 938 z "},"Č":{"ha":688,"x_min":49,"x_max":653,"o":"m 292 701 l 292 190 q 300 167 292 175 q 326 160 308 160 l 363 160 l 363 0 l 253 0 q 95 47 142 0 q 49 172 49 94 l 49 719 q 95 844 49 797 q 253 892 142 892 l 363 892 l 363 732 l 326 732 q 300 724 308 732 q 292 701 292 717 m 410 558 l 410 701 q 401 724 410 717 q 375 732 393 732 l 339 732 l 339 892 l 449 892 q 606 844 560 892 q 653 719 653 797 l 653 558 l 410 558 m 410 190 l 410 328 l 653 328 l 653 172 q 606 47 653 94 q 449 0 560 0 l 339 0 l 339 160 l 375 160 q 401 167 393 160 q 410 190 410 175 m 240 938 l 56 1146 l 274 1146 l 347 1050 l 421 1146 l 639 1146 l 454 938 l 240 938 z "},"Ç":{"ha":688,"x_min":49,"x_max":653,"o":"m 292 701 l 292 190 q 300 167 292 175 q 326 160 308 160 l 363 160 l 363 0 l 253 0 q 95 47 142 0 q 49 172 49 94 l 49 719 q 95 844 49 797 q 253 892 142 892 l 363 892 l 363 732 l 326 732 q 300 724 308 732 q 292 701 292 717 m 410 558 l 410 701 q 401 724 410 717 q 375 732 393 732 l 339 732 l 339 892 l 449 892 q 606 844 560 892 q 653 719 653 797 l 653 558 l 410 558 m 410 190 l 410 328 l 653 328 l 653 172 q 606 47 653 94 q 449 0 560 0 l 339 0 l 339 160 l 375 160 q 401 167 393 160 q 410 190 410 175 m 236 -171 l 236 -64 l 458 -64 l 458 -189 q 412 -314 458 -267 q 254 -361 365 -361 l 128 -361 l 128 -201 l 201 -201 q 228 -194 219 -201 q 236 -171 236 -186 z "},"D":{"ha":735,"x_min":69,"x_max":683,"o":"m 440 519 l 440 701 q 432 724 440 717 q 406 732 424 732 l 150 732 l 150 892 l 479 892 q 637 844 590 892 q 683 719 683 797 l 683 519 l 440 519 m 440 190 l 440 538 l 683 538 l 683 172 q 637 47 683 94 q 479 0 590 0 l 150 0 l 150 160 l 406 160 q 432 167 424 160 q 440 190 440 175 m 69 892 l 313 892 l 313 0 l 69 0 l 69 892 z "},"Ď":{"ha":735,"x_min":69,"x_max":683,"o":"m 440 519 l 440 701 q 432 724 440 717 q 406 732 424 732 l 150 732 l 150 892 l 479 892 q 637 844 590 892 q 683 719 683 797 l 683 519 l 440 519 m 440 190 l 440 538 l 683 538 l 683 172 q 637 47 683 94 q 479 0 590 0 l 150 0 l 150 160 l 406 160 q 432 167 424 160 q 440 190 440 175 m 69 892 l 313 892 l 313 0 l 69 0 l 69 892 m 254 938 l 69 1146 l 288 1146 l 361 1050 l 435 1146 l 653 1146 l 468 938 l 254 938 z "},"Đ":{"ha":746,"x_min":-7,"x_max":683,"o":"m 440 519 l 440 688 q 432 710 440 703 q 406 718 424 718 l 150 718 l 150 892 l 479 892 q 637 844 590 892 q 683 719 683 797 l 683 519 l 440 519 m 440 204 l 440 538 l 683 538 l 683 172 q 637 47 683 94 q 479 0 590 0 l 150 0 l 150 174 l 406 174 q 432 181 424 174 q 440 204 440 189 m 69 892 l 313 892 l 313 0 l 69 0 l 69 892 m 389 533 l 389 374 l -7 374 l -7 533 l 389 533 z "},"E":{"ha":624,"x_min":56,"x_max":603,"o":"m 56 892 l 299 892 l 299 0 l 56 0 l 56 892 m 550 536 l 550 363 l 160 363 l 160 536 l 550 536 m 590 892 l 590 718 l 142 718 l 142 892 l 590 892 m 603 174 l 603 0 l 142 0 l 142 174 l 603 174 z "},"É":{"ha":624,"x_min":56,"x_max":603,"o":"m 56 892 l 299 892 l 299 0 l 56 0 l 56 892 m 550 536 l 550 363 l 160 363 l 160 536 l 550 536 m 590 892 l 590 718 l 142 718 l 142 892 l 590 892 m 603 174 l 603 0 l 142 0 l 142 174 l 603 174 m 229 938 l 364 1146 l 600 1146 l 415 938 l 229 938 z "},"Ě":{"ha":624,"x_min":40,"x_max":624,"o":"m 56 892 l 299 892 l 299 0 l 56 0 l 56 892 m 550 536 l 550 363 l 160 363 l 160 536 l 550 536 m 590 892 l 590 718 l 142 718 l 142 892 l 590 892 m 603 174 l 603 0 l 142 0 l 142 174 l 603 174 m 225 938 l 40 1146 l 258 1146 l 332 1050 l 406 1146 l 624 1146 l 439 938 l 225 938 z "},"Ê":{"ha":624,"x_min":36,"x_max":619,"o":"m 56 892 l 299 892 l 299 0 l 56 0 l 56 892 m 550 536 l 550 363 l 160 363 l 160 536 l 550 536 m 590 892 l 590 718 l 142 718 l 142 892 l 590 892 m 603 174 l 603 0 l 142 0 l 142 174 l 603 174 m 36 938 l 221 1146 l 435 1146 l 619 938 l 401 938 l 328 1033 l 254 938 l 36 938 z "},"Ë":{"ha":694,"x_min":53,"x_max":603,"o":"m 53 938 l 53 1118 l 264 1118 l 264 938 l 53 938 m 386 938 l 386 1118 l 597 1118 l 597 938 l 386 938 m 56 892 l 299 892 l 299 0 l 56 0 l 56 892 m 550 536 l 550 363 l 160 363 l 160 536 l 550 536 m 590 892 l 590 718 l 142 718 l 142 892 l 590 892 m 603 174 l 603 0 l 142 0 l 142 174 l 603 174 z "},"Ė":{"ha":624,"x_min":56,"x_max":603,"o":"m 56 892 l 299 892 l 299 0 l 56 0 l 56 892 m 550 536 l 550 363 l 160 363 l 160 536 l 550 536 m 590 892 l 590 718 l 142 718 l 142 892 l 590 892 m 603 174 l 603 0 l 142 0 l 142 174 l 603 174 m 219 938 l 219 1118 l 444 1118 l 444 938 l 219 938 z "},"È":{"ha":624,"x_min":49,"x_max":603,"o":"m 56 892 l 299 892 l 299 0 l 56 0 l 56 892 m 550 536 l 550 363 l 160 363 l 160 536 l 550 536 m 590 892 l 590 718 l 142 718 l 142 892 l 590 892 m 603 174 l 603 0 l 142 0 l 142 174 l 603 174 m 285 1146 l 419 938 l 233 938 l 49 1146 l 285 1146 z "},"Ē":{"ha":624,"x_min":50,"x_max":603,"o":"m 56 892 l 299 892 l 299 0 l 56 0 l 56 892 m 550 536 l 550 363 l 160 363 l 160 536 l 550 536 m 590 892 l 590 718 l 142 718 l 142 892 l 590 892 m 603 174 l 603 0 l 142 0 l 142 174 l 603 174 m 50 938 l 50 1085 l 590 1085 l 590 938 l 50 938 z "},"Ę":{"ha":624,"x_min":56,"x_max":629,"o":"m 56 892 l 299 892 l 299 0 l 56 0 l 56 892 m 550 536 l 550 363 l 160 363 l 160 536 l 550 536 m 590 892 l 590 718 l 142 718 l 142 892 l 590 892 m 603 174 l 603 0 l 142 0 l 142 174 l 603 174 m 310 -168 q 343 -63 310 -103 q 469 -24 376 -24 l 604 -24 l 604 -158 l 503 -158 q 481 -165 488 -158 q 474 -183 474 -171 l 474 -221 q 481 -240 474 -233 q 503 -246 488 -246 l 629 -246 l 629 -381 l 469 -381 q 343 -341 376 -381 q 310 -235 310 -301 l 310 -168 m 604 -31 l 478 -31 l 478 21 l 604 21 l 604 -31 z "},"Ð":{"ha":732,"x_min":-7,"x_max":683,"o":"m 440 519 l 440 701 q 432 724 440 717 q 406 732 424 732 l 150 732 l 150 892 l 479 892 q 637 844 590 892 q 683 719 683 797 l 683 519 l 440 519 m 440 190 l 440 538 l 683 538 l 683 172 q 637 47 683 94 q 479 0 590 0 l 150 0 l 150 160 l 406 160 q 432 167 424 160 q 440 190 440 175 m 69 892 l 313 892 l 313 0 l 69 0 l 69 892 m 389 533 l 389 374 l -7 374 l -7 533 l 389 533 z "},"F":{"ha":611,"x_min":56,"x_max":590,"o":"m 56 892 l 299 892 l 299 0 l 56 0 l 56 892 m 551 501 l 551 342 l 161 342 l 161 501 l 551 501 m 590 892 l 590 718 l 142 718 l 142 892 l 590 892 z "},"G":{"ha":696,"x_min":49,"x_max":654,"o":"m 292 701 l 292 190 q 300 167 292 175 q 326 160 308 160 l 358 160 l 358 0 l 253 0 q 95 47 142 0 q 49 172 49 94 l 49 719 q 95 844 49 797 q 253 892 142 892 l 364 892 l 364 732 l 326 732 q 300 724 308 732 q 292 701 292 717 m 654 493 l 654 339 l 342 339 l 342 493 l 654 493 m 411 586 l 411 701 q 403 724 411 717 q 376 732 394 732 l 339 732 l 339 892 l 450 892 q 608 844 561 892 q 654 719 654 797 l 654 586 l 411 586 m 411 190 l 411 386 l 654 386 l 654 172 q 608 47 654 94 q 450 0 561 0 l 344 0 l 344 160 l 376 160 q 403 167 394 160 q 411 190 411 175 z "},"Ğ":{"ha":696,"x_min":49,"x_max":654,"o":"m 292 701 l 292 190 q 300 167 292 175 q 326 160 308 160 l 358 160 l 358 0 l 253 0 q 95 47 142 0 q 49 172 49 94 l 49 719 q 95 844 49 797 q 253 892 142 892 l 364 892 l 364 732 l 326 732 q 300 724 308 732 q 292 701 292 717 m 654 493 l 654 339 l 342 339 l 342 493 l 654 493 m 411 586 l 411 701 q 403 724 411 717 q 376 732 394 732 l 339 732 l 339 892 l 450 892 q 608 844 561 892 q 654 719 654 797 l 654 586 l 411 586 m 411 190 l 411 386 l 654 386 l 654 172 q 608 47 654 94 q 450 0 561 0 l 344 0 l 344 160 l 376 160 q 403 167 394 160 q 411 190 411 175 m 417 1146 l 625 1146 l 625 1110 q 578 985 625 1032 q 421 938 532 938 l 338 938 l 338 1069 l 382 1069 q 408 1077 400 1069 q 417 1100 417 1085 l 417 1146 m 78 1146 l 286 1146 l 286 1100 q 294 1077 286 1085 q 321 1069 303 1069 l 365 1069 l 365 938 l 282 938 q 124 985 171 938 q 78 1110 78 1032 l 78 1146 z "},"Ģ":{"ha":696,"x_min":49,"x_max":654,"o":"m 292 701 l 292 190 q 300 167 292 175 q 326 160 308 160 l 358 160 l 358 0 l 253 0 q 95 47 142 0 q 49 172 49 94 l 49 719 q 95 844 49 797 q 253 892 142 892 l 364 892 l 364 732 l 326 732 q 300 724 308 732 q 292 701 292 717 m 654 493 l 654 339 l 342 339 l 342 493 l 654 493 m 411 586 l 411 701 q 403 724 411 717 q 376 732 394 732 l 339 732 l 339 892 l 450 892 q 608 844 561 892 q 654 719 654 797 l 654 586 l 411 586 m 411 190 l 411 386 l 654 386 l 654 172 q 608 47 654 94 q 450 0 561 0 l 344 0 l 344 160 l 376 160 q 403 167 394 160 q 411 190 411 175 m 250 -64 l 482 -64 l 482 -185 l 322 -415 l 250 -415 l 250 -64 z "},"H":{"ha":764,"x_min":56,"x_max":708,"o":"m 500 526 l 500 353 l 250 353 l 250 526 l 500 526 m 56 892 l 294 892 l 294 0 l 56 0 l 56 892 m 469 892 l 708 892 l 708 0 l 469 0 l 469 892 z "},"I":{"ha":354,"x_min":56,"x_max":299,"o":"m 56 892 l 299 892 l 299 0 l 56 0 l 56 892 z "},"Í":{"ha":354,"x_min":56,"x_max":449,"o":"m 56 892 l 299 892 l 299 0 l 56 0 l 56 892 m 78 938 l 213 1146 l 449 1146 l 264 938 l 78 938 z "},"Î":{"ha":354,"x_min":-115,"x_max":468,"o":"m 56 892 l 299 892 l 299 0 l 56 0 l 56 892 m -115 938 l 69 1146 l 283 1146 l 468 938 l 250 938 l 176 1033 l 103 938 l -115 938 z "},"Ï":{"ha":354,"x_min":-94,"x_max":450,"o":"m -94 938 l -94 1118 l 117 1118 l 117 938 l -94 938 m 239 938 l 239 1118 l 450 1118 l 450 938 l 239 938 m 56 892 l 299 892 l 299 0 l 56 0 l 56 892 z "},"İ":{"ha":354,"x_min":56,"x_max":299,"o":"m 56 892 l 299 892 l 299 0 l 56 0 l 56 892 m 65 938 l 65 1118 l 290 1118 l 290 938 l 65 938 z "},"Ì":{"ha":354,"x_min":-101,"x_max":299,"o":"m 56 892 l 299 892 l 299 0 l 56 0 l 56 892 m 135 1146 l 269 938 l 83 938 l -101 1146 l 135 1146 z "},"Ī":{"ha":354,"x_min":-92,"x_max":449,"o":"m 56 892 l 299 892 l 299 0 l 56 0 l 56 892 m -92 938 l -92 1085 l 449 1085 l 449 938 l -92 938 z "},"Į":{"ha":354,"x_min":4,"x_max":324,"o":"m 56 892 l 299 892 l 299 0 l 56 0 l 56 892 m 4 -168 q 38 -63 4 -103 q 164 -24 71 -24 l 299 -24 l 299 -158 l 197 -158 q 175 -165 182 -158 q 168 -183 168 -171 l 168 -221 q 175 -240 168 -233 q 197 -246 182 -246 l 324 -246 l 324 -381 l 164 -381 q 38 -341 71 -381 q 4 -235 4 -301 l 4 -168 m 299 -31 l 172 -31 l 172 21 l 299 21 l 299 -31 z "},"J":{"ha":635,"x_min":14,"x_max":585,"o":"m 14 357 l 257 357 l 257 204 q 265 181 257 189 q 292 174 274 174 l 307 174 q 333 181 325 174 q 342 204 342 189 l 342 892 l 585 892 l 585 172 q 538 47 585 94 q 381 0 492 0 l 218 0 q 60 47 107 0 q 14 172 14 94 l 14 357 z "},"K":{"ha":736,"x_min":56,"x_max":728,"o":"m 300 456 l 553 456 l 728 0 l 467 0 l 300 456 m 553 456 l 300 456 l 465 892 l 726 892 l 553 456 m 56 892 l 299 892 l 299 0 l 56 0 l 56 892 z "},"Ķ":{"ha":736,"x_min":56,"x_max":728,"o":"m 300 456 l 553 456 l 728 0 l 467 0 l 300 456 m 553 456 l 300 456 l 465 892 l 726 892 l 553 456 m 56 892 l 299 892 l 299 0 l 56 0 l 56 892 m 240 -64 l 472 -64 l 472 -185 l 313 -415 l 240 -415 l 240 -64 z "},"L":{"ha":575,"x_min":56,"x_max":575,"o":"m 56 892 l 299 892 l 299 0 l 56 0 l 56 892 m 136 0 l 136 174 l 575 174 l 575 0 l 136 0 z "},"Ĺ":{"ha":575,"x_min":56,"x_max":575,"o":"m 56 892 l 299 892 l 299 0 l 56 0 l 56 892 m 136 0 l 136 174 l 575 174 l 575 0 l 136 0 m 90 938 l 225 1146 l 461 1146 l 276 938 l 90 938 z "},"Ļ":{"ha":575,"x_min":56,"x_max":575,"o":"m 56 892 l 299 892 l 299 0 l 56 0 l 56 892 m 136 0 l 136 174 l 575 174 l 575 0 l 136 0 m 197 -64 l 429 -64 l 429 -185 l 269 -415 l 197 -415 l 197 -64 z "},"Ł":{"ha":603,"x_min":-54,"x_max":589,"o":"m 465 679 l 465 519 l -54 269 l -54 429 l 465 679 m 69 892 l 313 892 l 313 0 l 69 0 l 69 892 m 150 0 l 150 174 l 589 174 l 589 0 l 150 0 z "},"M":{"ha":931,"x_min":56,"x_max":875,"o":"m 549 193 l 382 193 l 272 564 l 272 0 l 56 0 l 56 892 l 321 892 l 465 415 l 610 892 l 875 892 l 875 0 l 660 0 l 660 567 l 549 193 z "},"N":{"ha":740,"x_min":56,"x_max":685,"o":"m 463 892 l 685 892 l 685 0 l 476 0 l 278 468 l 278 0 l 56 0 l 56 892 l 264 892 l 463 415 l 463 892 z "},"Ń":{"ha":740,"x_min":56,"x_max":685,"o":"m 463 892 l 685 892 l 685 0 l 476 0 l 278 468 l 278 0 l 56 0 l 56 892 l 264 892 l 463 415 l 463 892 m 261 938 l 396 1146 l 632 1146 l 447 938 l 261 938 z "},"Ň":{"ha":740,"x_min":56,"x_max":685,"o":"m 463 892 l 685 892 l 685 0 l 476 0 l 278 468 l 278 0 l 56 0 l 56 892 l 264 892 l 463 415 l 463 892 m 260 936 l 75 1144 l 293 1144 l 367 1049 l 440 1144 l 658 1144 l 474 936 l 260 936 z "},"Ņ":{"ha":740,"x_min":56,"x_max":685,"o":"m 463 892 l 685 892 l 685 0 l 476 0 l 278 468 l 278 0 l 56 0 l 56 892 l 264 892 l 463 415 l 463 892 m 243 -64 l 475 -64 l 475 -185 l 315 -415 l 243 -415 l 243 -64 z "},"Ñ":{"ha":740,"x_min":56,"x_max":685,"o":"m 463 892 l 685 892 l 685 0 l 476 0 l 278 468 l 278 0 l 56 0 l 56 892 l 264 892 l 463 415 l 463 892 m 482 938 q 409 956 442 938 q 352 992 376 974 q 313 1010 328 1010 q 288 981 288 1010 l 288 938 l 100 938 l 100 1014 q 130 1110 100 1075 q 238 1146 160 1146 l 264 1146 q 337 1128 304 1146 q 394 1092 369 1110 q 433 1074 419 1074 q 452 1081 446 1074 q 458 1103 458 1089 l 458 1146 l 646 1146 l 646 1063 q 615 969 646 1001 q 506 938 585 938 l 482 938 z "},"O":{"ha":717,"x_min":51,"x_max":665,"o":"m 422 519 l 422 688 q 414 710 422 703 q 388 718 406 718 l 342 718 l 342 892 l 461 892 q 619 844 572 892 q 665 719 665 797 l 665 519 l 422 519 m 422 204 l 422 538 l 665 538 l 665 172 q 619 47 665 94 q 461 0 572 0 l 342 0 l 342 174 l 388 174 q 414 181 406 174 q 422 204 422 189 m 294 688 l 294 519 l 51 519 l 51 719 q 98 844 51 797 q 256 892 144 892 l 375 892 l 375 718 l 329 718 q 303 710 311 718 q 294 688 294 703 m 294 538 l 294 204 q 303 181 294 189 q 329 174 311 174 l 375 174 l 375 0 l 256 0 q 98 47 144 0 q 51 172 51 94 l 51 538 l 294 538 z "},"Œ":{"ha":1028,"x_min":90,"x_max":981,"o":"m 461 519 l 461 701 q 453 724 461 717 q 426 732 444 732 l 381 732 l 381 892 l 403 892 q 515 856 478 892 q 566 765 553 819 q 579 650 579 710 l 579 519 l 461 519 m 461 190 l 461 538 l 579 538 l 579 242 q 566 128 579 183 q 515 36 553 72 q 403 0 478 0 l 381 0 l 381 160 l 426 160 q 453 167 444 160 q 461 190 461 175 m 333 701 l 333 519 l 90 519 l 90 719 q 137 844 90 797 q 294 892 183 892 l 386 892 l 386 732 l 368 732 q 342 724 350 732 q 333 701 333 717 m 333 538 l 333 190 q 342 167 333 175 q 368 160 350 160 l 386 160 l 386 0 l 294 0 q 137 47 183 0 q 90 172 90 94 l 90 538 l 333 538 m 503 892 l 676 892 l 676 0 l 503 0 l 503 892 m 928 529 l 928 369 l 538 369 l 538 529 l 928 529 m 968 892 l 968 732 l 519 732 l 519 892 l 968 892 m 981 160 l 981 0 l 519 0 l 519 160 l 981 160 z "},"Ó":{"ha":717,"x_min":51,"x_max":665,"o":"m 422 519 l 422 688 q 414 710 422 703 q 388 718 406 718 l 342 718 l 342 892 l 461 892 q 619 844 572 892 q 665 719 665 797 l 665 519 l 422 519 m 422 204 l 422 538 l 665 538 l 665 172 q 619 47 665 94 q 461 0 572 0 l 342 0 l 342 174 l 388 174 q 414 181 406 174 q 422 204 422 189 m 294 688 l 294 519 l 51 519 l 51 719 q 98 844 51 797 q 256 892 144 892 l 375 892 l 375 718 l 329 718 q 303 710 311 718 q 294 688 294 703 m 294 538 l 294 204 q 303 181 294 189 q 329 174 311 174 l 375 174 l 375 0 l 256 0 q 98 47 144 0 q 51 172 51 94 l 51 538 l 294 538 m 271 938 l 406 1146 l 642 1146 l 457 938 l 271 938 z "},"Ô":{"ha":717,"x_min":51,"x_max":665,"o":"m 422 519 l 422 688 q 414 710 422 703 q 388 718 406 718 l 342 718 l 342 892 l 461 892 q 619 844 572 892 q 665 719 665 797 l 665 519 l 422 519 m 422 204 l 422 538 l 665 538 l 665 172 q 619 47 665 94 q 461 0 572 0 l 342 0 l 342 174 l 388 174 q 414 181 406 174 q 422 204 422 189 m 294 688 l 294 519 l 51 519 l 51 719 q 98 844 51 797 q 256 892 144 892 l 375 892 l 375 718 l 329 718 q 303 710 311 718 q 294 688 294 703 m 294 538 l 294 204 q 303 181 294 189 q 329 174 311 174 l 375 174 l 375 0 l 256 0 q 98 47 144 0 q 51 172 51 94 l 51 538 l 294 538 m 64 938 l 249 1146 l 463 1146 l 647 938 l 429 938 l 356 1033 l 282 938 l 64 938 z "},"Ö":{"ha":694,"x_min":51,"x_max":665,"o":"m 86 938 l 86 1118 l 297 1118 l 297 938 l 86 938 m 419 938 l 419 1118 l 631 1118 l 631 938 l 419 938 m 422 519 l 422 688 q 414 710 422 703 q 388 718 406 718 l 342 718 l 342 892 l 461 892 q 619 844 572 892 q 665 719 665 797 l 665 519 l 422 519 m 422 204 l 422 538 l 665 538 l 665 172 q 619 47 665 94 q 461 0 572 0 l 342 0 l 342 174 l 388 174 q 414 181 406 174 q 422 204 422 189 m 294 688 l 294 519 l 51 519 l 51 719 q 98 844 51 797 q 256 892 144 892 l 375 892 l 375 718 l 329 718 q 303 710 311 718 q 294 688 294 703 m 294 538 l 294 204 q 303 181 294 189 q 329 174 311 174 l 375 174 l 375 0 l 256 0 q 98 47 144 0 q 51 172 51 94 l 51 538 l 294 538 z "},"Ò":{"ha":717,"x_min":51,"x_max":665,"o":"m 422 519 l 422 688 q 414 710 422 703 q 388 718 406 718 l 342 718 l 342 892 l 461 892 q 619 844 572 892 q 665 719 665 797 l 665 519 l 422 519 m 422 204 l 422 538 l 665 538 l 665 172 q 619 47 665 94 q 461 0 572 0 l 342 0 l 342 174 l 388 174 q 414 181 406 174 q 422 204 422 189 m 294 688 l 294 519 l 51 519 l 51 719 q 98 844 51 797 q 256 892 144 892 l 375 892 l 375 718 l 329 718 q 303 710 311 718 q 294 688 294 703 m 294 538 l 294 204 q 303 181 294 189 q 329 174 311 174 l 375 174 l 375 0 l 256 0 q 98 47 144 0 q 51 172 51 94 l 51 538 l 294 538 m 313 1146 l 447 938 l 261 938 l 76 1146 l 313 1146 z "},"Ő":{"ha":694,"x_min":51,"x_max":754,"o":"m 415 936 l 550 1144 l 754 1144 l 569 936 l 415 936 m 151 936 l 286 1144 l 490 1144 l 306 936 l 151 936 m 422 519 l 422 688 q 414 710 422 703 q 388 718 406 718 l 342 718 l 342 892 l 461 892 q 619 844 572 892 q 665 719 665 797 l 665 519 l 422 519 m 422 204 l 422 538 l 665 538 l 665 172 q 619 47 665 94 q 461 0 572 0 l 342 0 l 342 174 l 388 174 q 414 181 406 174 q 422 204 422 189 m 294 688 l 294 519 l 51 519 l 51 719 q 98 844 51 797 q 256 892 144 892 l 375 892 l 375 718 l 329 718 q 303 710 311 718 q 294 688 294 703 m 294 538 l 294 204 q 303 181 294 189 q 329 174 311 174 l 375 174 l 375 0 l 256 0 q 98 47 144 0 q 51 172 51 94 l 51 538 l 294 538 z "},"Ō":{"ha":717,"x_min":51,"x_max":665,"o":"m 422 519 l 422 688 q 414 710 422 703 q 388 718 406 718 l 342 718 l 342 892 l 461 892 q 619 844 572 892 q 665 719 665 797 l 665 519 l 422 519 m 422 204 l 422 538 l 665 538 l 665 172 q 619 47 665 94 q 461 0 572 0 l 342 0 l 342 174 l 388 174 q 414 181 406 174 q 422 204 422 189 m 294 688 l 294 519 l 51 519 l 51 719 q 98 844 51 797 q 256 892 144 892 l 375 892 l 375 718 l 329 718 q 303 710 311 718 q 294 688 294 703 m 294 538 l 294 204 q 303 181 294 189 q 329 174 311 174 l 375 174 l 375 0 l 256 0 q 98 47 144 0 q 51 172 51 94 l 51 538 l 294 538 m 88 938 l 88 1085 l 628 1085 l 628 938 l 88 938 z "},"Ø":{"ha":717,"x_min":42,"x_max":683,"o":"m 665 719 l 665 172 q 619 47 665 94 q 461 0 572 0 l 256 0 q 98 47 144 0 q 51 172 51 94 l 51 719 q 98 844 51 797 q 256 892 144 892 l 461 892 q 619 844 572 892 q 665 719 665 797 m 436 190 l 436 701 q 428 724 436 717 q 401 732 419 732 l 315 732 q 289 724 297 732 q 281 701 281 717 l 281 190 q 289 167 281 175 q 315 160 297 160 l 401 160 q 428 167 419 160 q 436 190 436 175 m 581 919 l 683 919 l 144 -28 l 42 -28 l 581 919 z "},"Õ":{"ha":717,"x_min":51,"x_max":665,"o":"m 422 519 l 422 688 q 414 710 422 703 q 388 718 406 718 l 342 718 l 342 892 l 461 892 q 619 844 572 892 q 665 719 665 797 l 665 519 l 422 519 m 422 204 l 422 538 l 665 538 l 665 172 q 619 47 665 94 q 461 0 572 0 l 342 0 l 342 174 l 388 174 q 414 181 406 174 q 422 204 422 189 m 294 688 l 294 519 l 51 519 l 51 719 q 98 844 51 797 q 256 892 144 892 l 375 892 l 375 718 l 329 718 q 303 710 311 718 q 294 688 294 703 m 294 538 l 294 204 q 303 181 294 189 q 329 174 311 174 l 375 174 l 375 0 l 256 0 q 98 47 144 0 q 51 172 51 94 l 51 538 l 294 538 m 464 938 q 391 956 424 938 q 334 992 358 974 q 294 1010 310 1010 q 269 981 269 1010 l 269 938 l 82 938 l 82 1014 q 112 1110 82 1075 q 219 1146 142 1146 l 246 1146 q 319 1128 286 1146 q 376 1092 351 1110 q 415 1074 401 1074 q 434 1081 428 1074 q 440 1103 440 1089 l 440 1146 l 628 1146 l 628 1063 q 597 969 628 1001 q 488 938 567 938 l 464 938 z "},"P":{"ha":700,"x_min":56,"x_max":672,"o":"m 429 496 l 429 688 q 421 710 429 703 q 394 718 413 718 l 136 718 l 136 892 l 468 892 q 626 844 579 892 q 672 719 672 797 l 672 464 q 626 339 672 386 q 468 292 579 292 l 136 292 l 136 465 l 394 465 q 421 473 413 465 q 429 496 429 481 m 56 892 l 299 892 l 299 0 l 56 0 l 56 892 z "},"Q":{"ha":717,"x_min":51,"x_max":743,"o":"m 422 519 l 422 688 q 414 710 422 703 q 388 718 406 718 l 342 718 l 342 892 l 461 892 q 619 844 572 892 q 665 719 665 797 l 665 519 l 422 519 m 422 204 l 422 538 l 665 538 l 665 172 q 619 47 665 94 q 461 0 572 0 l 342 0 l 342 174 l 388 174 q 414 181 406 174 q 422 204 422 189 m 294 688 l 294 519 l 51 519 l 51 719 q 98 844 51 797 q 256 892 144 892 l 375 892 l 375 718 l 329 718 q 303 710 311 718 q 294 688 294 703 m 294 538 l 294 204 q 303 181 294 189 q 329 174 311 174 l 375 174 l 375 0 l 256 0 q 98 47 144 0 q 51 172 51 94 l 51 538 l 294 538 m 219 174 l 492 174 l 743 -94 l 467 -94 l 219 174 z "},"R":{"ha":714,"x_min":56,"x_max":717,"o":"m 429 513 l 429 688 q 421 710 429 703 q 394 718 413 718 l 136 718 l 136 892 l 468 892 q 626 844 579 892 q 672 719 672 797 l 672 489 q 626 364 672 411 q 468 317 579 317 l 136 317 l 136 482 l 394 482 q 421 490 413 482 q 429 513 429 497 m 56 892 l 299 892 l 299 0 l 56 0 l 56 892 m 271 414 l 508 414 l 717 0 l 456 0 l 271 414 z "},"Ŕ":{"ha":714,"x_min":56,"x_max":717,"o":"m 429 513 l 429 688 q 421 710 429 703 q 394 718 413 718 l 136 718 l 136 892 l 468 892 q 626 844 579 892 q 672 719 672 797 l 672 489 q 626 364 672 411 q 468 317 579 317 l 136 317 l 136 482 l 394 482 q 421 490 413 482 q 429 513 429 497 m 56 892 l 299 892 l 299 0 l 56 0 l 56 892 m 271 414 l 508 414 l 717 0 l 456 0 l 271 414 m 244 936 l 379 1144 l 615 1144 l 431 936 l 244 936 z "},"Ř":{"ha":714,"x_min":56,"x_max":717,"o":"m 429 513 l 429 688 q 421 710 429 703 q 394 718 413 718 l 136 718 l 136 892 l 468 892 q 626 844 579 892 q 672 719 672 797 l 672 489 q 626 364 672 411 q 468 317 579 317 l 136 317 l 136 482 l 394 482 q 421 490 413 482 q 429 513 429 497 m 56 892 l 299 892 l 299 0 l 56 0 l 56 892 m 271 414 l 508 414 l 717 0 l 456 0 l 271 414 m 246 936 l 61 1144 l 279 1144 l 353 1049 l 426 1144 l 644 1144 l 460 936 l 246 936 z "},"Ŗ":{"ha":714,"x_min":56,"x_max":717,"o":"m 429 513 l 429 688 q 421 710 429 703 q 394 718 413 718 l 136 718 l 136 892 l 468 892 q 626 844 579 892 q 672 719 672 797 l 672 489 q 626 364 672 411 q 468 317 579 317 l 136 317 l 136 482 l 394 482 q 421 490 413 482 q 429 513 429 497 m 56 892 l 299 892 l 299 0 l 56 0 l 56 892 m 271 414 l 508 414 l 717 0 l 456 0 l 271 414 m 228 -64 l 460 -64 l 460 -185 l 300 -415 l 228 -415 l 228 -64 z "},"S":{"ha":682,"x_min":42,"x_max":640,"o":"m 397 204 l 397 331 q 389 353 397 346 q 363 361 381 361 l 229 361 q 81 410 121 361 q 42 536 42 458 l 42 719 q 88 844 42 797 q 244 892 133 892 l 435 892 q 592 844 546 892 q 638 719 638 797 l 638 613 l 394 613 l 394 688 q 386 710 394 703 q 360 718 378 718 l 319 718 q 293 710 301 718 q 285 688 285 703 l 285 556 q 293 533 285 540 q 319 525 301 525 l 450 525 q 599 479 558 525 q 640 356 640 433 l 640 172 q 594 47 640 94 q 438 0 549 0 l 249 0 q 91 47 138 0 q 44 172 44 94 l 44 279 l 288 279 l 288 204 q 296 181 288 189 q 322 174 304 174 l 363 174 q 389 181 381 174 q 397 204 397 189 z "},"Ś":{"ha":682,"x_min":42,"x_max":640,"o":"m 397 204 l 397 331 q 389 353 397 346 q 363 361 381 361 l 229 361 q 81 410 121 361 q 42 536 42 458 l 42 719 q 88 844 42 797 q 244 892 133 892 l 435 892 q 592 844 546 892 q 638 719 638 797 l 638 613 l 394 613 l 394 688 q 386 710 394 703 q 360 718 378 718 l 319 718 q 293 710 301 718 q 285 688 285 703 l 285 556 q 293 533 285 540 q 319 525 301 525 l 450 525 q 599 479 558 525 q 640 356 640 433 l 640 172 q 594 47 640 94 q 438 0 549 0 l 249 0 q 91 47 138 0 q 44 172 44 94 l 44 279 l 288 279 l 288 204 q 296 181 288 189 q 322 174 304 174 l 363 174 q 389 181 381 174 q 397 204 397 189 m 268 938 l 403 1146 l 639 1146 l 454 938 l 268 938 z "},"Š":{"ha":682,"x_min":42,"x_max":640,"o":"m 397 204 l 397 331 q 389 353 397 346 q 363 361 381 361 l 229 361 q 81 410 121 361 q 42 536 42 458 l 42 719 q 88 844 42 797 q 244 892 133 892 l 435 892 q 592 844 546 892 q 638 719 638 797 l 638 613 l 394 613 l 394 688 q 386 710 394 703 q 360 718 378 718 l 319 718 q 293 710 301 718 q 285 688 285 703 l 285 556 q 293 533 285 540 q 319 525 301 525 l 450 525 q 599 479 558 525 q 640 356 640 433 l 640 172 q 594 47 640 94 q 438 0 549 0 l 249 0 q 91 47 138 0 q 44 172 44 94 l 44 279 l 288 279 l 288 204 q 296 181 288 189 q 322 174 304 174 l 363 174 q 389 181 381 174 q 397 204 397 189 m 233 938 l 49 1146 l 267 1146 l 340 1050 l 414 1146 l 632 1146 l 447 938 l 233 938 z "},"Ş":{"ha":682,"x_min":42,"x_max":640,"o":"m 397 204 l 397 331 q 389 353 397 346 q 363 361 381 361 l 229 361 q 81 410 121 361 q 42 536 42 458 l 42 719 q 88 844 42 797 q 244 892 133 892 l 435 892 q 592 844 546 892 q 638 719 638 797 l 638 613 l 394 613 l 394 688 q 386 710 394 703 q 360 718 378 718 l 319 718 q 293 710 301 718 q 285 688 285 703 l 285 556 q 293 533 285 540 q 319 525 301 525 l 450 525 q 599 479 558 525 q 640 356 640 433 l 640 172 q 594 47 640 94 q 438 0 549 0 l 249 0 q 91 47 138 0 q 44 172 44 94 l 44 279 l 288 279 l 288 204 q 296 181 288 189 q 322 174 304 174 l 363 174 q 389 181 381 174 q 397 204 397 189 m 217 -64 l 449 -64 l 449 -185 l 289 -415 l 217 -415 l 217 -64 z "},"Ș":{"ha":682,"x_min":42,"x_max":640,"o":"m 397 204 l 397 331 q 389 353 397 346 q 363 361 381 361 l 229 361 q 81 410 121 361 q 42 536 42 458 l 42 719 q 88 844 42 797 q 244 892 133 892 l 435 892 q 592 844 546 892 q 638 719 638 797 l 638 613 l 394 613 l 394 688 q 386 710 394 703 q 360 718 378 718 l 319 718 q 293 710 301 718 q 285 688 285 703 l 285 556 q 293 533 285 540 q 319 525 301 525 l 450 525 q 599 479 558 525 q 640 356 640 433 l 640 172 q 594 47 640 94 q 438 0 549 0 l 249 0 q 91 47 138 0 q 44 172 44 94 l 44 279 l 288 279 l 288 204 q 296 181 288 189 q 322 174 304 174 l 363 174 q 389 181 381 174 q 397 204 397 189 m 219 -64 l 451 -64 l 451 -185 l 292 -415 l 219 -415 l 219 -64 z "},"T":{"ha":600,"x_min":7,"x_max":593,"o":"m 178 808 l 421 808 l 421 0 l 178 0 l 178 808 m 593 892 l 593 718 l 7 718 l 7 892 l 593 892 z "},"Ť":{"ha":600,"x_min":4,"x_max":593,"o":"m 178 808 l 421 808 l 421 0 l 178 0 l 178 808 m 593 892 l 593 718 l 7 718 l 7 892 l 593 892 m 189 938 l 4 1146 l 222 1146 l 296 1050 l 369 1146 l 588 1146 l 403 938 l 189 938 z "},"Ţ":{"ha":600,"x_min":7,"x_max":593,"o":"m 178 808 l 421 808 l 421 0 l 178 0 l 178 808 m 593 892 l 593 718 l 7 718 l 7 892 l 593 892 m 185 -64 l 417 -64 l 417 -185 l 257 -415 l 185 -415 l 185 -64 z "},"Ț":{"ha":600,"x_min":7,"x_max":593,"o":"m 178 808 l 421 808 l 421 0 l 178 0 l 178 808 m 593 892 l 593 718 l 7 718 l 7 892 l 593 892 m 182 -64 l 414 -64 l 414 -185 l 254 -415 l 182 -415 l 182 -64 z "},"Þ":{"ha":742,"x_min":63,"x_max":665,"o":"m 422 357 l 422 533 q 414 556 422 549 q 388 564 406 564 l 143 564 l 143 731 l 461 731 q 619 683 572 731 q 665 558 665 636 l 665 332 q 619 207 665 254 q 461 160 572 160 l 143 160 l 143 326 l 388 326 q 414 334 406 326 q 422 357 422 342 m 63 892 l 306 892 l 306 0 l 63 0 l 63 892 z "},"U":{"ha":725,"x_min":56,"x_max":669,"o":"m 426 204 l 426 892 l 669 892 l 669 172 q 623 47 669 94 q 465 0 576 0 l 346 0 l 346 174 l 392 174 q 418 181 410 174 q 426 204 426 189 m 299 892 l 299 204 q 307 181 299 189 q 333 174 315 174 l 379 174 l 379 0 l 260 0 q 102 47 149 0 q 56 172 56 94 l 56 892 l 299 892 z "},"Ú":{"ha":725,"x_min":56,"x_max":669,"o":"m 426 204 l 426 892 l 669 892 l 669 172 q 623 47 669 94 q 465 0 576 0 l 346 0 l 346 174 l 392 174 q 418 181 410 174 q 426 204 426 189 m 299 892 l 299 204 q 307 181 299 189 q 333 174 315 174 l 379 174 l 379 0 l 260 0 q 102 47 149 0 q 56 172 56 94 l 56 892 l 299 892 m 258 938 l 393 1146 l 629 1146 l 444 938 l 258 938 z "},"Û":{"ha":725,"x_min":56,"x_max":669,"o":"m 426 204 l 426 892 l 669 892 l 669 172 q 623 47 669 94 q 465 0 576 0 l 346 0 l 346 174 l 392 174 q 418 181 410 174 q 426 204 426 189 m 299 892 l 299 204 q 307 181 299 189 q 333 174 315 174 l 379 174 l 379 0 l 260 0 q 102 47 149 0 q 56 172 56 94 l 56 892 l 299 892 m 71 938 l 256 1146 l 469 1146 l 654 938 l 436 938 l 363 1033 l 289 938 l 71 938 z "},"Ü":{"ha":725,"x_min":56,"x_max":669,"o":"m 89 938 l 89 1118 l 300 1118 l 300 938 l 89 938 m 422 938 l 422 1118 l 633 1118 l 633 938 l 422 938 m 426 204 l 426 892 l 669 892 l 669 172 q 623 47 669 94 q 465 0 576 0 l 346 0 l 346 174 l 392 174 q 418 181 410 174 q 426 204 426 189 m 299 892 l 299 204 q 307 181 299 189 q 333 174 315 174 l 379 174 l 379 0 l 260 0 q 102 47 149 0 q 56 172 56 94 l 56 892 l 299 892 z "},"Ù":{"ha":725,"x_min":56,"x_max":669,"o":"m 426 204 l 426 892 l 669 892 l 669 172 q 623 47 669 94 q 465 0 576 0 l 346 0 l 346 174 l 392 174 q 418 181 410 174 q 426 204 426 189 m 299 892 l 299 204 q 307 181 299 189 q 333 174 315 174 l 379 174 l 379 0 l 260 0 q 102 47 149 0 q 56 172 56 94 l 56 892 l 299 892 m 318 1146 l 453 938 l 267 938 l 82 1146 l 318 1146 z "},"Ű":{"ha":694,"x_min":56,"x_max":743,"o":"m 404 938 l 539 1146 l 743 1146 l 558 938 l 404 938 m 140 938 l 275 1146 l 479 1146 l 294 938 l 140 938 m 426 204 l 426 892 l 669 892 l 669 172 q 623 47 669 94 q 465 0 576 0 l 346 0 l 346 174 l 392 174 q 418 181 410 174 q 426 204 426 189 m 299 892 l 299 204 q 307 181 299 189 q 333 174 315 174 l 379 174 l 379 0 l 260 0 q 102 47 149 0 q 56 172 56 94 l 56 892 l 299 892 z "},"Ū":{"ha":725,"x_min":56,"x_max":669,"o":"m 426 204 l 426 892 l 669 892 l 669 172 q 623 47 669 94 q 465 0 576 0 l 346 0 l 346 174 l 392 174 q 418 181 410 174 q 426 204 426 189 m 299 892 l 299 204 q 307 181 299 189 q 333 174 315 174 l 379 174 l 379 0 l 260 0 q 102 47 149 0 q 56 172 56 94 l 56 892 l 299 892 m 93 938 l 93 1085 l 633 1085 l 633 938 l 93 938 z "},"Ų":{"ha":725,"x_min":56,"x_max":669,"o":"m 426 204 l 426 892 l 669 892 l 669 172 q 623 47 669 94 q 465 0 576 0 l 346 0 l 346 174 l 392 174 q 418 181 410 174 q 426 204 426 189 m 299 892 l 299 204 q 307 181 299 189 q 333 174 315 174 l 379 174 l 379 0 l 260 0 q 102 47 149 0 q 56 172 56 94 l 56 892 l 299 892 m 146 -168 q 179 -63 146 -103 q 306 -24 213 -24 l 440 -24 l 440 -158 l 339 -158 q 317 -165 324 -158 q 310 -183 310 -171 l 310 -221 q 317 -240 310 -233 q 339 -246 324 -246 l 465 -246 l 465 -381 l 306 -381 q 179 -341 213 -381 q 146 -235 146 -301 l 146 -168 m 440 -31 l 314 -31 l 314 21 l 440 21 l 440 -31 z "},"Ů":{"ha":725,"x_min":56,"x_max":669,"o":"m 426 204 l 426 892 l 669 892 l 669 172 q 623 47 669 94 q 465 0 576 0 l 346 0 l 346 174 l 392 174 q 418 181 410 174 q 426 204 426 189 m 299 892 l 299 204 q 307 181 299 189 q 333 174 315 174 l 379 174 l 379 0 l 260 0 q 102 47 149 0 q 56 172 56 94 l 56 892 l 299 892 m 564 1082 l 564 1060 q 533 970 564 1004 q 422 936 503 936 l 303 936 q 192 970 222 936 q 161 1060 161 1004 l 161 1082 q 192 1173 161 1139 q 303 1207 222 1207 l 422 1207 q 533 1173 503 1207 q 564 1082 564 1139 m 417 1061 l 417 1081 q 410 1101 417 1094 q 389 1107 404 1107 l 336 1107 q 315 1101 321 1107 q 308 1081 308 1094 l 308 1061 q 315 1041 308 1047 q 336 1035 321 1035 l 389 1035 q 410 1041 404 1035 q 417 1061 417 1047 z "},"V":{"ha":740,"x_min":10,"x_max":731,"o":"m 478 892 l 731 892 l 511 0 l 229 0 l 10 892 l 263 892 l 369 296 l 478 892 z "},"W":{"ha":1161,"x_min":14,"x_max":1147,"o":"m 907 892 l 1147 892 l 958 0 l 679 0 l 581 532 l 482 0 l 203 0 l 14 892 l 267 892 l 342 292 l 461 892 l 699 892 l 818 292 l 907 892 z "},"X":{"ha":724,"x_min":0,"x_max":724,"o":"m 492 453 l 724 0 l 450 0 l 354 250 l 258 0 l 0 0 l 218 453 l 6 892 l 281 892 l 354 664 l 429 892 l 690 892 l 492 453 z "},"Y":{"ha":721,"x_min":0,"x_max":721,"o":"m 472 249 l 263 249 l 0 892 l 249 892 l 365 515 l 474 892 l 721 892 l 472 249 m 246 378 l 489 378 l 489 0 l 246 0 l 246 378 z "},"Ý":{"ha":721,"x_min":0,"x_max":721,"o":"m 472 249 l 263 249 l 0 892 l 249 892 l 365 515 l 474 892 l 721 892 l 472 249 m 246 378 l 489 378 l 489 0 l 246 0 l 246 378 m 258 938 l 393 1146 l 629 1146 l 444 938 l 258 938 z "},"Ÿ":{"ha":694,"x_min":0,"x_max":721,"o":"m 75 963 l 75 1143 l 286 1143 l 286 963 l 75 963 m 408 963 l 408 1143 l 619 1143 l 619 963 l 408 963 m 472 249 l 263 249 l 0 892 l 249 892 l 365 515 l 474 892 l 721 892 l 472 249 m 246 378 l 489 378 l 489 0 l 246 0 l 246 378 z "},"Z":{"ha":644,"x_min":28,"x_max":617,"o":"m 617 892 l 617 718 l 46 718 l 46 892 l 617 892 m 363 718 l 617 718 l 282 174 l 28 174 l 363 718 m 607 174 l 607 0 l 28 0 l 28 174 l 607 174 z "},"Ź":{"ha":644,"x_min":28,"x_max":617,"o":"m 617 892 l 617 718 l 46 718 l 46 892 l 617 892 m 363 718 l 617 718 l 282 174 l 28 174 l 363 718 m 607 174 l 607 0 l 28 0 l 28 174 l 607 174 m 228 938 l 363 1146 l 599 1146 l 414 938 l 228 938 z "},"Ž":{"ha":644,"x_min":28,"x_max":638,"o":"m 617 892 l 617 718 l 46 718 l 46 892 l 617 892 m 363 718 l 617 718 l 282 174 l 28 174 l 363 718 m 607 174 l 607 0 l 28 0 l 28 174 l 607 174 m 239 938 l 54 1146 l 272 1146 l 346 1050 l 419 1146 l 638 1146 l 453 938 l 239 938 z "},"Ż":{"ha":644,"x_min":28,"x_max":617,"o":"m 617 892 l 617 718 l 46 718 l 46 892 l 617 892 m 363 718 l 617 718 l 282 174 l 28 174 l 363 718 m 607 174 l 607 0 l 28 0 l 28 174 l 607 174 m 226 938 l 226 1118 l 451 1118 l 451 938 l 226 938 z "},"a":{"ha":665,"x_min":42,"x_max":610,"o":"m 278 333 l 42 333 l 42 521 q 85 646 42 599 q 226 693 128 693 l 251 693 q 349 658 317 693 q 382 565 382 624 l 382 440 l 374 440 l 374 478 q 365 510 374 500 q 336 519 356 519 l 313 519 q 286 512 294 519 q 278 489 278 504 l 278 333 m 610 0 l 374 0 l 374 561 l 378 561 l 378 693 l 610 693 l 610 0 m 42 360 l 278 360 l 278 204 q 286 181 278 189 q 313 174 294 174 l 336 174 q 365 183 356 174 q 374 215 374 193 l 374 253 l 382 253 l 382 128 q 349 35 382 69 q 251 0 317 0 l 226 0 q 85 47 128 0 q 42 172 42 94 l 42 360 z "},"á":{"ha":665,"x_min":42,"x_max":615,"o":"m 278 333 l 42 333 l 42 521 q 85 646 42 599 q 226 693 128 693 l 251 693 q 349 658 317 693 q 382 565 382 624 l 382 440 l 374 440 l 374 478 q 365 510 374 500 q 336 519 356 519 l 313 519 q 286 512 294 519 q 278 489 278 504 l 278 333 m 610 0 l 374 0 l 374 561 l 378 561 l 378 693 l 610 693 l 610 0 m 42 360 l 278 360 l 278 204 q 286 181 278 189 q 313 174 294 174 l 336 174 q 365 183 356 174 q 374 215 374 193 l 374 253 l 382 253 l 382 128 q 349 35 382 69 q 251 0 317 0 l 226 0 q 85 47 128 0 q 42 172 42 94 l 42 360 m 244 739 l 379 947 l 615 947 l 431 739 l 244 739 z "},"ă":{"ha":665,"x_min":42,"x_max":635,"o":"m 278 333 l 42 333 l 42 521 q 85 646 42 599 q 226 693 128 693 l 251 693 q 349 658 317 693 q 382 565 382 624 l 382 440 l 374 440 l 374 478 q 365 510 374 500 q 336 519 356 519 l 313 519 q 286 512 294 519 q 278 489 278 504 l 278 333 m 610 0 l 374 0 l 374 561 l 378 561 l 378 693 l 610 693 l 610 0 m 42 360 l 278 360 l 278 204 q 286 181 278 189 q 313 174 294 174 l 336 174 q 365 183 356 174 q 374 215 374 193 l 374 253 l 382 253 l 382 128 q 349 35 382 69 q 251 0 317 0 l 226 0 q 85 47 128 0 q 42 172 42 94 l 42 360 m 426 947 l 635 947 l 635 911 q 588 786 635 833 q 431 739 542 739 l 347 739 l 347 871 l 392 871 q 418 878 410 871 q 426 901 426 886 l 426 947 m 88 947 l 296 947 l 296 901 q 304 878 296 886 q 331 871 313 871 l 375 871 l 375 739 l 292 739 q 134 786 181 739 q 88 911 88 833 l 88 947 z "},"â":{"ha":665,"x_min":42,"x_max":626,"o":"m 278 333 l 42 333 l 42 521 q 85 646 42 599 q 226 693 128 693 l 251 693 q 349 658 317 693 q 382 565 382 624 l 382 440 l 374 440 l 374 478 q 365 510 374 500 q 336 519 356 519 l 313 519 q 286 512 294 519 q 278 489 278 504 l 278 333 m 610 0 l 374 0 l 374 561 l 378 561 l 378 693 l 610 693 l 610 0 m 42 360 l 278 360 l 278 204 q 286 181 278 189 q 313 174 294 174 l 336 174 q 365 183 356 174 q 374 215 374 193 l 374 253 l 382 253 l 382 128 q 349 35 382 69 q 251 0 317 0 l 226 0 q 85 47 128 0 q 42 172 42 94 l 42 360 m 43 739 l 228 947 l 442 947 l 626 739 l 408 739 l 335 835 l 261 739 l 43 739 z "},"ä":{"ha":665,"x_min":42,"x_max":619,"o":"m 75 753 l 75 933 l 286 933 l 286 753 l 75 753 m 408 753 l 408 933 l 619 933 l 619 753 l 408 753 m 278 333 l 42 333 l 42 521 q 85 646 42 599 q 226 693 128 693 l 251 693 q 349 658 317 693 q 382 565 382 624 l 382 440 l 374 440 l 374 478 q 365 510 374 500 q 336 519 356 519 l 313 519 q 286 512 294 519 q 278 489 278 504 l 278 333 m 610 0 l 374 0 l 374 561 l 378 561 l 378 693 l 610 693 l 610 0 m 42 360 l 278 360 l 278 204 q 286 181 278 189 q 313 174 294 174 l 336 174 q 365 183 356 174 q 374 215 374 193 l 374 253 l 382 253 l 382 128 q 349 35 382 69 q 251 0 317 0 l 226 0 q 85 47 128 0 q 42 172 42 94 l 42 360 z "},"æ":{"ha":1022,"x_min":49,"x_max":958,"o":"m 424 443 l 479 324 l 285 242 l 49 289 l 424 443 m 49 289 l 285 242 l 285 204 q 293 181 285 189 q 319 174 301 174 l 343 174 q 372 183 363 174 q 381 215 381 193 l 381 478 q 343 519 381 519 l 319 519 q 293 512 301 519 q 285 489 285 504 l 285 429 l 49 429 l 49 521 q 92 646 49 599 q 233 693 135 693 l 328 693 q 422 672 378 693 q 486 615 467 651 q 552 672 508 651 q 668 693 596 693 l 754 693 q 912 646 865 693 q 958 521 958 599 l 958 310 l 729 310 l 729 496 q 721 519 729 511 q 694 526 713 526 l 644 526 q 618 519 626 526 q 610 496 610 511 l 610 197 q 618 174 610 182 q 644 167 626 167 l 694 167 q 721 174 713 167 q 729 197 729 182 l 729 232 l 958 232 l 958 172 q 912 47 958 94 q 754 0 865 0 l 667 0 q 551 21 594 0 q 485 78 507 42 q 421 21 465 42 q 326 0 376 0 l 233 0 q 92 47 135 0 q 49 172 49 94 l 49 289 m 958 417 l 958 279 l 438 279 l 438 417 l 958 417 z "},"à":{"ha":665,"x_min":42,"x_max":610,"o":"m 278 333 l 42 333 l 42 521 q 85 646 42 599 q 226 693 128 693 l 251 693 q 349 658 317 693 q 382 565 382 624 l 382 440 l 374 440 l 374 478 q 365 510 374 500 q 336 519 356 519 l 313 519 q 286 512 294 519 q 278 489 278 504 l 278 333 m 610 0 l 374 0 l 374 561 l 378 561 l 378 693 l 610 693 l 610 0 m 42 360 l 278 360 l 278 204 q 286 181 278 189 q 313 174 294 174 l 336 174 q 365 183 356 174 q 374 215 374 193 l 374 253 l 382 253 l 382 128 q 349 35 382 69 q 251 0 317 0 l 226 0 q 85 47 128 0 q 42 172 42 94 l 42 360 m 329 947 l 464 739 l 278 739 l 93 947 l 329 947 z "},"ā":{"ha":665,"x_min":42,"x_max":610,"o":"m 278 333 l 42 333 l 42 521 q 85 646 42 599 q 226 693 128 693 l 251 693 q 349 658 317 693 q 382 565 382 624 l 382 440 l 374 440 l 374 478 q 365 510 374 500 q 336 519 356 519 l 313 519 q 286 512 294 519 q 278 489 278 504 l 278 333 m 610 0 l 374 0 l 374 561 l 378 561 l 378 693 l 610 693 l 610 0 m 42 360 l 278 360 l 278 204 q 286 181 278 189 q 313 174 294 174 l 336 174 q 365 183 356 174 q 374 215 374 193 l 374 253 l 382 253 l 382 128 q 349 35 382 69 q 251 0 317 0 l 226 0 q 85 47 128 0 q 42 172 42 94 l 42 360 m 63 771 l 63 918 l 603 918 l 603 771 l 63 771 z "},"ą":{"ha":665,"x_min":42,"x_max":635,"o":"m 278 333 l 42 333 l 42 521 q 85 646 42 599 q 226 693 128 693 l 251 693 q 349 658 317 693 q 382 565 382 624 l 382 440 l 374 440 l 374 478 q 365 510 374 500 q 336 519 356 519 l 313 519 q 286 512 294 519 q 278 489 278 504 l 278 333 m 610 0 l 374 0 l 374 561 l 378 561 l 378 693 l 610 693 l 610 0 m 42 360 l 278 360 l 278 204 q 286 181 278 189 q 313 174 294 174 l 336 174 q 365 183 356 174 q 374 215 374 193 l 374 253 l 382 253 l 382 128 q 349 35 382 69 q 251 0 317 0 l 226 0 q 85 47 128 0 q 42 172 42 94 l 42 360 m 315 -168 q 349 -63 315 -103 q 475 -24 382 -24 l 610 -24 l 610 -158 l 508 -158 q 486 -165 493 -158 q 479 -183 479 -171 l 479 -221 q 486 -240 479 -233 q 508 -246 493 -246 l 635 -246 l 635 -381 l 475 -381 q 349 -341 382 -381 q 315 -235 315 -301 l 315 -168 m 610 -31 l 483 -31 l 483 21 l 610 21 l 610 -31 z "},"å":{"ha":665,"x_min":42,"x_max":610,"o":"m 278 333 l 42 333 l 42 521 q 85 646 42 599 q 226 693 128 693 l 251 693 q 349 658 317 693 q 382 565 382 624 l 382 440 l 374 440 l 374 478 q 365 510 374 500 q 336 519 356 519 l 313 519 q 286 512 294 519 q 278 489 278 504 l 278 333 m 610 0 l 374 0 l 374 561 l 378 561 l 378 693 l 610 693 l 610 0 m 42 360 l 278 360 l 278 204 q 286 181 278 189 q 313 174 294 174 l 336 174 q 365 183 356 174 q 374 215 374 193 l 374 253 l 382 253 l 382 128 q 349 35 382 69 q 251 0 317 0 l 226 0 q 85 47 128 0 q 42 172 42 94 l 42 360 m 535 882 l 535 860 q 504 770 535 804 q 393 736 474 736 l 274 736 q 163 770 193 736 q 132 860 132 804 l 132 882 q 163 973 132 939 q 274 1007 193 1007 l 393 1007 q 504 973 474 1007 q 535 882 535 939 m 388 861 l 388 881 q 381 901 388 894 q 360 907 375 907 l 307 907 q 285 901 292 907 q 279 881 279 894 l 279 861 q 285 841 279 847 q 307 835 292 835 l 360 835 q 381 841 375 835 q 388 861 388 847 z "},"ã":{"ha":665,"x_min":42,"x_max":610,"o":"m 278 333 l 42 333 l 42 521 q 85 646 42 599 q 226 693 128 693 l 251 693 q 349 658 317 693 q 382 565 382 624 l 382 440 l 374 440 l 374 478 q 365 510 374 500 q 336 519 356 519 l 313 519 q 286 512 294 519 q 278 489 278 504 l 278 333 m 610 0 l 374 0 l 374 561 l 378 561 l 378 693 l 610 693 l 610 0 m 42 360 l 278 360 l 278 204 q 286 181 278 189 q 313 174 294 174 l 336 174 q 365 183 356 174 q 374 215 374 193 l 374 253 l 382 253 l 382 128 q 349 35 382 69 q 251 0 317 0 l 226 0 q 85 47 128 0 q 42 172 42 94 l 42 360 m 440 739 q 367 757 400 739 q 310 793 335 775 q 271 811 286 811 q 246 782 246 811 l 246 739 l 58 739 l 58 815 q 88 912 58 876 q 196 947 118 947 l 222 947 q 295 929 263 947 q 353 893 328 911 q 392 875 378 875 q 410 883 404 875 q 417 904 417 890 l 417 947 l 604 947 l 604 864 q 574 771 604 803 q 464 739 543 739 l 440 739 z "},"b":{"ha":665,"x_min":56,"x_max":624,"o":"m 388 360 l 624 360 l 624 172 q 581 47 624 94 q 439 0 538 0 l 414 0 q 316 35 349 0 q 283 128 283 69 l 283 253 l 292 253 l 292 215 q 301 183 292 193 q 329 174 311 174 l 353 174 q 379 181 371 174 q 388 204 388 189 l 388 360 m 624 333 l 388 333 l 388 489 q 379 512 388 504 q 353 519 371 519 l 329 519 q 301 510 311 519 q 292 478 292 500 l 292 440 l 283 440 l 283 565 q 316 658 283 624 q 414 693 349 693 l 439 693 q 581 646 538 693 q 624 521 624 599 l 624 333 m 56 929 l 292 929 l 292 132 l 288 132 l 288 0 l 56 0 l 56 929 z "},"c":{"ha":626,"x_min":42,"x_max":599,"o":"m 278 489 l 278 204 q 286 181 278 189 q 313 174 294 174 l 340 174 l 340 0 l 246 0 q 88 47 135 0 q 42 172 42 94 l 42 521 q 88 646 42 599 q 246 693 135 693 l 339 693 l 339 519 l 313 519 q 286 512 294 519 q 278 489 278 504 m 371 425 l 371 489 q 363 512 371 504 q 336 519 354 519 l 319 519 l 319 693 l 394 693 q 552 646 506 693 q 599 521 599 599 l 599 425 l 371 425 m 371 204 l 371 268 l 599 268 l 599 172 q 552 47 599 94 q 394 0 506 0 l 319 0 l 319 174 l 336 174 q 363 181 354 174 q 371 204 371 189 z "},"ć":{"ha":626,"x_min":42,"x_max":601,"o":"m 278 489 l 278 204 q 286 181 278 189 q 313 174 294 174 l 340 174 l 340 0 l 246 0 q 88 47 135 0 q 42 172 42 94 l 42 521 q 88 646 42 599 q 246 693 135 693 l 339 693 l 339 519 l 313 519 q 286 512 294 519 q 278 489 278 504 m 371 425 l 371 489 q 363 512 371 504 q 336 519 354 519 l 319 519 l 319 693 l 394 693 q 552 646 506 693 q 599 521 599 599 l 599 425 l 371 425 m 371 204 l 371 268 l 599 268 l 599 172 q 552 47 599 94 q 394 0 506 0 l 319 0 l 319 174 l 336 174 q 363 181 354 174 q 371 204 371 189 m 231 739 l 365 947 l 601 947 l 417 739 l 231 739 z "},"č":{"ha":626,"x_min":22,"x_max":606,"o":"m 278 489 l 278 204 q 286 181 278 189 q 313 174 294 174 l 340 174 l 340 0 l 246 0 q 88 47 135 0 q 42 172 42 94 l 42 521 q 88 646 42 599 q 246 693 135 693 l 339 693 l 339 519 l 313 519 q 286 512 294 519 q 278 489 278 504 m 371 425 l 371 489 q 363 512 371 504 q 336 519 354 519 l 319 519 l 319 693 l 394 693 q 552 646 506 693 q 599 521 599 599 l 599 425 l 371 425 m 371 204 l 371 268 l 599 268 l 599 172 q 552 47 599 94 q 394 0 506 0 l 319 0 l 319 174 l 336 174 q 363 181 354 174 q 371 204 371 189 m 207 739 l 22 947 l 240 947 l 314 851 l 388 947 l 606 947 l 421 739 l 207 739 z "},"ç":{"ha":626,"x_min":42,"x_max":599,"o":"m 278 489 l 278 204 q 286 181 278 189 q 313 174 294 174 l 340 174 l 340 0 l 246 0 q 88 47 135 0 q 42 172 42 94 l 42 521 q 88 646 42 599 q 246 693 135 693 l 339 693 l 339 519 l 313 519 q 286 512 294 519 q 278 489 278 504 m 371 425 l 371 489 q 363 512 371 504 q 336 519 354 519 l 319 519 l 319 693 l 394 693 q 552 646 506 693 q 599 521 599 599 l 599 425 l 371 425 m 371 204 l 371 268 l 599 268 l 599 172 q 552 47 599 94 q 394 0 506 0 l 319 0 l 319 174 l 336 174 q 363 181 354 174 q 371 204 371 189 m 217 -171 l 217 -64 l 439 -64 l 439 -189 q 392 -314 439 -267 q 235 -361 346 -361 l 108 -361 l 108 -201 l 182 -201 q 208 -194 200 -201 q 217 -171 217 -186 z "},"d":{"ha":665,"x_min":42,"x_max":610,"o":"m 278 333 l 42 333 l 42 521 q 85 646 42 599 q 226 693 128 693 l 251 693 q 349 658 317 693 q 382 565 382 624 l 382 440 l 374 440 l 374 478 q 365 510 374 500 q 336 519 356 519 l 313 519 q 286 512 294 519 q 278 489 278 504 l 278 333 m 374 929 l 610 929 l 610 0 l 378 0 l 378 132 l 374 132 l 374 929 m 42 360 l 278 360 l 278 204 q 286 181 278 189 q 313 174 294 174 l 336 174 q 365 183 356 174 q 374 215 374 193 l 374 253 l 382 253 l 382 128 q 349 35 382 69 q 251 0 317 0 l 226 0 q 85 47 128 0 q 42 172 42 94 l 42 360 z "},"ď":{"ha":722,"x_min":42,"x_max":826,"o":"m 665 929 l 826 929 l 826 822 l 721 633 l 665 633 l 665 929 m 278 333 l 42 333 l 42 521 q 85 646 42 599 q 226 693 128 693 l 251 693 q 349 658 317 693 q 382 565 382 624 l 382 440 l 374 440 l 374 478 q 365 510 374 500 q 336 519 356 519 l 313 519 q 286 512 294 519 q 278 489 278 504 l 278 333 m 374 929 l 610 929 l 610 0 l 378 0 l 378 132 l 374 132 l 374 929 m 42 360 l 278 360 l 278 204 q 286 181 278 189 q 313 174 294 174 l 336 174 q 365 183 356 174 q 374 215 374 193 l 374 253 l 382 253 l 382 128 q 349 35 382 69 q 251 0 317 0 l 226 0 q 85 47 128 0 q 42 172 42 94 l 42 360 z "},"đ":{"ha":672,"x_min":49,"x_max":686,"o":"m 285 333 l 49 333 l 49 521 q 92 646 49 599 q 233 693 135 693 l 258 693 q 356 658 324 693 q 389 565 389 624 l 389 440 l 381 440 l 381 478 q 372 510 381 500 q 343 519 363 519 l 319 519 q 293 512 301 519 q 285 489 285 504 l 285 333 m 381 929 l 617 929 l 617 0 l 385 0 l 385 132 l 381 132 l 381 929 m 49 360 l 285 360 l 285 204 q 293 181 285 189 q 319 174 301 174 l 343 174 q 372 183 363 174 q 381 215 381 193 l 381 253 l 389 253 l 389 128 q 356 35 389 69 q 258 0 324 0 l 233 0 q 92 47 135 0 q 49 172 49 94 l 49 360 m 686 864 l 686 760 l 297 760 l 297 864 l 686 864 z "},"ı":{"ha":347,"x_min":56,"x_max":292,"o":"m 292 0 l 56 0 l 56 693 l 292 693 l 292 0 z "},"e":{"ha":654,"x_min":42,"x_max":619,"o":"m 265 500 l 265 193 q 274 170 265 178 q 300 163 282 163 l 340 163 l 340 0 l 246 0 q 88 47 135 0 q 42 172 42 94 l 42 521 q 88 646 42 599 q 246 693 135 693 l 339 693 l 339 531 l 300 531 q 274 523 282 531 q 265 500 265 515 m 396 315 l 396 500 q 388 523 396 515 q 361 531 379 531 l 332 531 l 332 693 l 415 693 q 573 646 526 693 q 619 521 619 599 l 619 315 l 396 315 m 396 196 l 396 235 l 619 235 l 619 172 q 573 47 619 94 q 415 0 526 0 l 332 0 l 332 163 l 361 163 q 388 172 379 163 q 396 196 396 181 m 619 413 l 619 285 l 99 285 l 99 413 l 619 413 z "},"é":{"ha":654,"x_min":42,"x_max":619,"o":"m 265 500 l 265 193 q 274 170 265 178 q 300 163 282 163 l 340 163 l 340 0 l 246 0 q 88 47 135 0 q 42 172 42 94 l 42 521 q 88 646 42 599 q 246 693 135 693 l 339 693 l 339 531 l 300 531 q 274 523 282 531 q 265 500 265 515 m 396 315 l 396 500 q 388 523 396 515 q 361 531 379 531 l 332 531 l 332 693 l 415 693 q 573 646 526 693 q 619 521 619 599 l 619 315 l 396 315 m 396 196 l 396 235 l 619 235 l 619 172 q 573 47 619 94 q 415 0 526 0 l 332 0 l 332 163 l 361 163 q 388 172 379 163 q 396 196 396 181 m 619 413 l 619 285 l 99 285 l 99 413 l 619 413 m 236 739 l 371 947 l 607 947 l 422 739 l 236 739 z "},"ě":{"ha":654,"x_min":40,"x_max":624,"o":"m 265 500 l 265 193 q 274 170 265 178 q 300 163 282 163 l 340 163 l 340 0 l 246 0 q 88 47 135 0 q 42 172 42 94 l 42 521 q 88 646 42 599 q 246 693 135 693 l 339 693 l 339 531 l 300 531 q 274 523 282 531 q 265 500 265 515 m 396 315 l 396 500 q 388 523 396 515 q 361 531 379 531 l 332 531 l 332 693 l 415 693 q 573 646 526 693 q 619 521 619 599 l 619 315 l 396 315 m 396 196 l 396 235 l 619 235 l 619 172 q 573 47 619 94 q 415 0 526 0 l 332 0 l 332 163 l 361 163 q 388 172 379 163 q 396 196 396 181 m 619 413 l 619 285 l 99 285 l 99 413 l 619 413 m 225 739 l 40 947 l 258 947 l 332 851 l 406 947 l 624 947 l 439 739 l 225 739 z "},"ê":{"ha":654,"x_min":42,"x_max":625,"o":"m 42 739 l 226 947 l 440 947 l 625 739 l 407 739 l 333 835 l 260 739 l 42 739 m 265 500 l 265 193 q 274 170 265 178 q 300 163 282 163 l 340 163 l 340 0 l 246 0 q 88 47 135 0 q 42 172 42 94 l 42 521 q 88 646 42 599 q 246 693 135 693 l 339 693 l 339 531 l 300 531 q 274 523 282 531 q 265 500 265 515 m 396 315 l 396 500 q 388 523 396 515 q 361 531 379 531 l 332 531 l 332 693 l 415 693 q 573 646 526 693 q 619 521 619 599 l 619 315 l 396 315 m 396 196 l 396 235 l 619 235 l 619 172 q 573 47 619 94 q 415 0 526 0 l 332 0 l 332 163 l 361 163 q 388 172 379 163 q 396 196 396 181 m 619 413 l 619 285 l 99 285 l 99 413 l 619 413 z "},"ë":{"ha":654,"x_min":42,"x_max":619,"o":"m 58 753 l 58 933 l 269 933 l 269 753 l 58 753 m 392 753 l 392 933 l 603 933 l 603 753 l 392 753 m 265 500 l 265 193 q 274 170 265 178 q 300 163 282 163 l 340 163 l 340 0 l 246 0 q 88 47 135 0 q 42 172 42 94 l 42 521 q 88 646 42 599 q 246 693 135 693 l 339 693 l 339 531 l 300 531 q 274 523 282 531 q 265 500 265 515 m 396 315 l 396 500 q 388 523 396 515 q 361 531 379 531 l 332 531 l 332 693 l 415 693 q 573 646 526 693 q 619 521 619 599 l 619 315 l 396 315 m 396 196 l 396 235 l 619 235 l 619 172 q 573 47 619 94 q 415 0 526 0 l 332 0 l 332 163 l 361 163 q 388 172 379 163 q 396 196 396 181 m 619 413 l 619 285 l 99 285 l 99 413 l 619 413 z "},"ė":{"ha":654,"x_min":42,"x_max":619,"o":"m 265 500 l 265 193 q 274 170 265 178 q 300 163 282 163 l 340 163 l 340 0 l 246 0 q 88 47 135 0 q 42 172 42 94 l 42 521 q 88 646 42 599 q 246 693 135 693 l 339 693 l 339 531 l 300 531 q 274 523 282 531 q 265 500 265 515 m 396 315 l 396 500 q 388 523 396 515 q 361 531 379 531 l 332 531 l 332 693 l 415 693 q 573 646 526 693 q 619 521 619 599 l 619 315 l 396 315 m 396 196 l 396 235 l 619 235 l 619 172 q 573 47 619 94 q 415 0 526 0 l 332 0 l 332 163 l 361 163 q 388 172 379 163 q 396 196 396 181 m 619 413 l 619 285 l 99 285 l 99 413 l 619 413 m 215 753 l 215 933 l 440 933 l 440 753 l 215 753 z "},"è":{"ha":654,"x_min":36,"x_max":619,"o":"m 265 500 l 265 193 q 274 170 265 178 q 300 163 282 163 l 340 163 l 340 0 l 246 0 q 88 47 135 0 q 42 172 42 94 l 42 521 q 88 646 42 599 q 246 693 135 693 l 339 693 l 339 531 l 300 531 q 274 523 282 531 q 265 500 265 515 m 396 315 l 396 500 q 388 523 396 515 q 361 531 379 531 l 332 531 l 332 693 l 415 693 q 573 646 526 693 q 619 521 619 599 l 619 315 l 396 315 m 396 196 l 396 235 l 619 235 l 619 172 q 573 47 619 94 q 415 0 526 0 l 332 0 l 332 163 l 361 163 q 388 172 379 163 q 396 196 396 181 m 619 413 l 619 285 l 99 285 l 99 413 l 619 413 m 272 947 l 407 739 l 221 739 l 36 947 l 272 947 z "},"ē":{"ha":654,"x_min":42,"x_max":619,"o":"m 265 500 l 265 193 q 274 170 265 178 q 300 163 282 163 l 340 163 l 340 0 l 246 0 q 88 47 135 0 q 42 172 42 94 l 42 521 q 88 646 42 599 q 246 693 135 693 l 339 693 l 339 531 l 300 531 q 274 523 282 531 q 265 500 265 515 m 396 315 l 396 500 q 388 523 396 515 q 361 531 379 531 l 332 531 l 332 693 l 415 693 q 573 646 526 693 q 619 521 619 599 l 619 315 l 396 315 m 396 196 l 396 235 l 619 235 l 619 172 q 573 47 619 94 q 415 0 526 0 l 332 0 l 332 163 l 361 163 q 388 172 379 163 q 396 196 396 181 m 619 413 l 619 285 l 99 285 l 99 413 l 619 413 m 57 771 l 57 918 l 597 918 l 597 771 l 57 771 z "},"ę":{"ha":654,"x_min":42,"x_max":619,"o":"m 265 500 l 265 193 q 274 170 265 178 q 300 163 282 163 l 340 163 l 340 0 l 246 0 q 88 47 135 0 q 42 172 42 94 l 42 521 q 88 646 42 599 q 246 693 135 693 l 339 693 l 339 531 l 300 531 q 274 523 282 531 q 265 500 265 515 m 396 315 l 396 500 q 388 523 396 515 q 361 531 379 531 l 332 531 l 332 693 l 415 693 q 573 646 526 693 q 619 521 619 599 l 619 315 l 396 315 m 396 196 l 396 235 l 619 235 l 619 172 q 573 47 619 94 q 415 0 526 0 l 332 0 l 332 163 l 361 163 q 388 172 379 163 q 396 196 396 181 m 619 413 l 619 285 l 99 285 l 99 413 l 619 413 m 118 -168 q 151 -63 118 -103 q 278 -24 185 -24 l 413 -24 l 413 -158 l 311 -158 q 289 -165 296 -158 q 282 -183 282 -171 l 282 -221 q 289 -240 282 -233 q 311 -246 296 -246 l 438 -246 l 438 -381 l 278 -381 q 151 -341 185 -381 q 118 -235 118 -301 l 118 -168 m 413 -31 l 286 -31 l 286 21 l 413 21 l 413 -31 z "},"ð":{"ha":686,"x_min":42,"x_max":635,"o":"m 278 204 q 286 181 278 189 q 313 174 294 174 l 344 174 l 344 0 l 246 0 q 88 47 135 0 q 42 172 42 94 l 42 421 q 88 546 42 499 q 246 593 135 593 l 458 593 l 458 433 l 313 433 q 286 426 294 433 q 278 403 278 418 l 278 204 m 403 429 q 378 574 403 508 q 314 693 353 640 q 232 785 275 746 q 151 851 189 825 q 93 892 114 878 l 419 892 q 478 836 443 874 q 550 741 514 799 q 610 605 586 683 q 635 426 635 526 l 635 172 q 588 47 635 94 q 431 0 542 0 l 332 0 l 332 174 l 368 174 q 394 181 386 174 q 403 204 403 189 l 403 429 m 160 633 l 160 750 l 593 881 l 593 764 l 160 633 z "},"f":{"ha":436,"x_min":14,"x_max":429,"o":"m 321 732 l 321 0 l 85 0 l 85 757 q 131 882 85 835 q 289 929 178 929 l 429 929 l 429 763 l 356 763 q 329 755 338 763 q 321 732 321 747 m 429 693 l 429 519 l 14 519 l 14 693 l 429 693 z "},"g":{"ha":665,"x_min":42,"x_max":610,"o":"m 42 360 l 278 360 l 278 246 q 286 223 278 231 q 313 215 294 215 l 336 215 q 365 225 356 215 q 374 257 374 235 l 374 294 l 382 294 l 382 169 q 349 76 382 111 q 251 42 317 42 l 226 42 q 85 89 128 42 q 42 214 42 136 l 42 360 m 278 333 l 42 333 l 42 521 q 85 646 42 599 q 226 693 128 693 l 251 693 q 349 658 317 693 q 382 565 382 624 l 382 440 l 374 440 l 374 478 q 365 510 374 500 q 336 519 356 519 l 313 519 q 286 512 294 519 q 278 489 278 504 l 278 333 m 374 18 l 374 57 l 610 57 l 610 -7 q 563 -132 610 -85 q 406 -179 517 -179 l 74 -179 l 74 -12 l 339 -12 q 365 -5 357 -12 q 374 18 374 3 m 610 42 l 374 42 l 374 561 l 378 561 l 378 693 l 610 693 l 610 42 z "},"ğ":{"ha":665,"x_min":42,"x_max":610,"o":"m 42 360 l 278 360 l 278 246 q 286 223 278 231 q 313 215 294 215 l 336 215 q 365 225 356 215 q 374 257 374 235 l 374 294 l 382 294 l 382 169 q 349 76 382 111 q 251 42 317 42 l 226 42 q 85 89 128 42 q 42 214 42 136 l 42 360 m 278 333 l 42 333 l 42 521 q 85 646 42 599 q 226 693 128 693 l 251 693 q 349 658 317 693 q 382 565 382 624 l 382 440 l 374 440 l 374 478 q 365 510 374 500 q 336 519 356 519 l 313 519 q 286 512 294 519 q 278 489 278 504 l 278 333 m 374 18 l 374 57 l 610 57 l 610 -7 q 563 -132 610 -85 q 406 -179 517 -179 l 74 -179 l 74 -12 l 339 -12 q 365 -5 357 -12 q 374 18 374 3 m 610 42 l 374 42 l 374 561 l 378 561 l 378 693 l 610 693 l 610 42 m 397 947 l 606 947 l 606 911 q 559 786 606 833 q 401 739 513 739 l 318 739 l 318 871 l 363 871 q 389 878 381 871 q 397 901 397 886 l 397 947 m 58 947 l 267 947 l 267 901 q 275 878 267 886 q 301 871 283 871 l 346 871 l 346 739 l 263 739 q 105 786 151 739 q 58 911 58 833 l 58 947 z "},"ģ":{"ha":665,"x_min":42,"x_max":610,"o":"m 465 738 l 233 738 l 233 858 l 393 1089 l 465 1089 l 465 738 m 42 360 l 278 360 l 278 246 q 286 223 278 231 q 313 215 294 215 l 336 215 q 365 225 356 215 q 374 257 374 235 l 374 294 l 382 294 l 382 169 q 349 76 382 111 q 251 42 317 42 l 226 42 q 85 89 128 42 q 42 214 42 136 l 42 360 m 278 333 l 42 333 l 42 521 q 85 646 42 599 q 226 693 128 693 l 251 693 q 349 658 317 693 q 382 565 382 624 l 382 440 l 374 440 l 374 478 q 365 510 374 500 q 336 519 356 519 l 313 519 q 286 512 294 519 q 278 489 278 504 l 278 333 m 374 18 l 374 57 l 610 57 l 610 -7 q 563 -132 610 -85 q 406 -179 517 -179 l 74 -179 l 74 -12 l 339 -12 q 365 -5 357 -12 q 374 18 374 3 m 610 42 l 374 42 l 374 561 l 378 561 l 378 693 l 610 693 l 610 42 z "},"ß":{"ha":940,"x_min":63,"x_max":924,"o":"m 364 226 l 600 226 l 600 190 q 607 169 600 176 q 628 160 614 161 l 653 160 q 679 167 671 160 q 688 190 688 175 l 688 246 q 679 269 688 261 q 653 276 671 276 l 561 276 q 410 324 450 276 q 371 449 371 371 l 371 479 q 415 596 371 557 q 561 635 458 635 q 585 642 579 635 q 592 665 592 650 l 592 688 q 585 710 592 703 q 561 718 579 718 l 340 718 q 314 710 322 718 q 306 688 306 703 l 306 0 l 63 0 l 63 719 q 102 844 63 797 q 253 892 142 892 l 657 892 q 804 847 760 892 q 849 731 849 803 l 849 643 q 835 560 849 592 q 785 513 822 528 q 672 499 747 499 l 636 499 q 610 491 618 499 q 601 468 601 483 l 601 458 q 610 435 601 443 q 636 428 618 428 l 719 428 q 877 381 831 428 q 924 256 924 333 l 924 172 q 884 47 924 94 q 733 0 844 0 l 558 0 q 408 49 451 3 q 364 172 364 96 l 364 226 z "},"h":{"ha":672,"x_min":56,"x_max":624,"o":"m 624 0 l 388 0 l 388 489 q 379 512 388 504 q 353 519 371 519 l 329 519 q 301 510 311 519 q 292 478 292 500 l 292 440 l 283 440 l 283 565 q 316 658 283 624 q 414 693 349 693 l 439 693 q 581 646 538 693 q 624 521 624 599 l 624 0 m 292 0 l 56 0 l 56 929 l 292 929 l 292 0 z "},"i":{"ha":347,"x_min":51,"x_max":296,"o":"m 292 0 l 56 0 l 56 693 l 292 693 l 292 0 m 51 763 l 51 929 l 296 929 l 296 763 l 51 763 z "},"í":{"ha":347,"x_min":56,"x_max":446,"o":"m 292 0 l 56 0 l 56 693 l 292 693 l 292 0 m 75 739 l 210 947 l 446 947 l 261 739 l 75 739 z "},"î":{"ha":347,"x_min":-121,"x_max":463,"o":"m 292 0 l 56 0 l 56 693 l 292 693 l 292 0 m -121 739 l 64 947 l 278 947 l 463 739 l 244 739 l 171 835 l 97 739 l -121 739 z "},"ï":{"ha":347,"x_min":-103,"x_max":442,"o":"m 292 0 l 56 0 l 56 693 l 292 693 l 292 0 m -103 753 l -103 933 l 108 933 l 108 753 l -103 753 m 231 753 l 231 933 l 442 933 l 442 753 l 231 753 z "},"ì":{"ha":347,"x_min":-100,"x_max":292,"o":"m 292 0 l 56 0 l 56 693 l 292 693 l 292 0 m 136 947 l 271 739 l 85 739 l -100 947 l 136 947 z "},"ī":{"ha":347,"x_min":-97,"x_max":443,"o":"m 292 0 l 56 0 l 56 693 l 292 693 l 292 0 m -97 771 l -97 918 l 443 918 l 443 771 l -97 771 z "},"į":{"ha":347,"x_min":-3,"x_max":317,"o":"m 292 0 l 56 0 l 56 693 l 292 693 l 292 0 m 51 763 l 51 929 l 296 929 l 296 763 l 51 763 m -3 -168 q 31 -63 -3 -103 q 157 -24 64 -24 l 292 -24 l 292 -158 l 190 -158 q 168 -165 175 -158 q 161 -183 161 -171 l 161 -221 q 168 -240 161 -233 q 190 -246 175 -246 l 317 -246 l 317 -381 l 157 -381 q 31 -341 64 -381 q -3 -235 -3 -301 l -3 -168 m 292 -31 l 165 -31 l 165 21 l 292 21 l 292 -31 z "},"j":{"ha":347,"x_min":-25,"x_max":296,"o":"m 56 18 l 56 693 l 292 693 l 292 -7 q 245 -132 292 -85 q 88 -179 199 -179 l -25 -179 l -25 -12 l 21 -12 q 47 -5 39 -12 q 56 18 56 3 m 51 763 l 51 929 l 296 929 l 296 763 l 51 763 z "},"k":{"ha":660,"x_min":56,"x_max":667,"o":"m 292 0 l 56 0 l 56 929 l 292 929 l 292 0 m 281 351 l 518 351 l 667 0 l 421 0 l 281 351 m 518 351 l 281 351 l 422 693 l 667 693 l 518 351 z "},"ķ":{"ha":660,"x_min":56,"x_max":667,"o":"m 292 0 l 56 0 l 56 929 l 292 929 l 292 0 m 281 351 l 518 351 l 667 0 l 421 0 l 281 351 m 518 351 l 281 351 l 422 693 l 667 693 l 518 351 m 228 -64 l 460 -64 l 460 -185 l 300 -415 l 228 -415 l 228 -64 z "},"l":{"ha":347,"x_min":56,"x_max":292,"o":"m 292 0 l 56 0 l 56 929 l 292 929 l 292 0 z "},"ĺ":{"ha":347,"x_min":56,"x_max":449,"o":"m 292 0 l 56 0 l 56 929 l 292 929 l 292 0 m 78 975 l 213 1183 l 449 1183 l 264 975 l 78 975 z "},"ľ":{"ha":417,"x_min":56,"x_max":508,"o":"m 347 929 l 508 929 l 508 822 l 403 633 l 347 633 l 347 929 m 292 0 l 56 0 l 56 929 l 292 929 l 292 0 z "},"ļ":{"ha":347,"x_min":56,"x_max":292,"o":"m 292 0 l 56 0 l 56 929 l 292 929 l 292 0 m 57 -64 l 289 -64 l 289 -185 l 129 -415 l 57 -415 l 57 -64 z "},"ł":{"ha":361,"x_min":-76,"x_max":443,"o":"m 443 735 l 443 575 l -76 325 l -76 485 l 443 735 m 299 0 l 63 0 l 63 929 l 299 929 l 299 0 z "},"m":{"ha":1004,"x_min":56,"x_max":956,"o":"m 624 0 l 388 0 l 388 489 q 379 512 388 504 q 353 519 371 519 l 329 519 q 301 510 311 519 q 292 478 292 500 l 292 440 l 283 440 l 283 565 q 316 658 283 624 q 414 693 349 693 l 439 693 q 581 646 538 693 q 624 521 624 599 l 624 0 m 292 0 l 56 0 l 56 693 l 288 693 l 288 561 l 292 561 l 292 0 m 956 0 l 719 0 l 719 489 q 711 512 719 504 q 685 519 703 519 l 661 519 q 633 510 643 519 q 624 478 624 500 l 624 440 l 615 440 l 604 561 q 640 656 599 619 q 746 693 681 693 l 771 693 q 913 646 869 693 q 956 521 956 599 l 956 0 z "},"n":{"ha":672,"x_min":56,"x_max":624,"o":"m 292 0 l 56 0 l 56 693 l 288 693 l 288 561 l 292 561 l 292 0 m 624 0 l 388 0 l 388 489 q 379 512 388 504 q 353 519 371 519 l 329 519 q 301 510 311 519 q 292 478 292 500 l 292 440 l 283 440 l 283 565 q 316 658 283 624 q 414 693 349 693 l 439 693 q 581 646 538 693 q 624 521 624 599 l 624 0 z "},"ń":{"ha":672,"x_min":56,"x_max":624,"o":"m 292 0 l 56 0 l 56 693 l 288 693 l 288 561 l 292 561 l 292 0 m 624 0 l 388 0 l 388 489 q 379 512 388 504 q 353 519 371 519 l 329 519 q 301 510 311 519 q 292 478 292 500 l 292 440 l 283 440 l 283 565 q 316 658 283 624 q 414 693 349 693 l 439 693 q 581 646 538 693 q 624 521 624 599 l 624 0 m 217 739 l 351 947 l 588 947 l 403 739 l 217 739 z "},"ň":{"ha":672,"x_min":31,"x_max":624,"o":"m 292 0 l 56 0 l 56 693 l 288 693 l 288 561 l 292 561 l 292 0 m 624 0 l 388 0 l 388 489 q 379 512 388 504 q 353 519 371 519 l 329 519 q 301 510 311 519 q 292 478 292 500 l 292 440 l 283 440 l 283 565 q 316 658 283 624 q 414 693 349 693 l 439 693 q 581 646 538 693 q 624 521 624 599 l 624 0 m 215 739 l 31 947 l 249 947 l 322 851 l 396 947 l 614 947 l 429 739 l 215 739 z "},"ņ":{"ha":672,"x_min":56,"x_max":624,"o":"m 292 0 l 56 0 l 56 693 l 288 693 l 288 561 l 292 561 l 292 0 m 624 0 l 388 0 l 388 489 q 379 512 388 504 q 353 519 371 519 l 329 519 q 301 510 311 519 q 292 478 292 500 l 292 440 l 283 440 l 283 565 q 316 658 283 624 q 414 693 349 693 l 439 693 q 581 646 538 693 q 624 521 624 599 l 624 0 m 225 -64 l 457 -64 l 457 -185 l 297 -415 l 225 -415 l 225 -64 z "},"ñ":{"ha":672,"x_min":51,"x_max":624,"o":"m 292 0 l 56 0 l 56 693 l 288 693 l 288 561 l 292 561 l 292 0 m 624 0 l 388 0 l 388 489 q 379 512 388 504 q 353 519 371 519 l 329 519 q 301 510 311 519 q 292 478 292 500 l 292 440 l 283 440 l 283 565 q 316 658 283 624 q 414 693 349 693 l 439 693 q 581 646 538 693 q 624 521 624 599 l 624 0 m 433 739 q 360 757 393 739 q 303 793 328 775 q 264 811 279 811 q 239 782 239 811 l 239 739 l 51 739 l 51 815 q 81 912 51 876 q 189 947 111 947 l 215 947 q 288 929 256 947 q 346 893 321 911 q 385 875 371 875 q 403 883 397 875 q 410 904 410 890 l 410 947 l 597 947 l 597 864 q 567 771 597 803 q 457 739 536 739 l 433 739 z "},"o":{"ha":668,"x_min":49,"x_max":619,"o":"m 388 321 l 388 499 q 379 522 388 514 q 353 529 371 529 l 332 529 l 332 693 l 422 693 q 576 646 533 693 q 619 521 619 599 l 619 321 l 388 321 m 388 194 l 388 339 l 619 339 l 619 172 q 576 47 619 94 q 422 0 533 0 l 332 0 l 332 164 l 353 164 q 379 172 371 164 q 388 194 388 179 m 281 499 l 281 321 l 49 321 l 49 521 q 92 646 49 599 q 246 693 135 693 l 336 693 l 336 529 l 315 529 q 289 522 297 529 q 281 499 281 514 m 281 339 l 281 194 q 289 172 281 179 q 315 164 297 164 l 336 164 l 336 0 l 246 0 q 92 47 135 0 q 49 172 49 94 l 49 339 l 281 339 z "},"ó":{"ha":668,"x_min":49,"x_max":621,"o":"m 388 321 l 388 499 q 379 522 388 514 q 353 529 371 529 l 332 529 l 332 693 l 422 693 q 576 646 533 693 q 619 521 619 599 l 619 321 l 388 321 m 388 194 l 388 339 l 619 339 l 619 172 q 576 47 619 94 q 422 0 533 0 l 332 0 l 332 164 l 353 164 q 379 172 371 164 q 388 194 388 179 m 281 499 l 281 321 l 49 321 l 49 521 q 92 646 49 599 q 246 693 135 693 l 336 693 l 336 529 l 315 529 q 289 522 297 529 q 281 499 281 514 m 281 339 l 281 194 q 289 172 281 179 q 315 164 297 164 l 336 164 l 336 0 l 246 0 q 92 47 135 0 q 49 172 49 94 l 49 339 l 281 339 m 250 739 l 385 947 l 621 947 l 436 739 l 250 739 z "},"ô":{"ha":668,"x_min":43,"x_max":626,"o":"m 388 321 l 388 499 q 379 522 388 514 q 353 529 371 529 l 332 529 l 332 693 l 422 693 q 576 646 533 693 q 619 521 619 599 l 619 321 l 388 321 m 388 194 l 388 339 l 619 339 l 619 172 q 576 47 619 94 q 422 0 533 0 l 332 0 l 332 164 l 353 164 q 379 172 371 164 q 388 194 388 179 m 281 499 l 281 321 l 49 321 l 49 521 q 92 646 49 599 q 246 693 135 693 l 336 693 l 336 529 l 315 529 q 289 522 297 529 q 281 499 281 514 m 281 339 l 281 194 q 289 172 281 179 q 315 164 297 164 l 336 164 l 336 0 l 246 0 q 92 47 135 0 q 49 172 49 94 l 49 339 l 281 339 m 43 739 l 228 947 l 442 947 l 626 739 l 408 739 l 335 835 l 261 739 l 43 739 z "},"ö":{"ha":668,"x_min":49,"x_max":619,"o":"m 63 753 l 63 933 l 274 933 l 274 753 l 63 753 m 396 753 l 396 933 l 607 933 l 607 753 l 396 753 m 388 321 l 388 499 q 379 522 388 514 q 353 529 371 529 l 332 529 l 332 693 l 422 693 q 576 646 533 693 q 619 521 619 599 l 619 321 l 388 321 m 388 194 l 388 339 l 619 339 l 619 172 q 576 47 619 94 q 422 0 533 0 l 332 0 l 332 164 l 353 164 q 379 172 371 164 q 388 194 388 179 m 281 499 l 281 321 l 49 321 l 49 521 q 92 646 49 599 q 246 693 135 693 l 336 693 l 336 529 l 315 529 q 289 522 297 529 q 281 499 281 514 m 281 339 l 281 194 q 289 172 281 179 q 315 164 297 164 l 336 164 l 336 0 l 246 0 q 92 47 135 0 q 49 172 49 94 l 49 339 l 281 339 z "},"œ":{"ha":1157,"x_min":49,"x_max":958,"o":"m 233 0 q 92 47 135 0 q 49 172 49 94 l 49 521 q 92 646 49 599 q 233 693 135 693 l 328 693 q 422 672 378 693 q 486 615 467 651 q 552 672 508 651 q 668 693 596 693 l 754 693 q 912 646 865 693 q 958 521 958 599 l 958 310 l 729 310 l 729 496 q 721 519 729 511 q 694 526 713 526 l 644 526 q 618 519 626 526 q 610 496 610 511 l 610 197 q 618 174 610 182 q 644 167 626 167 l 694 167 q 721 174 713 167 q 729 197 729 182 l 729 232 l 958 232 l 958 172 q 912 47 958 94 q 754 0 865 0 l 667 0 q 551 21 594 0 q 485 78 507 42 q 421 21 465 42 q 326 0 376 0 l 233 0 m 285 489 l 285 204 q 293 181 285 189 q 319 174 301 174 l 343 174 q 372 183 363 174 q 381 215 381 193 l 381 478 q 343 519 381 519 l 319 519 q 293 512 301 519 q 285 489 285 504 m 958 417 l 958 279 l 438 279 l 438 417 l 958 417 z "},"ò":{"ha":668,"x_min":49,"x_max":619,"o":"m 388 321 l 388 499 q 379 522 388 514 q 353 529 371 529 l 332 529 l 332 693 l 422 693 q 576 646 533 693 q 619 521 619 599 l 619 321 l 388 321 m 388 194 l 388 339 l 619 339 l 619 172 q 576 47 619 94 q 422 0 533 0 l 332 0 l 332 164 l 353 164 q 379 172 371 164 q 388 194 388 179 m 281 499 l 281 321 l 49 321 l 49 521 q 92 646 49 599 q 246 693 135 693 l 336 693 l 336 529 l 315 529 q 289 522 297 529 q 281 499 281 514 m 281 339 l 281 194 q 289 172 281 179 q 315 164 297 164 l 336 164 l 336 0 l 246 0 q 92 47 135 0 q 49 172 49 94 l 49 339 l 281 339 m 286 947 l 421 739 l 235 739 l 50 947 l 286 947 z "},"ő":{"ha":668,"x_min":49,"x_max":718,"o":"m 379 739 l 514 947 l 718 947 l 533 739 l 379 739 m 115 739 l 250 947 l 454 947 l 269 739 l 115 739 m 388 321 l 388 499 q 379 522 388 514 q 353 529 371 529 l 332 529 l 332 693 l 422 693 q 576 646 533 693 q 619 521 619 599 l 619 321 l 388 321 m 388 194 l 388 339 l 619 339 l 619 172 q 576 47 619 94 q 422 0 533 0 l 332 0 l 332 164 l 353 164 q 379 172 371 164 q 388 194 388 179 m 281 499 l 281 321 l 49 321 l 49 521 q 92 646 49 599 q 246 693 135 693 l 336 693 l 336 529 l 315 529 q 289 522 297 529 q 281 499 281 514 m 281 339 l 281 194 q 289 172 281 179 q 315 164 297 164 l 336 164 l 336 0 l 246 0 q 92 47 135 0 q 49 172 49 94 l 49 339 l 281 339 z "},"ō":{"ha":668,"x_min":49,"x_max":619,"o":"m 388 321 l 388 499 q 379 522 388 514 q 353 529 371 529 l 332 529 l 332 693 l 422 693 q 576 646 533 693 q 619 521 619 599 l 619 321 l 388 321 m 388 194 l 388 339 l 619 339 l 619 172 q 576 47 619 94 q 422 0 533 0 l 332 0 l 332 164 l 353 164 q 379 172 371 164 q 388 194 388 179 m 281 499 l 281 321 l 49 321 l 49 521 q 92 646 49 599 q 246 693 135 693 l 336 693 l 336 529 l 315 529 q 289 522 297 529 q 281 499 281 514 m 281 339 l 281 194 q 289 172 281 179 q 315 164 297 164 l 336 164 l 336 0 l 246 0 q 92 47 135 0 q 49 172 49 94 l 49 339 l 281 339 m 53 771 l 53 918 l 593 918 l 593 771 l 53 771 z "},"ø":{"ha":668,"x_min":35,"x_max":635,"o":"m 619 521 l 619 172 q 576 47 619 94 q 422 0 533 0 l 246 0 q 92 47 135 0 q 49 172 49 94 l 49 521 q 92 646 49 599 q 246 693 135 693 l 422 693 q 576 646 533 693 q 619 521 619 599 m 394 188 l 394 506 q 386 528 394 521 q 360 536 378 536 l 308 536 q 282 528 290 536 q 274 506 274 521 l 274 188 q 282 165 274 172 q 308 157 290 157 l 360 157 q 386 165 378 157 q 394 188 394 172 m 532 721 l 635 721 l 138 -28 l 35 -28 l 532 721 z "},"õ":{"ha":668,"x_min":49,"x_max":619,"o":"m 388 321 l 388 499 q 379 522 388 514 q 353 529 371 529 l 332 529 l 332 693 l 422 693 q 576 646 533 693 q 619 521 619 599 l 619 321 l 388 321 m 388 194 l 388 339 l 619 339 l 619 172 q 576 47 619 94 q 422 0 533 0 l 332 0 l 332 164 l 353 164 q 379 172 371 164 q 388 194 388 179 m 281 499 l 281 321 l 49 321 l 49 521 q 92 646 49 599 q 246 693 135 693 l 336 693 l 336 529 l 315 529 q 289 522 297 529 q 281 499 281 514 m 281 339 l 281 194 q 289 172 281 179 q 315 164 297 164 l 336 164 l 336 0 l 246 0 q 92 47 135 0 q 49 172 49 94 l 49 339 l 281 339 m 438 739 q 365 757 397 739 q 308 793 332 775 q 268 811 283 811 q 243 782 243 811 l 243 739 l 56 739 l 56 815 q 85 912 56 876 q 193 947 115 947 l 219 947 q 292 929 260 947 q 350 893 325 911 q 389 875 375 875 q 408 883 401 875 q 414 904 414 890 l 414 947 l 601 947 l 601 864 q 571 771 601 803 q 461 739 540 739 l 438 739 z "},"p":{"ha":665,"x_min":56,"x_max":624,"o":"m 624 333 l 388 333 l 388 489 q 379 512 388 504 q 353 519 371 519 l 329 519 q 301 510 311 519 q 292 478 292 500 l 292 440 l 283 440 l 283 565 q 316 658 283 624 q 414 693 349 693 l 439 693 q 581 646 538 693 q 624 521 624 599 l 624 333 m 292 -179 l 56 -179 l 56 693 l 288 693 l 288 561 l 292 561 l 292 -179 m 388 360 l 624 360 l 624 172 q 581 47 624 94 q 439 0 538 0 l 414 0 q 316 35 349 0 q 283 128 283 69 l 283 253 l 292 253 l 292 215 q 301 183 292 193 q 329 174 311 174 l 353 174 q 379 181 371 174 q 388 204 388 189 l 388 360 z "},"q":{"ha":665,"x_min":42,"x_max":610,"o":"m 278 333 l 42 333 l 42 521 q 85 646 42 599 q 226 693 128 693 l 251 693 q 349 658 317 693 q 382 565 382 624 l 382 440 l 374 440 l 374 478 q 365 510 374 500 q 336 519 356 519 l 313 519 q 286 512 294 519 q 278 489 278 504 l 278 333 m 610 -179 l 374 -179 l 374 561 l 378 561 l 378 693 l 610 693 l 610 -179 m 42 360 l 278 360 l 278 204 q 286 181 278 189 q 313 174 294 174 l 336 174 q 365 183 356 174 q 374 215 374 193 l 374 253 l 382 253 l 382 128 q 349 35 382 69 q 251 0 317 0 l 226 0 q 85 47 128 0 q 42 172 42 94 l 42 360 z "},"r":{"ha":465,"x_min":56,"x_max":458,"o":"m 458 700 l 458 494 l 379 494 q 292 400 292 494 l 292 363 l 283 363 l 283 544 q 301 626 283 592 q 354 681 319 661 q 438 700 389 700 l 458 700 m 292 0 l 56 0 l 56 693 l 288 693 l 288 533 l 292 561 l 292 0 z "},"ŕ":{"ha":465,"x_min":56,"x_max":532,"o":"m 458 700 l 458 494 l 379 494 q 292 400 292 494 l 292 363 l 283 363 l 283 544 q 301 626 283 592 q 354 681 319 661 q 438 700 389 700 l 458 700 m 292 0 l 56 0 l 56 693 l 288 693 l 288 533 l 292 561 l 292 0 m 161 739 l 296 947 l 532 947 l 347 739 l 161 739 z "},"ř":{"ha":465,"x_min":-36,"x_max":547,"o":"m 458 700 l 458 494 l 379 494 q 292 400 292 494 l 292 363 l 283 363 l 283 544 q 301 626 283 592 q 354 681 319 661 q 438 700 389 700 l 458 700 m 292 0 l 56 0 l 56 693 l 288 693 l 288 533 l 292 561 l 292 0 m 149 739 l -36 947 l 182 947 l 256 851 l 329 947 l 547 947 l 363 739 l 149 739 z "},"ŗ":{"ha":465,"x_min":56,"x_max":458,"o":"m 458 700 l 458 494 l 379 494 q 292 400 292 494 l 292 363 l 283 363 l 283 544 q 301 626 283 592 q 354 681 319 661 q 438 700 389 700 l 458 700 m 292 0 l 56 0 l 56 693 l 288 693 l 288 533 l 292 561 l 292 0 m 57 -64 l 289 -64 l 289 -185 l 129 -415 l 57 -415 l 57 -64 z "},"s":{"ha":618,"x_min":35,"x_max":583,"o":"m 354 183 l 354 239 q 346 262 354 254 q 319 269 338 269 l 235 269 q 79 316 124 269 q 35 440 35 363 l 35 521 q 81 646 35 599 q 239 693 128 693 l 368 693 q 526 646 479 693 q 572 521 572 599 l 572 463 l 347 463 l 347 510 q 339 533 347 525 q 313 540 331 540 l 299 540 q 272 533 281 540 q 264 510 264 525 l 264 449 q 272 426 264 433 q 299 418 281 418 l 383 418 q 539 372 494 418 q 583 249 583 326 l 583 172 q 537 47 583 94 q 379 0 490 0 l 243 0 q 85 47 132 0 q 39 172 39 94 l 39 229 l 268 229 l 268 183 q 276 160 268 168 q 303 153 285 153 l 319 153 q 346 160 338 153 q 354 183 354 168 z "},"ś":{"ha":618,"x_min":35,"x_max":596,"o":"m 354 183 l 354 239 q 346 262 354 254 q 319 269 338 269 l 235 269 q 79 316 124 269 q 35 440 35 363 l 35 521 q 81 646 35 599 q 239 693 128 693 l 368 693 q 526 646 479 693 q 572 521 572 599 l 572 463 l 347 463 l 347 510 q 339 533 347 525 q 313 540 331 540 l 299 540 q 272 533 281 540 q 264 510 264 525 l 264 449 q 272 426 264 433 q 299 418 281 418 l 383 418 q 539 372 494 418 q 583 249 583 326 l 583 172 q 537 47 583 94 q 379 0 490 0 l 243 0 q 85 47 132 0 q 39 172 39 94 l 39 229 l 268 229 l 268 183 q 276 160 268 168 q 303 153 285 153 l 319 153 q 346 160 338 153 q 354 183 354 168 m 225 739 l 360 947 l 596 947 l 411 739 l 225 739 z "},"š":{"ha":618,"x_min":17,"x_max":600,"o":"m 354 183 l 354 239 q 346 262 354 254 q 319 269 338 269 l 235 269 q 79 316 124 269 q 35 440 35 363 l 35 521 q 81 646 35 599 q 239 693 128 693 l 368 693 q 526 646 479 693 q 572 521 572 599 l 572 463 l 347 463 l 347 510 q 339 533 347 525 q 313 540 331 540 l 299 540 q 272 533 281 540 q 264 510 264 525 l 264 449 q 272 426 264 433 q 299 418 281 418 l 383 418 q 539 372 494 418 q 583 249 583 326 l 583 172 q 537 47 583 94 q 379 0 490 0 l 243 0 q 85 47 132 0 q 39 172 39 94 l 39 229 l 268 229 l 268 183 q 276 160 268 168 q 303 153 285 153 l 319 153 q 346 160 338 153 q 354 183 354 168 m 201 739 l 17 947 l 235 947 l 308 851 l 382 947 l 600 947 l 415 739 l 201 739 z "},"ş":{"ha":618,"x_min":35,"x_max":583,"o":"m 354 183 l 354 239 q 346 262 354 254 q 319 269 338 269 l 235 269 q 79 316 124 269 q 35 440 35 363 l 35 521 q 81 646 35 599 q 239 693 128 693 l 368 693 q 526 646 479 693 q 572 521 572 599 l 572 463 l 347 463 l 347 510 q 339 533 347 525 q 313 540 331 540 l 299 540 q 272 533 281 540 q 264 510 264 525 l 264 449 q 272 426 264 433 q 299 418 281 418 l 383 418 q 539 372 494 418 q 583 249 583 326 l 583 172 q 537 47 583 94 q 379 0 490 0 l 243 0 q 85 47 132 0 q 39 172 39 94 l 39 229 l 268 229 l 268 183 q 276 160 268 168 q 303 153 285 153 l 319 153 q 346 160 338 153 q 354 183 354 168 m 192 -64 l 424 -64 l 424 -185 l 264 -415 l 192 -415 l 192 -64 z "},"ș":{"ha":618,"x_min":35,"x_max":583,"o":"m 354 183 l 354 239 q 346 262 354 254 q 319 269 338 269 l 235 269 q 79 316 124 269 q 35 440 35 363 l 35 521 q 81 646 35 599 q 239 693 128 693 l 368 693 q 526 646 479 693 q 572 521 572 599 l 572 463 l 347 463 l 347 510 q 339 533 347 525 q 313 540 331 540 l 299 540 q 272 533 281 540 q 264 510 264 525 l 264 449 q 272 426 264 433 q 299 418 281 418 l 383 418 q 539 372 494 418 q 583 249 583 326 l 583 172 q 537 47 583 94 q 379 0 490 0 l 243 0 q 85 47 132 0 q 39 172 39 94 l 39 229 l 268 229 l 268 183 q 276 160 268 168 q 303 153 285 153 l 319 153 q 346 160 338 153 q 354 183 354 168 m 178 -64 l 410 -64 l 410 -185 l 250 -415 l 178 -415 l 178 -64 z "},"t":{"ha":421,"x_min":7,"x_max":407,"o":"m 319 829 l 319 204 q 328 181 319 189 q 354 174 336 174 l 406 174 l 406 0 l 288 0 q 130 47 176 0 q 83 172 83 94 l 83 829 l 319 829 m 407 693 l 407 519 l 7 519 l 7 693 l 407 693 z "},"ť":{"ha":421,"x_min":7,"x_max":540,"o":"m 379 1015 l 540 1015 l 540 908 l 435 746 l 379 746 l 379 1015 m 319 829 l 319 204 q 328 181 319 189 q 354 174 336 174 l 406 174 l 406 0 l 288 0 q 130 47 176 0 q 83 172 83 94 l 83 829 l 319 829 m 407 693 l 407 519 l 7 519 l 7 693 l 407 693 z "},"ţ":{"ha":600,"x_min":7,"x_max":593,"o":"m 178 808 l 421 808 l 421 0 l 178 0 l 178 808 m 593 892 l 593 718 l 7 718 l 7 892 l 593 892 m 183 -64 l 415 -64 l 415 -185 l 256 -415 l 183 -415 l 183 -64 z "},"ț":{"ha":421,"x_min":7,"x_max":407,"o":"m 319 829 l 319 204 q 328 181 319 189 q 354 174 336 174 l 406 174 l 406 0 l 288 0 q 130 47 176 0 q 83 172 83 94 l 83 829 l 319 829 m 407 693 l 407 519 l 7 519 l 7 693 l 407 693 m 114 -64 l 346 -64 l 346 -185 l 186 -415 l 114 -415 l 114 -64 z "},"þ":{"ha":679,"x_min":47,"x_max":615,"o":"m 615 333 l 379 333 l 379 489 q 371 512 379 504 q 344 519 363 519 l 321 519 q 293 510 303 519 q 283 478 283 500 l 283 440 l 275 440 l 275 565 q 308 658 275 624 q 406 693 340 693 l 431 693 q 572 646 529 693 q 615 521 615 599 l 615 333 m 283 -179 l 47 -179 l 47 929 l 279 929 l 279 561 l 283 561 l 283 -179 m 379 360 l 615 360 l 615 172 q 572 47 615 94 q 431 0 529 0 l 406 0 q 308 35 340 0 q 275 128 275 69 l 275 253 l 283 253 l 283 215 q 293 183 283 193 q 321 174 303 174 l 344 174 q 371 181 363 174 q 379 204 379 189 l 379 360 z "},"u":{"ha":672,"x_min":49,"x_max":617,"o":"m 49 693 l 285 693 l 285 204 q 293 181 285 189 q 319 174 301 174 l 343 174 q 372 183 363 174 q 381 215 381 193 l 381 253 l 389 253 l 389 128 q 356 35 389 69 q 258 0 324 0 l 233 0 q 92 47 135 0 q 49 172 49 94 l 49 693 m 381 693 l 617 693 l 617 0 l 385 0 l 385 132 l 381 132 l 381 693 z "},"ú":{"ha":672,"x_min":49,"x_max":617,"o":"m 49 693 l 285 693 l 285 204 q 293 181 285 189 q 319 174 301 174 l 343 174 q 372 183 363 174 q 381 215 381 193 l 381 253 l 389 253 l 389 128 q 356 35 389 69 q 258 0 324 0 l 233 0 q 92 47 135 0 q 49 172 49 94 l 49 693 m 381 693 l 617 693 l 617 0 l 385 0 l 385 132 l 381 132 l 381 693 m 226 739 l 361 947 l 597 947 l 413 739 l 226 739 z "},"û":{"ha":672,"x_min":43,"x_max":626,"o":"m 43 739 l 228 947 l 442 947 l 626 739 l 408 739 l 335 835 l 261 739 l 43 739 m 49 693 l 285 693 l 285 204 q 293 181 285 189 q 319 174 301 174 l 343 174 q 372 183 363 174 q 381 215 381 193 l 381 253 l 389 253 l 389 128 q 356 35 389 69 q 258 0 324 0 l 233 0 q 92 47 135 0 q 49 172 49 94 l 49 693 m 381 693 l 617 693 l 617 0 l 385 0 l 385 132 l 381 132 l 381 693 z "},"ü":{"ha":694,"x_min":49,"x_max":617,"o":"m 60 753 l 60 933 l 271 933 l 271 753 l 60 753 m 393 753 l 393 933 l 604 933 l 604 753 l 393 753 m 49 693 l 285 693 l 285 204 q 293 181 285 189 q 319 174 301 174 l 343 174 q 372 183 363 174 q 381 215 381 193 l 381 253 l 389 253 l 389 128 q 356 35 389 69 q 258 0 324 0 l 233 0 q 92 47 135 0 q 49 172 49 94 l 49 693 m 381 693 l 617 693 l 617 0 l 385 0 l 385 132 l 381 132 l 381 693 z "},"ù":{"ha":672,"x_min":49,"x_max":617,"o":"m 49 693 l 285 693 l 285 204 q 293 181 285 189 q 319 174 301 174 l 343 174 q 372 183 363 174 q 381 215 381 193 l 381 253 l 389 253 l 389 128 q 356 35 389 69 q 258 0 324 0 l 233 0 q 92 47 135 0 q 49 172 49 94 l 49 693 m 381 693 l 617 693 l 617 0 l 385 0 l 385 132 l 381 132 l 381 693 m 299 947 l 433 739 l 247 739 l 63 947 l 299 947 z "},"ű":{"ha":672,"x_min":49,"x_max":728,"o":"m 389 739 l 524 947 l 728 947 l 543 739 l 389 739 m 125 739 l 260 947 l 464 947 l 279 739 l 125 739 m 49 693 l 285 693 l 285 204 q 293 181 285 189 q 319 174 301 174 l 343 174 q 372 183 363 174 q 381 215 381 193 l 381 253 l 389 253 l 389 128 q 356 35 389 69 q 258 0 324 0 l 233 0 q 92 47 135 0 q 49 172 49 94 l 49 693 m 381 693 l 617 693 l 617 0 l 385 0 l 385 132 l 381 132 l 381 693 z "},"ū":{"ha":672,"x_min":49,"x_max":617,"o":"m 49 693 l 285 693 l 285 204 q 293 181 285 189 q 319 174 301 174 l 343 174 q 372 183 363 174 q 381 215 381 193 l 381 253 l 389 253 l 389 128 q 356 35 389 69 q 258 0 324 0 l 233 0 q 92 47 135 0 q 49 172 49 94 l 49 693 m 381 693 l 617 693 l 617 0 l 385 0 l 385 132 l 381 132 l 381 693 m 61 771 l 61 918 l 601 918 l 601 771 l 61 771 z "},"ų":{"ha":672,"x_min":49,"x_max":642,"o":"m 49 693 l 285 693 l 285 204 q 293 181 285 189 q 319 174 301 174 l 343 174 q 372 183 363 174 q 381 215 381 193 l 381 253 l 389 253 l 389 128 q 356 35 389 69 q 258 0 324 0 l 233 0 q 92 47 135 0 q 49 172 49 94 l 49 693 m 381 693 l 617 693 l 617 0 l 385 0 l 385 132 l 381 132 l 381 693 m 322 -168 q 356 -63 322 -103 q 482 -24 389 -24 l 617 -24 l 617 -158 l 515 -158 q 493 -165 500 -158 q 486 -183 486 -171 l 486 -221 q 493 -240 486 -233 q 515 -246 500 -246 l 642 -246 l 642 -381 l 482 -381 q 356 -341 389 -381 q 322 -235 322 -301 l 322 -168 m 617 -31 l 490 -31 l 490 21 l 617 21 l 617 -31 z "},"ů":{"ha":672,"x_min":49,"x_max":617,"o":"m 49 693 l 285 693 l 285 204 q 293 181 285 189 q 319 174 301 174 l 343 174 q 372 183 363 174 q 381 215 381 193 l 381 253 l 389 253 l 389 128 q 356 35 389 69 q 258 0 324 0 l 233 0 q 92 47 135 0 q 49 172 49 94 l 49 693 m 381 693 l 617 693 l 617 0 l 385 0 l 385 132 l 381 132 l 381 693 m 547 878 l 547 856 q 517 766 547 800 q 406 732 486 732 l 286 732 q 175 766 206 732 q 144 856 144 800 l 144 878 q 175 969 144 935 q 286 1003 206 1003 l 406 1003 q 517 969 486 1003 q 547 878 547 935 m 400 857 l 400 876 q 394 897 400 890 q 372 903 388 903 l 319 903 q 298 897 304 903 q 292 876 292 890 l 292 857 q 298 837 292 843 q 319 831 304 831 l 372 831 q 394 837 388 831 q 400 857 400 843 z "},"v":{"ha":638,"x_min":0,"x_max":638,"o":"m 235 693 l 319 249 l 403 693 l 638 693 l 460 0 l 178 0 l 0 693 l 235 693 z "},"w":{"ha":943,"x_min":7,"x_max":936,"o":"m 719 693 l 936 693 l 788 0 l 553 0 l 468 408 l 382 0 l 147 0 l 7 693 l 226 693 l 278 256 l 368 693 l 575 693 l 656 258 l 719 693 z "},"x":{"ha":621,"x_min":0,"x_max":621,"o":"m 449 358 l 621 0 l 382 0 l 307 206 l 239 0 l 8 0 l 167 354 l 0 693 l 247 693 l 307 500 l 367 693 l 601 693 l 449 358 z "},"y":{"ha":644,"x_min":0,"x_max":644,"o":"m 0 693 l 247 693 l 332 271 l 407 693 l 644 693 l 471 14 q 386 -128 444 -76 q 208 -179 328 -179 l 92 -179 l 92 -8 l 194 -8 q 246 2 225 -8 q 278 47 267 13 l 281 56 l 190 56 l 0 693 z "},"ý":{"ha":644,"x_min":0,"x_max":644,"o":"m 0 693 l 247 693 l 332 271 l 407 693 l 644 693 l 471 14 q 386 -128 444 -76 q 208 -179 328 -179 l 92 -179 l 92 -8 l 194 -8 q 246 2 225 -8 q 278 47 267 13 l 281 56 l 190 56 l 0 693 m 231 739 l 365 947 l 601 947 l 417 739 l 231 739 z "},"ÿ":{"ha":694,"x_min":0,"x_max":644,"o":"m 53 753 l 53 933 l 264 933 l 264 753 l 53 753 m 386 753 l 386 933 l 597 933 l 597 753 l 386 753 m 0 693 l 247 693 l 332 271 l 407 693 l 644 693 l 471 14 q 386 -128 444 -76 q 208 -179 328 -179 l 92 -179 l 92 -8 l 194 -8 q 246 2 225 -8 q 278 47 267 13 l 281 56 l 190 56 l 0 693 z "},"z":{"ha":543,"x_min":14,"x_max":529,"o":"m 515 693 l 515 528 l 32 528 l 32 693 l 515 693 m 263 528 l 515 528 l 263 165 l 14 165 l 263 528 m 529 165 l 529 0 l 14 0 l 14 165 l 529 165 z "},"ź":{"ha":543,"x_min":14,"x_max":546,"o":"m 515 693 l 515 528 l 32 528 l 32 693 l 515 693 m 263 528 l 515 528 l 263 165 l 14 165 l 263 528 m 529 165 l 529 0 l 14 0 l 14 165 l 529 165 m 175 739 l 310 947 l 546 947 l 361 739 l 175 739 z "},"ž":{"ha":543,"x_min":-14,"x_max":569,"o":"m 515 693 l 515 528 l 32 528 l 32 693 l 515 693 m 263 528 l 515 528 l 263 165 l 14 165 l 263 528 m 529 165 l 529 0 l 14 0 l 14 165 l 529 165 m 171 739 l -14 947 l 204 947 l 278 851 l 351 947 l 569 947 l 385 739 l 171 739 z "},"ż":{"ha":543,"x_min":14,"x_max":529,"o":"m 515 693 l 515 528 l 32 528 l 32 693 l 515 693 m 263 528 l 515 528 l 263 165 l 14 165 l 263 528 m 529 165 l 529 0 l 14 0 l 14 165 l 529 165 m 167 753 l 167 933 l 392 933 l 392 753 l 167 753 z "},"ﬁ":{"ha":708,"x_min":14,"x_max":653,"o":"m 653 0 l 421 0 l 421 693 l 653 693 l 653 0 m 317 735 l 317 0 l 85 0 l 85 757 q 131 882 85 835 q 289 929 178 929 l 374 929 l 374 765 l 351 765 q 325 758 333 765 q 317 735 317 750 m 518 693 l 518 519 l 14 519 l 14 693 l 518 693 m 421 765 l 421 929 l 653 929 l 653 765 l 421 765 z "},"ﬂ":{"ha":708,"x_min":14,"x_max":653,"o":"m 317 735 l 317 0 l 85 0 l 85 757 q 131 882 85 835 q 289 929 178 929 l 374 929 l 374 765 l 351 765 q 325 758 333 765 q 317 735 317 750 m 518 693 l 518 519 l 14 519 l 14 693 l 518 693 m 653 0 l 422 0 l 422 929 l 653 929 l 653 0 z "},"ª":{"ha":468,"x_min":35,"x_max":426,"o":"m 181 638 l 35 638 l 35 769 q 65 859 35 826 q 165 892 96 892 l 203 892 q 269 867 250 892 q 288 801 288 843 l 288 718 l 281 718 l 281 746 q 254 775 281 775 l 204 775 q 186 769 192 775 q 181 753 181 764 l 181 638 m 426 401 l 281 401 l 281 799 l 285 799 l 285 892 l 426 892 l 426 401 m 35 656 l 181 656 l 181 543 q 186 526 181 532 q 204 521 192 521 l 254 521 q 274 528 268 521 q 281 551 281 536 l 281 578 l 288 578 l 288 492 q 272 426 288 450 q 208 401 256 401 l 165 401 q 65 435 96 401 q 35 524 35 468 l 35 656 z "},"º":{"ha":460,"x_min":35,"x_max":425,"o":"m 279 629 l 279 774 q 273 790 279 785 q 254 796 267 796 l 235 796 l 235 892 l 285 892 q 394 859 364 892 q 425 769 425 826 l 425 629 l 279 629 m 279 518 l 279 642 l 425 642 l 425 524 q 394 435 425 468 q 285 401 364 401 l 235 401 l 235 497 l 254 497 q 273 502 267 497 q 279 518 279 507 m 181 774 l 181 629 l 35 629 l 35 769 q 65 859 35 826 q 174 892 96 892 l 238 892 l 238 796 l 206 796 q 187 790 193 796 q 181 774 181 785 m 181 642 l 181 518 q 187 502 181 507 q 206 497 193 497 l 238 497 l 238 401 l 174 401 q 65 435 96 401 q 35 524 35 468 l 35 642 l 181 642 z "},"अ":{"ha":1014,"x_min":71,"x_max":1042,"o":"m 722 892 l 958 892 l 958 0 l 722 0 l 722 892 m 444 511 l 788 511 l 788 354 l 501 354 l 444 511 m 915 892 l 1042 892 l 1042 735 l 915 735 l 915 892 m 435 899 q 589 856 549 899 q 629 736 629 813 l 629 585 q 613 528 629 546 q 564 507 596 511 l 564 500 q 613 478 596 496 q 629 422 629 461 l 629 271 q 589 151 629 194 q 435 108 549 108 l 265 108 q 111 151 151 108 q 71 271 71 194 l 71 385 l 307 385 l 307 293 q 315 272 307 278 q 339 265 324 265 l 361 265 q 385 272 376 265 q 393 293 393 278 l 393 392 q 385 418 393 411 q 361 425 376 425 l 315 425 l 315 582 l 361 582 q 385 589 376 582 q 393 615 393 596 l 393 714 q 385 735 393 729 q 361 742 376 742 l 339 742 q 315 735 324 742 q 307 714 307 729 l 307 636 l 71 636 l 71 736 q 111 856 71 813 q 265 899 151 899 l 435 899 z "},"आ":{"ha":1361,"x_min":71,"x_max":1389,"o":"m 722 892 l 958 892 l 958 0 l 722 0 l 722 892 m 444 511 l 788 511 l 788 354 l 501 354 l 444 511 m 915 892 l 1042 892 l 1042 735 l 915 735 l 915 892 m 435 899 q 589 856 549 899 q 629 736 629 813 l 629 585 q 613 528 629 546 q 564 507 596 511 l 564 500 q 613 478 596 496 q 629 422 629 461 l 629 271 q 589 151 629 194 q 435 108 549 108 l 265 108 q 111 151 151 108 q 71 271 71 194 l 71 385 l 307 385 l 307 293 q 315 272 307 278 q 339 265 324 265 l 361 265 q 385 272 376 265 q 393 293 393 278 l 393 392 q 385 418 393 411 q 361 425 376 425 l 315 425 l 315 582 l 361 582 q 385 589 376 582 q 393 615 393 596 l 393 714 q 385 735 393 729 q 361 742 376 742 l 339 742 q 315 735 324 742 q 307 714 307 729 l 307 636 l 71 636 l 71 736 q 111 856 71 813 q 265 899 151 899 l 435 899 m 1069 767 l 1306 767 l 1306 0 l 1069 0 l 1069 767 m 986 892 l 1389 892 l 1389 735 l 986 735 l 986 892 z "},"ा":{"ha":347,"x_min":-28,"x_max":375,"o":"m 56 767 l 292 767 l 292 0 l 56 0 l 56 767 m -28 892 l 375 892 l 375 735 l -28 735 l -28 892 z "},"ऐ":{"ha":711,"x_min":-28,"x_max":739,"o":"m 56 792 l 292 792 l 292 171 q 300 149 292 156 q 324 143 308 143 l 396 143 q 413 149 406 143 q 419 171 419 156 l 419 310 l 656 310 l 656 149 q 615 36 656 72 q 461 0 575 0 l 250 0 q 96 36 136 0 q 56 149 56 72 l 56 792 m 419 792 l 656 792 l 656 521 q 615 408 656 444 q 461 372 575 372 l 344 372 l 344 529 l 388 529 q 411 535 403 529 q 419 557 419 542 l 419 792 m -28 892 l 739 892 l 739 735 l -28 735 l -28 892 m 457 1171 l 656 888 l 428 888 q 338 970 379 926 q 256 1067 297 1014 l 175 1171 l 457 1171 z "},"औ":{"ha":1361,"x_min":71,"x_max":1389,"o":"m 711 1171 l 989 1171 l 1049 1093 q 1120 999 1090 1039 q 1181 911 1150 960 l 1188 911 q 1145 994 1161 957 q 1107 1083 1129 1032 l 1071 1171 l 1285 1171 l 1304 888 l 1074 888 q 1003 933 1035 913 q 942 978 972 954 q 874 1035 913 1003 l 711 1171 m 722 892 l 958 892 l 958 0 l 722 0 l 722 892 m 444 511 l 788 511 l 788 354 l 501 354 l 444 511 m 915 892 l 1042 892 l 1042 735 l 915 735 l 915 892 m 435 899 q 589 856 549 899 q 629 736 629 813 l 629 585 q 613 528 629 546 q 564 507 596 511 l 564 500 q 613 478 596 496 q 629 422 629 461 l 629 271 q 589 151 629 194 q 435 108 549 108 l 265 108 q 111 151 151 108 q 71 271 71 194 l 71 385 l 307 385 l 307 293 q 315 272 307 278 q 339 265 324 265 l 361 265 q 385 272 376 265 q 393 293 393 278 l 393 392 q 385 418 393 411 q 361 425 376 425 l 315 425 l 315 582 l 361 582 q 385 589 376 582 q 393 615 393 596 l 393 714 q 385 735 393 729 q 361 742 376 742 l 339 742 q 315 735 324 742 q 307 714 307 729 l 307 636 l 71 636 l 71 736 q 111 856 71 813 q 265 899 151 899 l 435 899 m 1069 767 l 1306 767 l 1306 0 l 1069 0 l 1069 767 m 986 892 l 1389 892 l 1389 735 l 986 735 l 986 892 z "},"ौ":{"ha":347,"x_min":-303,"x_max":375,"o":"m 56 767 l 292 767 l 292 0 l 56 0 l 56 767 m -28 892 l 375 892 l 375 735 l -28 735 l -28 892 m -303 1171 l -25 1171 l 35 1093 q 106 999 76 1039 q 167 911 136 960 l 174 911 q 131 994 147 957 q 93 1083 115 1032 l 57 1171 l 271 1171 l 290 888 l 60 888 q -10 933 21 913 q -72 978 -42 954 q -140 1035 -101 1003 l -303 1171 z "},"ए":{"ha":711,"x_min":-28,"x_max":739,"o":"m 56 792 l 292 792 l 292 171 q 300 149 292 156 q 324 143 308 143 l 396 143 q 413 149 406 143 q 419 171 419 156 l 419 310 l 656 310 l 656 149 q 615 36 656 72 q 461 0 575 0 l 250 0 q 96 36 136 0 q 56 149 56 72 l 56 792 m 419 792 l 656 792 l 656 521 q 615 408 656 444 q 461 372 575 372 l 344 372 l 344 529 l 388 529 q 411 535 403 529 q 419 557 419 542 l 419 792 m -28 892 l 739 892 l 739 735 l -28 735 l -28 892 z "},"इ":{"ha":642,"x_min":-28,"x_max":669,"o":"m -28 892 l 669 892 l 669 735 l -28 735 l -28 892 m 42 229 l 278 229 l 278 -86 l 42 -86 l 42 229 m 339 824 l 575 824 l 575 513 l 310 513 q 286 506 294 513 q 278 485 278 500 l 278 451 q 286 430 278 436 q 310 424 294 424 l 406 424 q 560 388 519 424 q 600 275 600 351 l 600 149 q 560 36 600 72 q 406 0 519 0 l 239 0 l 239 143 l 332 143 q 356 149 347 143 q 364 171 364 156 l 364 253 q 356 274 364 268 q 332 281 347 281 l 236 281 q 82 317 122 281 q 42 429 42 353 l 42 507 q 82 619 42 583 q 236 656 122 656 l 339 656 l 339 824 z "},"ि":{"ha":347,"x_min":-28,"x_max":956,"o":"m -28 892 l 375 892 l 375 735 l -28 735 l -28 892 m 56 767 l 292 767 l 292 0 l 56 0 l 56 767 m 786 1192 q 908 1157 861 1192 q 956 1036 956 1122 l 956 939 l 719 939 l 719 985 q 710 1026 719 1017 q 669 1035 701 1035 l 342 1035 q 301 1026 311 1035 q 292 985 292 1017 l 292 883 l 56 883 l 56 1036 q 103 1157 56 1122 q 225 1192 150 1192 l 786 1192 z "},"ई":{"ha":642,"x_min":-28,"x_max":681,"o":"m -28 892 l 669 892 l 669 735 l -28 735 l -28 892 m 42 229 l 278 229 l 278 -86 l 42 -86 l 42 229 m 339 824 l 575 824 l 575 513 l 310 513 q 286 506 294 513 q 278 485 278 500 l 278 451 q 286 430 278 436 q 310 424 294 424 l 406 424 q 560 388 519 424 q 600 275 600 351 l 600 149 q 560 36 600 72 q 406 0 519 0 l 239 0 l 239 143 l 332 143 q 356 149 347 143 q 364 171 364 156 l 364 253 q 356 274 364 268 q 332 281 347 281 l 236 281 q 82 317 122 281 q 42 429 42 353 l 42 507 q 82 619 42 583 q 236 656 122 656 l 339 656 l 339 824 m 681 985 l 607 985 q 583 978 592 985 q 575 957 575 972 l 575 878 l 339 878 l 339 979 q 379 1092 339 1056 q 533 1128 419 1128 l 681 1128 l 681 985 z "},"ी":{"ha":347,"x_min":-333,"x_max":375,"o":"m 375 892 l 375 735 l -28 735 l -28 892 l 375 892 m 292 767 l 292 0 l 56 0 l 56 767 l 292 767 m 122 1192 q 244 1157 197 1192 q 292 1036 292 1122 l 292 883 l 56 883 l 56 985 q 47 1026 56 1017 q 6 1035 38 1035 l -47 1035 q -87 1026 -78 1035 q -97 985 -97 1017 l -97 939 l -333 939 l -333 1036 q -286 1157 -333 1122 q -164 1192 -239 1192 l 122 1192 z "},"ऌ":{"ha":1028,"x_min":-28,"x_max":1056,"o":"m -28 892 l 1056 892 l 1056 735 l -28 735 l -28 892 m 433 656 q 490 639 472 656 q 511 590 507 622 l 518 590 q 540 639 522 622 q 596 656 557 656 l 747 656 l 747 499 l 664 499 q 638 490 644 499 q 632 465 632 481 l 632 289 l 396 289 l 396 465 q 390 490 396 481 q 364 499 383 499 l 324 499 q 300 492 308 499 q 292 465 292 485 l 292 185 q 300 163 292 169 q 324 157 308 157 l 339 157 l 339 0 l 250 0 q 96 36 136 0 q 56 149 56 72 l 56 479 q 102 616 56 576 q 238 656 149 656 l 433 656 m 736 761 l 972 761 l 972 64 l 796 64 q 772 58 781 64 q 764 36 764 51 l 764 -10 q 772 -31 764 -25 q 796 -37 781 -37 l 1056 -37 l 1056 -194 l 722 -194 q 568 -158 608 -194 q 528 -46 528 -122 l 528 58 q 568 171 528 135 q 722 207 608 207 l 736 207 l 736 761 z "},"ॡ":{"ha":1028,"x_min":-28,"x_max":1056,"o":"m -28 892 l 1056 892 l 1056 735 l -28 735 l -28 892 m 433 656 q 490 639 472 656 q 511 590 507 622 l 518 590 q 540 639 522 622 q 596 656 557 656 l 747 656 l 747 499 l 664 499 q 638 490 644 499 q 632 465 632 481 l 632 289 l 396 289 l 396 465 q 390 490 396 481 q 364 499 383 499 l 324 499 q 300 492 308 499 q 292 465 292 485 l 292 185 q 300 163 292 169 q 324 157 308 157 l 339 157 l 339 0 l 250 0 q 96 36 136 0 q 56 149 56 72 l 56 479 q 102 616 56 576 q 238 656 149 656 l 433 656 m 624 133 q 672 239 624 210 q 792 268 719 268 l 972 268 l 972 111 l 892 111 q 868 104 876 111 q 860 78 860 97 l 860 44 q 868 18 860 25 q 892 11 876 11 l 956 11 l 956 -146 l 892 -146 q 868 -153 876 -146 q 860 -179 860 -160 l 860 -212 q 868 -239 860 -232 q 892 -246 876 -246 l 1043 -246 l 1043 -403 l 847 -403 q 678 -363 733 -403 q 624 -226 624 -324 l 624 -149 q 641 -92 624 -110 q 689 -71 658 -75 l 689 -64 q 641 -42 658 -60 q 624 14 624 -25 l 624 133 m 736 756 l 972 756 l 972 197 l 736 197 l 736 756 z "},"ओ":{"ha":1361,"x_min":71,"x_max":1389,"o":"m 1103 1171 l 1301 888 l 1074 888 q 984 970 1025 926 q 901 1067 943 1014 l 821 1171 l 1103 1171 m 722 892 l 958 892 l 958 0 l 722 0 l 722 892 m 444 511 l 788 511 l 788 354 l 501 354 l 444 511 m 915 892 l 1042 892 l 1042 735 l 915 735 l 915 892 m 435 899 q 589 856 549 899 q 629 736 629 813 l 629 585 q 613 528 629 546 q 564 507 596 511 l 564 500 q 613 478 596 496 q 629 422 629 461 l 629 271 q 589 151 629 194 q 435 108 549 108 l 265 108 q 111 151 151 108 q 71 271 71 194 l 71 385 l 307 385 l 307 293 q 315 272 307 278 q 339 265 324 265 l 361 265 q 385 272 376 265 q 393 293 393 278 l 393 392 q 385 418 393 411 q 361 425 376 425 l 315 425 l 315 582 l 361 582 q 385 589 376 582 q 393 615 393 596 l 393 714 q 385 735 393 729 q 361 742 376 742 l 339 742 q 315 735 324 742 q 307 714 307 729 l 307 636 l 71 636 l 71 736 q 111 856 71 813 q 265 899 151 899 l 435 899 m 1069 767 l 1306 767 l 1306 0 l 1069 0 l 1069 767 m 986 892 l 1389 892 l 1389 735 l 986 735 l 986 892 z "},"ॉ":{"ha":347,"x_min":-174,"x_max":521,"o":"m 56 767 l 292 767 l 292 0 l 56 0 l 56 767 m -28 892 l 375 892 l 375 735 l -28 735 l -28 892 m -174 1232 l 21 1232 l 21 1132 q 30 1103 21 1111 q 60 1096 39 1096 l 288 1096 q 317 1103 308 1096 q 326 1132 326 1111 l 326 1232 l 521 1232 l 521 1103 q 475 1000 521 1035 q 310 965 429 965 l 38 965 q -127 1000 -81 965 q -174 1103 -174 1035 l -174 1232 z "},"ो":{"ha":347,"x_min":-189,"x_max":375,"o":"m 56 767 l 292 767 l 292 0 l 56 0 l 56 767 m -28 892 l 375 892 l 375 735 l -28 735 l -28 892 m 93 1171 l 292 888 l 64 888 q -26 970 15 926 q -108 1067 -67 1014 l -189 1171 l 93 1171 z "},"ऋ":{"ha":1411,"x_min":-28,"x_max":1439,"o":"m 714 767 l 714 0 l 478 0 l 478 767 l 714 767 m -28 892 l 1439 892 l 1439 735 l -28 735 l -28 892 m 165 649 q 243 639 211 649 q 299 609 275 629 q 344 556 322 589 l 496 333 l 308 0 l 38 0 l 258 393 l 228 307 l 146 426 q 99 478 119 465 q 42 492 78 492 l 21 492 l 21 649 l 165 649 m 1119 488 q 1111 509 1119 503 q 1088 515 1103 515 l 1065 515 q 1042 509 1050 515 q 1033 488 1033 503 l 1033 418 q 1042 397 1033 403 q 1065 390 1050 390 l 1088 390 q 1111 397 1103 390 q 1119 418 1119 403 l 1119 488 m 1342 -208 l 1033 -208 q 879 -172 919 -208 q 839 -60 839 -136 l 839 28 q 871 138 839 100 q 992 176 903 176 l 1008 176 l 881 251 l 335 251 l 335 390 l 950 390 l 950 351 q 840 365 882 351 q 797 425 797 378 l 797 479 q 847 616 797 576 q 1021 656 896 656 l 1132 656 q 1306 616 1257 656 q 1356 479 1356 576 l 1356 465 q 1306 328 1356 368 q 1132 289 1257 289 l 1111 289 l 1307 176 l 1307 33 l 1107 33 q 1083 27 1092 33 q 1075 6 1075 21 l 1075 -37 q 1083 -59 1075 -53 q 1107 -65 1092 -65 l 1342 -65 l 1342 -208 z "},"ॠ":{"ha":1439,"x_min":-28,"x_max":1488,"o":"m 749 767 l 749 0 l 513 0 l 513 767 l 749 767 m -28 892 l 1488 892 l 1488 735 l -28 735 l -28 892 m 200 649 q 278 639 246 649 q 333 609 310 629 q 379 556 357 589 l 531 333 l 343 0 l 72 0 l 293 393 l 263 307 l 181 426 q 133 478 154 465 q 76 492 113 492 l 56 492 l 56 649 l 200 649 m 1168 488 q 1160 509 1168 503 q 1136 515 1151 515 l 1114 515 q 1090 509 1099 515 q 1082 488 1082 503 l 1082 418 q 1090 397 1082 403 q 1114 390 1099 390 l 1136 390 q 1160 397 1151 390 q 1168 418 1168 403 l 1168 488 m 1181 656 q 1355 616 1306 656 q 1404 479 1404 576 l 1404 428 q 1355 291 1404 331 q 1181 251 1306 251 l 1114 251 q 1090 244 1099 251 q 1082 218 1082 238 l 1082 185 q 1090 158 1082 165 q 1114 151 1099 151 l 1178 151 l 1178 -6 l 1114 -6 q 1090 -12 1099 -6 q 1082 -39 1082 -19 l 1082 -72 q 1090 -99 1082 -92 q 1114 -106 1099 -106 l 1265 -106 l 1265 -262 l 1069 -262 q 901 -223 956 -262 q 846 -86 846 -183 l 846 -8 q 863 48 846 31 q 911 69 881 65 l 911 76 q 863 98 881 81 q 846 154 846 115 l 846 217 q 888 278 846 265 q 999 290 931 290 l 999 251 l 369 251 l 369 390 l 999 390 l 999 351 q 888 365 931 351 q 846 425 846 378 l 846 479 q 895 616 846 576 q 1069 656 944 656 l 1181 656 z "},"उ":{"ha":654,"x_min":-28,"x_max":669,"o":"m -28 892 l 669 892 l 669 735 l -28 735 l -28 892 m 586 563 q 569 506 586 524 q 521 485 553 489 l 521 478 q 569 456 553 474 q 586 400 586 439 l 586 149 q 546 36 586 72 q 392 0 506 0 l 222 0 q 68 36 108 0 q 28 149 28 72 l 28 310 l 264 310 l 264 171 q 271 149 264 156 q 288 143 278 143 l 318 143 q 342 149 333 143 q 350 171 350 156 l 350 369 q 342 396 350 389 q 318 403 333 403 l 257 403 l 257 560 l 318 560 q 342 567 333 560 q 350 593 350 574 l 350 688 q 340 725 350 715 q 303 735 331 735 l 433 774 q 544 761 503 774 q 586 700 586 749 l 586 563 z "},"ऑ":{"ha":1361,"x_min":71,"x_max":1535,"o":"m 1340 1132 l 1340 1132 l 1340 1232 l 1535 1232 l 1535 1103 q 1487 999 1535 1032 q 1324 965 1439 965 l 1051 965 q 888 999 936 965 q 840 1103 840 1032 l 840 1232 l 1035 1232 l 1035 1132 q 1044 1103 1035 1111 q 1074 1096 1053 1096 l 1301 1096 q 1331 1103 1322 1096 q 1340 1132 1340 1111 m 722 892 l 722 892 l 1389 892 l 1389 735 l 1306 735 l 1306 0 l 1069 0 l 1069 735 l 958 735 l 958 0 l 722 0 l 722 354 l 629 354 l 629 271 q 586 149 629 190 q 435 108 543 108 l 265 108 q 114 149 157 108 q 71 271 71 190 l 71 385 l 307 385 l 307 293 q 315 272 307 279 q 339 265 324 265 l 361 265 q 385 272 376 265 q 393 293 393 279 l 393 392 q 385 417 393 408 q 361 425 376 425 l 315 425 l 315 582 l 361 582 q 385 590 376 582 q 393 615 393 599 l 393 714 q 385 735 393 728 q 361 742 376 742 l 339 742 q 315 735 324 742 q 307 714 307 728 l 307 636 l 71 636 l 71 736 q 114 858 71 817 q 265 899 157 899 l 435 899 q 586 858 543 899 q 629 736 629 817 l 629 585 q 583 511 629 526 l 722 511 l 722 892 z "},"ऊ":{"ha":940,"x_min":-28,"x_max":968,"o":"m 731 478 q 867 438 821 478 q 913 301 913 399 l 913 149 q 872 36 913 72 q 718 0 832 0 l 629 0 l 629 157 l 644 157 q 668 163 660 157 q 676 185 676 169 l 676 288 q 668 314 676 307 q 644 321 660 321 l 454 321 l 454 478 l 731 478 m 968 892 l 968 735 l -28 735 l -28 892 l 968 892 m 586 563 q 569 506 586 524 q 521 485 553 489 l 521 478 q 569 456 553 474 q 586 400 586 439 l 586 149 q 546 36 586 72 q 392 0 506 0 l 222 0 q 68 36 108 0 q 28 149 28 72 l 28 310 l 264 310 l 264 171 q 271 149 264 156 q 288 143 278 143 l 318 143 q 342 149 333 143 q 350 171 350 156 l 350 369 q 342 396 350 389 q 318 403 333 403 l 257 403 l 257 560 l 318 560 q 342 567 333 560 q 350 593 350 574 l 350 688 q 340 725 350 715 q 303 735 331 735 l 433 774 q 544 761 503 774 q 586 700 586 749 l 586 563 z "},"ब":{"ha":801,"x_min":-28,"x_max":829,"o":"m -28 892 l 829 892 l 829 735 l -28 735 l -28 892 m 451 656 l 451 513 l 351 513 l 408 442 q 458 381 432 413 q 501 329 483 350 q 518 308 518 308 q 516 318 518 308 q 512 359 514 328 q 510 451 510 390 l 510 822 l 746 822 l 746 0 l 510 0 l 510 143 l 518 165 l 364 353 q 329 397 354 365 q 278 461 304 428 l 278 299 q 286 272 278 279 q 310 265 294 265 l 501 265 q 525 272 517 265 q 533 299 533 279 l 553 206 q 536 133 553 158 q 460 108 519 108 l 224 108 q 88 148 135 108 q 42 285 42 188 l 42 507 q 82 619 42 583 q 236 656 122 656 l 451 656 z "},"भ":{"ha":1022,"x_min":56,"x_max":1050,"o":"m 731 767 l 967 767 l 967 0 l 731 0 l 731 767 m 731 892 l 1050 892 l 1050 735 l 731 735 l 731 892 m 428 899 q 582 856 542 899 q 622 736 622 813 l 622 285 q 573 148 622 188 q 399 108 524 108 l 279 108 q 105 148 154 108 q 56 285 56 188 l 56 463 q 96 575 56 539 q 250 611 136 611 l 864 611 l 864 454 l 324 454 q 300 448 308 454 q 292 426 292 442 l 292 299 q 301 272 292 279 q 326 265 311 265 l 351 265 q 376 272 367 265 q 386 299 386 279 l 386 714 q 378 735 386 729 q 354 742 369 742 l 336 742 q 313 735 321 742 q 304 714 304 729 l 304 678 l 68 678 l 68 736 q 108 856 68 813 q 263 899 149 899 l 428 899 z "},"च":{"ha":693,"x_min":-31,"x_max":721,"o":"m -31 892 l 721 892 l 721 735 l -31 735 l -31 892 m 401 822 l 638 822 l 638 0 l 401 0 l 401 822 m -17 656 l 361 656 l 361 499 l -17 499 l -17 656 m 61 424 q 104 515 61 493 q 215 538 147 538 l 329 499 q 312 496 319 499 q 301 486 304 493 q 297 465 297 479 l 297 299 q 306 272 297 279 q 329 265 314 265 l 369 265 q 393 272 385 265 q 401 299 401 279 l 421 206 q 404 133 421 158 q 328 108 388 108 l 243 108 q 108 148 154 108 q 61 285 61 188 l 61 424 z "},"छ":{"ha":974,"x_min":-28,"x_max":1001,"o":"m -28 892 l 1001 892 l 1001 735 l -28 735 l -28 892 m 554 767 l 776 767 l 776 615 l 554 615 l 554 767 m 47 700 q 90 761 47 749 q 200 774 132 774 l 331 735 q 294 725 304 735 q 283 688 283 715 l 283 551 q 292 525 283 532 q 315 518 300 518 l 361 518 l 361 361 l 315 361 q 292 354 300 361 q 283 328 283 347 l 283 193 q 292 167 283 174 q 315 160 300 160 l 650 160 q 674 167 665 160 q 682 193 682 174 l 682 497 q 674 519 682 513 q 650 525 665 525 l 628 525 q 604 519 613 525 q 596 497 596 513 l 596 442 q 604 420 596 426 q 628 414 613 414 l 643 414 l 643 285 l 586 285 q 463 315 510 285 q 415 433 415 346 l 415 507 q 466 625 415 594 q 614 656 517 656 l 719 656 q 867 625 817 656 q 918 507 918 594 l 918 176 q 864 40 918 79 q 694 0 810 0 l 271 0 q 102 40 157 0 q 47 176 47 79 l 47 358 q 65 415 47 397 q 113 436 82 432 l 113 443 q 65 465 82 447 q 47 521 47 482 l 47 700 z "},"द":{"ha":658,"x_min":-47,"x_max":686,"o":"m -47 892 l 686 892 l 686 735 l -47 735 l -47 892 m 367 824 l 603 824 l 603 499 l 307 499 q 282 492 292 499 q 272 465 272 485 l 272 299 q 281 272 272 279 q 304 265 289 265 l 335 265 q 358 272 350 265 q 367 299 367 279 l 386 206 q 369 133 386 158 q 293 108 353 108 l 260 108 q 85 148 135 108 q 36 285 36 188 l 36 507 q 76 619 36 583 q 231 656 117 656 l 367 656 l 367 824 m 367 404 l 603 404 l 603 0 l 367 0 l 367 404 z "},"ड":{"ha":653,"x_min":-28,"x_max":681,"o":"m -28 892 l 681 892 l 681 735 l -28 735 l -28 892 m 329 824 l 565 824 l 565 513 l 315 513 q 292 506 300 513 q 283 485 283 500 l 283 453 q 292 431 283 438 q 315 425 300 425 l 403 425 q 557 389 517 425 q 597 276 597 353 l 597 149 q 557 36 597 72 q 403 0 517 0 l 233 0 q 79 36 119 0 q 39 149 39 72 l 39 221 l 275 221 l 275 171 q 282 149 275 156 q 299 143 289 143 l 329 143 q 353 149 344 143 q 361 171 361 156 l 361 254 q 353 276 361 269 q 329 282 344 282 l 242 282 q 88 318 128 282 q 47 431 47 354 l 47 507 q 88 619 47 583 q 242 656 128 656 l 329 656 l 329 824 z "},"ड़":{"ha":653,"x_min":-28,"x_max":681,"o":"m -28 892 l 681 892 l 681 735 l -28 735 l -28 892 m 329 824 l 565 824 l 565 513 l 315 513 q 292 506 300 513 q 283 485 283 500 l 283 453 q 292 431 283 438 q 315 425 300 425 l 403 425 q 557 389 517 425 q 597 276 597 353 l 597 149 q 557 36 597 72 q 403 0 517 0 l 233 0 q 79 36 119 0 q 39 149 39 72 l 39 221 l 275 221 l 275 171 q 282 149 275 156 q 299 143 289 143 l 329 143 q 353 149 344 143 q 361 171 361 156 l 361 254 q 353 276 361 269 q 329 282 344 282 l 242 282 q 88 318 128 282 q 47 431 47 354 l 47 507 q 88 619 47 583 q 242 656 128 656 l 329 656 l 329 824 m 235 -90 l 404 -90 l 404 -269 l 235 -269 l 235 -90 z "},"ढ":{"ha":718,"x_min":-28,"x_max":746,"o":"m -28 892 l 746 892 l 746 735 l -28 735 l -28 892 m 386 824 l 622 824 l 622 499 l 326 499 q 301 492 311 499 q 292 465 292 485 l 292 190 q 301 164 292 171 q 326 157 311 157 l 406 157 q 431 164 421 157 q 440 190 440 171 l 440 232 q 431 258 440 251 q 406 265 421 265 l 344 265 l 344 422 l 453 422 q 627 383 578 422 q 676 246 676 343 l 676 176 q 627 40 676 79 q 453 0 578 0 l 279 0 q 105 40 154 0 q 56 176 56 79 l 56 507 q 96 619 56 583 q 250 656 136 656 l 386 656 l 386 824 z "},"ध":{"ha":842,"x_min":69,"x_max":879,"o":"m 558 892 l 879 892 l 879 735 l 560 735 l 558 892 m 560 822 l 796 822 l 796 0 l 560 0 l 560 822 m 306 593 q 314 567 306 574 q 338 560 322 560 l 433 560 l 433 403 l 338 403 q 314 396 322 403 q 306 369 306 389 l 306 299 q 314 272 306 279 q 338 265 322 265 l 513 265 q 550 276 540 265 q 560 313 560 286 l 579 192 q 560 131 579 154 q 492 108 540 108 l 250 108 q 113 144 157 108 q 69 256 69 179 l 69 400 q 87 456 69 439 q 135 478 104 474 l 135 485 q 87 506 104 489 q 69 563 69 524 l 69 751 q 113 864 69 829 q 250 899 157 899 l 324 899 q 460 864 417 899 q 504 751 504 829 l 504 664 l 379 664 l 379 714 q 371 735 379 729 q 347 742 363 742 l 338 742 q 314 735 322 742 q 306 714 306 729 l 306 593 z "},"फ़":{"ha":1000,"x_min":-28,"x_max":1028,"o":"m 396 821 l 632 821 l 632 0 l 396 0 l 396 821 m 56 821 l 292 821 l 292 299 q 300 272 292 279 q 324 265 308 265 l 364 265 q 388 272 379 265 q 396 299 396 279 l 415 206 q 399 133 415 158 q 322 108 382 108 l 238 108 q 102 148 149 108 q 56 285 56 188 l 56 821 m 790 656 q 926 616 881 656 q 972 479 972 576 l 972 257 q 932 144 972 181 q 778 108 892 108 l 689 108 l 689 251 l 704 251 q 728 258 719 251 q 736 279 736 264 l 736 465 q 728 492 736 485 q 704 499 719 499 l 664 499 q 640 492 649 499 q 632 465 632 485 l 613 558 q 629 631 613 607 q 706 656 646 656 l 790 656 m -28 892 l 1028 892 l 1028 735 l -28 735 l -28 892 m 121 -1 l 290 -1 l 290 -181 l 121 -181 l 121 -1 z "},"ग":{"ha":1008,"x_min":-28,"x_max":1036,"o":"m 717 794 l 953 794 l 953 0 l 717 0 l 717 794 m -28 892 l 1036 892 l 1036 735 l -28 735 l -28 892 m 369 769 l 606 769 l 606 285 q 556 148 606 188 q 382 108 507 108 l 263 108 q 88 148 138 108 q 39 285 39 188 l 39 496 q 99 619 39 582 q 289 656 158 656 l 454 656 l 454 499 l 318 499 q 283 491 292 499 q 275 456 275 483 l 275 299 q 285 272 275 279 q 310 265 294 265 l 335 265 q 360 272 350 265 q 369 299 369 279 l 369 769 z "},"घ":{"ha":739,"x_min":-28,"x_max":767,"o":"m 56 700 q 98 761 56 749 q 208 774 140 774 l 339 735 q 310 731 321 735 q 296 716 300 726 q 292 688 292 706 l 292 611 q 300 585 292 592 q 324 578 308 578 l 369 578 l 369 421 l 324 421 q 300 414 308 421 q 292 388 292 407 l 292 299 q 300 272 292 279 q 324 265 308 265 l 400 265 q 438 276 428 265 q 447 313 447 286 l 467 192 q 447 131 467 154 q 379 108 428 108 l 279 108 q 110 148 165 108 q 56 285 56 188 l 56 418 q 73 474 56 457 q 121 496 90 492 l 121 503 q 73 524 90 507 q 56 581 56 542 l 56 700 m -28 892 l 767 892 l 767 735 l -28 735 l -28 892 m 447 822 l 683 822 l 683 0 l 447 0 l 447 822 z "},"ग़":{"ha":1008,"x_min":-28,"x_max":1036,"o":"m 717 794 l 953 794 l 953 0 l 717 0 l 717 794 m -28 892 l 1036 892 l 1036 735 l -28 735 l -28 892 m 369 769 l 606 769 l 606 285 q 556 148 606 188 q 382 108 507 108 l 263 108 q 88 148 138 108 q 39 285 39 188 l 39 496 q 99 619 39 582 q 289 656 158 656 l 454 656 l 454 499 l 318 499 q 283 491 292 499 q 275 456 275 483 l 275 299 q 285 272 275 279 q 310 265 294 265 l 335 265 q 360 272 350 265 q 369 299 369 279 l 369 769 m 236 17 l 406 17 l 406 -162 l 236 -162 l 236 17 z "},"ह":{"ha":678,"x_min":-28,"x_max":706,"o":"m -28 892 l 706 892 l 706 735 l -28 735 l -28 892 m 386 656 l 386 824 l 622 824 l 622 499 l 324 499 q 300 492 308 499 q 292 474 292 486 l 292 464 q 300 445 292 451 q 324 439 308 439 l 399 439 q 573 399 524 439 q 622 263 622 360 l 622 222 l 386 222 l 386 249 q 376 275 386 268 q 351 282 367 282 l 324 282 q 300 275 308 282 q 292 249 292 268 l 292 190 q 300 164 292 171 q 324 157 308 157 l 622 157 l 622 0 l 279 0 q 110 40 165 0 q 56 176 56 79 l 56 279 q 73 335 56 318 q 121 357 90 353 l 121 364 q 73 385 90 368 q 56 442 56 403 l 56 507 q 96 619 56 583 q 250 656 136 656 l 386 656 z "},"ज":{"ha":1011,"x_min":-28,"x_max":1039,"o":"m 719 794 l 956 794 l 956 0 l 719 0 l 719 794 m -28 892 l 1039 892 l 1039 735 l -28 735 l -28 892 m 56 656 l 292 656 l 292 299 q 301 272 292 279 q 326 265 311 265 l 351 265 q 376 272 367 265 q 386 299 386 279 l 386 656 l 757 656 l 757 499 l 622 499 l 622 285 q 573 148 622 188 q 399 108 524 108 l 279 108 q 105 148 154 108 q 56 285 56 188 l 56 656 z "},"झ":{"ha":989,"x_min":-56,"x_max":1017,"o":"m 42 229 l 278 229 l 278 -86 l 42 -86 l 42 229 m -56 892 l 1017 892 l 1017 735 l -56 735 l -56 892 m 699 803 l 933 803 l 933 0 l 697 0 l 699 803 m 339 824 l 575 824 l 575 513 l 310 513 q 286 506 294 513 q 278 485 278 500 l 278 451 q 286 430 278 436 q 310 424 294 424 l 717 424 l 717 281 l 536 281 l 586 318 q 600 250 600 290 l 600 149 q 560 36 600 72 q 406 0 519 0 l 239 0 l 239 143 l 332 143 q 356 149 347 143 q 364 171 364 156 l 364 253 q 356 274 364 268 q 332 281 347 281 l 236 281 q 82 317 122 281 q 42 429 42 353 l 42 507 q 82 619 42 583 q 236 656 122 656 l 339 656 l 339 824 z "},"क":{"ha":972,"x_min":-28,"x_max":1000,"o":"m 368 822 l 604 822 l 604 0 l 368 0 l 368 822 m 311 656 l 311 513 l 296 513 q 272 506 281 513 q 264 485 264 500 l 264 299 q 272 272 264 279 q 296 265 281 265 l 336 265 q 360 272 351 265 q 368 299 368 279 l 388 206 q 371 133 388 158 q 294 108 354 108 l 210 108 q 74 148 121 108 q 28 285 28 188 l 28 507 q 68 619 28 583 q 222 656 108 656 l 311 656 m 763 656 q 899 616 853 656 q 944 479 944 576 l 944 257 q 904 144 944 181 q 750 108 864 108 l 661 108 l 661 251 l 676 251 q 700 258 692 251 q 708 279 708 264 l 708 465 q 700 492 708 485 q 676 499 692 499 l 636 499 q 613 492 621 499 q 604 465 604 485 l 585 558 q 601 631 585 607 q 678 656 618 656 l 763 656 m -28 892 l 1000 892 l 1000 735 l -28 735 l -28 892 z "},"ख":{"ha":1293,"x_min":-28,"x_max":1321,"o":"m 1001 822 l 1238 822 l 1238 0 l 1001 0 l 1001 822 m 944 656 l 944 513 l 929 513 q 906 506 914 513 q 897 485 897 500 l 897 299 q 906 272 897 279 q 929 265 914 265 l 969 265 q 993 272 985 265 q 1001 299 1001 279 l 1021 206 q 1004 133 1021 158 q 928 108 988 108 l 843 108 q 708 148 754 108 q 661 285 661 188 l 661 507 q 701 619 661 583 q 856 656 742 656 l 944 656 m 56 656 l 292 656 l 292 204 q 302 167 292 178 q 339 157 313 157 l 683 157 l 683 0 l 306 0 q 115 37 175 0 q 56 160 56 74 l 56 656 m -28 892 l 1321 892 l 1321 735 l 531 735 l 564 758 q 592 738 582 751 q 601 700 601 724 l 601 479 q 557 356 601 393 q 403 319 513 319 l 274 319 l 274 476 l 318 476 q 355 487 344 476 q 365 524 365 497 l 365 688 q 356 725 365 715 q 318 735 346 735 l -28 735 l -28 892 z "},"ख़":{"ha":1293,"x_min":-28,"x_max":1321,"o":"m 1001 822 l 1238 822 l 1238 0 l 1001 0 l 1001 822 m 944 656 l 944 513 l 929 513 q 906 506 914 513 q 897 485 897 500 l 897 299 q 906 272 897 279 q 929 265 914 265 l 969 265 q 993 272 985 265 q 1001 299 1001 279 l 1021 206 q 1004 133 1021 158 q 928 108 988 108 l 843 108 q 708 148 754 108 q 661 285 661 188 l 661 507 q 701 619 661 583 q 856 656 742 656 l 944 656 m 56 656 l 292 656 l 292 204 q 302 167 292 178 q 339 157 313 157 l 683 157 l 683 0 l 306 0 q 115 37 175 0 q 56 160 56 74 l 56 656 m -28 892 l 1321 892 l 1321 735 l 531 735 l 564 758 q 592 738 582 751 q 601 700 601 724 l 601 479 q 557 356 601 393 q 403 319 513 319 l 274 319 l 274 476 l 318 476 q 355 487 344 476 q 365 524 365 497 l 365 688 q 356 725 365 715 q 318 735 346 735 l -28 735 l -28 892 m 222 -67 l 392 -67 l 392 -246 l 222 -246 l 222 -67 z "},"ल":{"ha":1039,"x_min":-28,"x_max":1067,"o":"m -28 892 l 1067 892 l 1067 735 l -28 735 l -28 892 m 451 656 q 508 639 490 656 q 529 590 525 622 l 536 590 q 558 639 540 622 q 614 656 575 656 l 765 656 l 765 499 l 682 499 q 656 490 663 499 q 650 465 650 481 l 650 233 l 414 233 l 414 465 q 408 490 414 481 q 382 499 401 499 l 342 499 q 318 492 326 499 q 310 465 310 485 l 310 185 q 318 163 310 169 q 342 157 326 157 l 411 157 l 411 0 l 268 0 q 114 36 154 0 q 74 149 74 72 l 74 479 q 120 616 74 576 q 256 656 167 656 l 451 656 m 983 0 l 747 0 l 747 761 l 983 761 l 983 0 z "},"ळ":{"ha":1014,"x_min":-28,"x_max":1042,"o":"m -28 892 l 1042 892 l 1042 735 l -28 735 l -28 892 m 589 760 l 825 760 l 825 601 l 589 601 l 589 760 m 776 656 q 913 616 867 656 q 958 479 958 576 l 958 285 q 913 148 958 188 q 776 108 867 108 l 617 108 q 511 174 519 108 l 504 174 q 399 108 496 108 l 238 108 q 102 148 149 108 q 56 285 56 188 l 56 479 q 102 616 56 576 q 238 656 149 656 l 399 656 q 504 590 496 656 l 511 590 q 617 656 519 656 l 776 656 m 722 465 q 714 492 722 485 q 690 499 706 499 l 650 499 q 624 490 631 499 q 618 465 618 481 l 618 299 q 624 274 618 283 q 650 265 631 265 l 690 265 q 714 272 706 265 q 722 299 722 279 l 722 465 m 396 465 q 390 490 396 481 q 364 499 383 499 l 324 499 q 300 492 308 499 q 292 465 292 485 l 292 299 q 300 272 292 279 q 324 265 308 265 l 364 265 q 390 274 383 265 q 396 299 396 283 l 396 465 m 235 18 l 404 18 l 404 -161 l 235 -161 l 235 18 z "},"ऴ":{"ha":1014,"x_min":-28,"x_max":1042,"o":"m -28 892 l 1042 892 l 1042 735 l -28 735 l -28 892 m 589 760 l 825 760 l 825 601 l 589 601 l 589 760 m 776 656 q 913 616 867 656 q 958 479 958 576 l 958 285 q 913 148 958 188 q 776 108 867 108 l 617 108 q 511 174 519 108 l 504 174 q 399 108 496 108 l 238 108 q 102 148 149 108 q 56 285 56 188 l 56 479 q 102 616 56 576 q 238 656 149 656 l 399 656 q 504 590 496 656 l 511 590 q 617 656 519 656 l 776 656 m 722 465 q 714 492 722 485 q 690 499 706 499 l 650 499 q 624 490 631 499 q 618 465 618 481 l 618 299 q 624 274 618 283 q 650 265 631 265 l 690 265 q 714 272 706 265 q 722 299 722 279 l 722 465 m 396 465 q 390 490 396 481 q 364 499 383 499 l 324 499 q 300 492 308 499 q 292 465 292 485 l 292 299 q 300 272 292 279 q 324 265 308 265 l 364 265 q 390 274 383 265 q 396 299 396 283 l 396 465 m 235 18 l 404 18 l 404 -161 l 235 -161 l 235 18 z "},"म":{"ha":1008,"x_min":-28,"x_max":1036,"o":"m 372 778 l 608 778 l 608 285 q 559 148 608 188 q 385 108 510 108 l 265 108 q 91 148 140 108 q 42 285 42 188 l 42 451 q 82 564 42 528 q 236 600 122 600 l 850 600 l 850 443 l 285 443 q 261 437 269 443 q 253 415 253 431 l 253 299 q 263 272 253 279 q 288 265 272 265 l 338 265 q 363 272 353 265 q 372 299 372 279 l 372 778 m 717 767 l 953 767 l 953 0 l 717 0 l 717 767 m -28 892 l 1036 892 l 1036 735 l -28 735 l -28 892 z "},"न":{"ha":983,"x_min":-28,"x_max":1011,"o":"m 692 767 l 928 767 l 928 0 l 692 0 l 692 767 m -28 892 l 1011 892 l 1011 735 l -28 735 l -28 892 m 608 285 q 559 148 608 188 q 385 108 510 108 l 265 108 q 91 148 140 108 q 42 285 42 188 l 42 507 q 82 619 42 583 q 236 656 122 656 l 825 656 l 825 499 l 310 499 q 286 492 294 499 q 278 471 278 486 l 278 299 q 288 272 278 279 q 313 265 297 265 l 338 265 q 363 272 353 265 q 372 299 372 279 l 372 536 l 608 536 l 608 285 z "},"ङ":{"ha":775,"x_min":-28,"x_max":803,"o":"m -28 892 l 803 892 l 803 735 l -28 735 l -28 892 m 329 824 l 565 824 l 565 513 l 315 513 q 292 506 300 513 q 283 485 283 500 l 283 453 q 292 431 283 438 q 315 425 300 425 l 403 425 q 557 389 517 425 q 597 276 597 353 l 597 149 q 557 36 597 72 q 403 0 517 0 l 233 0 q 79 36 119 0 q 39 149 39 72 l 39 221 l 275 221 l 275 171 q 282 149 275 156 q 299 143 289 143 l 329 143 q 353 149 344 143 q 361 171 361 156 l 361 254 q 353 276 361 269 q 329 282 344 282 l 242 282 q 88 318 128 282 q 47 431 47 354 l 47 507 q 88 619 47 583 q 242 656 128 656 l 329 656 l 329 824 m 603 574 l 772 574 l 772 394 l 603 394 l 603 574 z "},"ण":{"ha":1025,"x_min":-28,"x_max":1053,"o":"m 733 794 l 969 794 l 969 0 l 733 0 l 733 794 m -28 892 l 1053 892 l 1053 735 l -28 735 l -28 892 m 56 781 l 292 781 l 292 299 q 301 272 292 279 q 326 265 311 265 l 351 265 q 376 272 367 265 q 386 299 386 279 l 386 781 l 622 781 l 622 285 q 573 148 622 188 q 399 108 524 108 l 279 108 q 105 148 154 108 q 56 285 56 188 l 56 781 z "},"ञ":{"ha":994,"x_min":-28,"x_max":1022,"o":"m 703 767 l 939 767 l 939 0 l 703 0 l 703 767 m -28 892 l 1022 892 l 1022 735 l -28 735 l -28 892 m 28 374 l 264 374 l 264 299 q 274 272 264 279 q 299 265 283 265 l 324 265 q 349 272 339 265 q 358 299 358 279 l 358 471 q 350 492 358 486 q 326 499 342 499 l 185 499 l 185 656 l 400 656 q 554 613 514 656 q 594 493 594 569 l 594 285 q 545 148 594 188 q 371 108 496 108 l 251 108 q 77 148 126 108 q 28 285 28 188 l 28 374 m 478 304 l 478 461 l 836 461 l 836 304 l 478 304 z "},"प":{"ha":688,"x_min":-28,"x_max":715,"o":"m -28 892 l 715 892 l 715 735 l -28 735 l -28 892 m 396 821 l 632 821 l 632 0 l 396 0 l 396 821 m 56 821 l 292 821 l 292 299 q 300 272 292 279 q 324 265 308 265 l 364 265 q 388 272 379 265 q 396 299 396 279 l 415 206 q 399 133 415 158 q 322 108 382 108 l 238 108 q 102 148 149 108 q 56 285 56 188 l 56 821 z "},"फ":{"ha":1000,"x_min":-28,"x_max":1028,"o":"m 396 821 l 632 821 l 632 0 l 396 0 l 396 821 m 56 821 l 292 821 l 292 299 q 300 272 292 279 q 324 265 308 265 l 364 265 q 388 272 379 265 q 396 299 396 279 l 415 206 q 399 133 415 158 q 322 108 382 108 l 238 108 q 102 148 149 108 q 56 285 56 188 l 56 821 m 790 656 q 926 616 881 656 q 972 479 972 576 l 972 257 q 932 144 972 181 q 778 108 892 108 l 689 108 l 689 251 l 704 251 q 728 258 719 251 q 736 279 736 264 l 736 465 q 728 492 736 485 q 704 499 719 499 l 664 499 q 640 492 649 499 q 632 465 632 485 l 613 558 q 629 631 613 607 q 706 656 646 656 l 790 656 m -28 892 l 1028 892 l 1028 735 l -28 735 l -28 892 z "},"क़":{"ha":972,"x_min":-28,"x_max":1000,"o":"m 368 822 l 604 822 l 604 0 l 368 0 l 368 822 m 311 656 l 311 513 l 296 513 q 272 506 281 513 q 264 485 264 500 l 264 299 q 272 272 264 279 q 296 265 281 265 l 336 265 q 360 272 351 265 q 368 299 368 279 l 388 206 q 371 133 388 158 q 294 108 354 108 l 210 108 q 74 148 121 108 q 28 285 28 188 l 28 507 q 68 619 28 583 q 222 656 108 656 l 311 656 m 763 656 q 899 616 853 656 q 944 479 944 576 l 944 257 q 904 144 944 181 q 750 108 864 108 l 661 108 l 661 251 l 676 251 q 700 258 692 251 q 708 279 708 264 l 708 465 q 700 492 708 485 q 676 499 692 499 l 636 499 q 613 492 621 499 q 604 465 604 485 l 585 558 q 601 631 585 607 q 678 656 618 656 l 763 656 m -28 892 l 1000 892 l 1000 735 l -28 735 l -28 892 m 121 0 l 290 0 l 290 -179 l 121 -179 l 121 0 z "},"र":{"ha":657,"x_min":-28,"x_max":685,"o":"m 56 656 l 292 656 l 292 171 q 300 149 292 156 q 324 143 308 143 l 342 143 q 358 149 351 143 q 365 171 365 156 l 365 283 l 601 283 l 601 149 q 561 36 601 72 q 407 0 521 0 l 250 0 q 96 36 136 0 q 56 149 56 72 l 56 656 m -28 892 l 685 892 l 685 735 l 531 735 l 564 758 q 592 738 582 751 q 601 700 601 724 l 601 507 q 542 384 601 421 q 351 347 483 347 l 274 347 l 274 504 l 318 504 q 355 515 344 504 q 365 551 365 525 l 365 688 q 356 725 365 715 q 318 735 346 735 l -28 735 l -28 892 z "},"ढ़":{"ha":718,"x_min":-28,"x_max":746,"o":"m -28 892 l 746 892 l 746 735 l -28 735 l -28 892 m 386 824 l 622 824 l 622 499 l 326 499 q 301 492 311 499 q 292 465 292 485 l 292 190 q 301 164 292 171 q 326 157 311 157 l 406 157 q 431 164 421 157 q 440 190 440 171 l 440 232 q 431 258 440 251 q 406 265 421 265 l 344 265 l 344 422 l 453 422 q 627 383 578 422 q 676 246 676 343 l 676 176 q 627 40 676 79 q 453 0 578 0 l 279 0 q 105 40 154 0 q 56 176 56 79 l 56 507 q 96 619 56 583 q 250 656 136 656 l 386 656 l 386 824 m 281 -75 l 450 -75 l 450 -254 l 281 -254 l 281 -75 z "},"ऱ":{"ha":657,"x_min":-28,"x_max":685,"o":"m 56 656 l 292 656 l 292 171 q 300 149 292 156 q 324 143 308 143 l 342 143 q 358 149 351 143 q 365 171 365 156 l 365 283 l 601 283 l 601 149 q 561 36 601 72 q 407 0 521 0 l 250 0 q 96 36 136 0 q 56 149 56 72 l 56 656 m -28 892 l 685 892 l 685 735 l 531 735 l 564 758 q 592 738 582 751 q 601 700 601 724 l 601 507 q 542 384 601 421 q 351 347 483 347 l 274 347 l 274 504 l 318 504 q 355 515 344 504 q 365 551 365 525 l 365 688 q 356 725 365 715 q 318 735 346 735 l -28 735 l -28 892 m 224 -90 l 393 -90 l 393 -269 l 224 -269 l 224 -90 z "},"स":{"ha":982,"x_min":-28,"x_max":1010,"o":"m 56 656 l 292 656 l 292 171 q 300 149 292 156 q 324 143 308 143 l 342 143 q 358 149 351 143 q 365 171 365 156 l 365 283 l 601 283 l 601 149 q 561 36 601 72 q 407 0 521 0 l 250 0 q 96 36 136 0 q 56 149 56 72 l 56 656 m -28 892 l 1010 892 l 1010 735 l 531 735 l 564 758 q 592 738 582 751 q 601 700 601 724 l 601 539 q 560 478 601 492 q 449 465 518 465 l 449 504 l 797 504 l 797 347 l 274 347 l 274 504 l 318 504 q 355 515 344 504 q 365 551 365 525 l 365 688 q 356 725 365 715 q 318 735 346 735 l -28 735 l -28 892 m 690 767 l 926 767 l 926 0 l 690 0 l 690 767 z "},"श":{"ha":1028,"x_min":83,"x_max":1056,"o":"m 83 564 l 319 564 l 319 171 q 328 149 319 156 q 351 143 336 143 l 369 143 q 386 149 379 143 q 393 171 393 156 l 393 260 l 629 260 l 629 149 q 589 36 629 72 q 435 0 549 0 l 278 0 q 124 36 164 0 q 83 149 83 72 l 83 564 m 435 899 q 589 856 549 899 q 629 736 629 813 l 629 483 q 570 360 629 397 q 379 324 511 324 l 301 324 l 301 481 l 346 481 q 383 491 372 481 q 393 528 393 501 l 393 714 q 385 735 393 729 q 361 742 376 742 l 343 742 q 326 735 333 742 q 319 714 319 729 l 319 646 l 83 646 l 83 736 q 124 856 83 813 q 278 899 164 899 l 435 899 m 736 892 l 1056 892 l 1056 735 l 972 735 l 972 0 l 736 0 l 736 892 z "},"ष":{"ha":757,"x_min":-28,"x_max":785,"o":"m -28 892 l 785 892 l 785 735 l -28 735 l -28 892 m 56 821 l 286 821 l 286 782 l 410 576 q 462 471 446 517 q 478 425 478 425 q 472 472 478 425 q 465 593 465 519 l 465 821 l 701 821 l 701 0 l 465 0 l 465 243 l 472 271 l 347 479 q 296 585 313 539 q 279 631 279 631 q 285 583 279 631 q 292 463 292 536 l 292 299 q 300 272 292 279 q 324 265 308 265 l 433 265 q 457 272 449 265 q 465 299 465 279 l 485 206 q 468 133 485 158 q 392 108 451 108 l 238 108 q 102 148 149 108 q 56 285 56 188 l 56 821 z "},"त":{"ha":685,"x_min":-28,"x_max":713,"o":"m 629 767 l 629 0 l 393 0 l 393 767 l 629 767 m -28 892 l 713 892 l 713 735 l -28 735 l -28 892 m 411 656 l 411 499 l 324 499 q 300 492 308 499 q 292 471 292 486 l 292 185 q 300 163 292 169 q 324 157 308 157 l 339 157 l 339 0 l 250 0 q 96 36 136 0 q 56 149 56 72 l 56 507 q 96 619 56 583 q 250 656 136 656 l 411 656 z "},"थ":{"ha":904,"x_min":69,"x_max":932,"o":"m 611 892 l 932 892 l 932 735 l 613 735 l 611 892 m 613 822 l 849 822 l 849 0 l 613 0 l 613 822 m 338 899 q 474 864 431 899 q 518 751 518 829 l 518 565 q 478 446 518 489 q 324 403 438 403 l 306 403 l 306 299 q 314 272 306 279 q 338 265 322 265 l 565 265 q 603 276 593 265 q 613 313 613 286 l 632 192 q 613 131 632 154 q 544 108 593 108 l 293 108 q 124 148 179 108 q 69 285 69 188 l 69 560 l 250 560 q 274 566 265 560 q 282 588 282 572 l 282 714 q 274 735 282 729 q 250 742 265 742 l 240 742 q 217 735 225 742 q 208 714 208 729 l 208 664 l 83 664 l 83 751 q 127 864 83 829 q 264 899 171 899 l 338 899 z "},"ट":{"ha":678,"x_min":-28,"x_max":706,"o":"m 386 824 l 622 824 l 622 499 l 326 499 q 301 492 311 499 q 292 465 292 485 l 292 190 q 301 164 292 171 q 326 157 311 157 l 351 157 q 376 164 367 157 q 386 190 386 171 l 386 332 l 622 332 l 622 176 q 573 40 622 79 q 399 0 524 0 l 279 0 q 105 40 154 0 q 56 176 56 79 l 56 507 q 96 619 56 583 q 250 656 136 656 l 386 656 l 386 824 m -28 892 l 706 892 l 706 735 l -28 735 l -28 892 z "},"ठ":{"ha":678,"x_min":-28,"x_max":706,"o":"m -28 892 l 706 892 l 706 735 l -28 735 l -28 892 m 399 656 q 573 616 524 656 q 622 479 622 576 l 622 176 q 573 40 622 79 q 399 0 524 0 l 279 0 q 105 40 154 0 q 56 176 56 79 l 56 479 q 105 616 56 576 q 279 656 154 656 l 399 656 m 221 768 l 457 768 l 457 611 l 221 611 l 221 768 m 386 465 q 376 492 386 485 q 351 499 367 499 l 326 499 q 301 492 311 499 q 292 465 292 485 l 292 190 q 301 164 292 171 q 326 157 311 157 l 351 157 q 376 164 367 157 q 386 190 386 171 l 386 465 z "},"व":{"ha":688,"x_min":-28,"x_max":715,"o":"m -28 892 l 715 892 l 715 735 l -28 735 l -28 892 m 396 821 l 632 821 l 632 0 l 396 0 l 396 821 m 339 656 l 339 499 l 324 499 q 300 492 308 499 q 292 471 292 486 l 292 299 q 300 272 292 279 q 324 265 308 265 l 364 265 q 388 272 379 265 q 396 299 396 279 l 415 206 q 399 133 415 158 q 322 108 382 108 l 238 108 q 102 148 149 108 q 56 285 56 188 l 56 507 q 96 619 56 583 q 250 656 136 656 l 339 656 z "},"य":{"ha":872,"x_min":-28,"x_max":900,"o":"m -28 892 l 900 892 l 900 735 l -28 735 l -28 892 m 581 822 l 817 822 l 817 0 l 581 0 l 581 822 m 486 550 q 471 463 486 500 q 415 407 456 426 q 299 388 375 388 l 292 388 l 292 299 q 300 272 292 279 q 324 265 308 265 l 533 265 q 571 276 561 265 q 581 313 581 286 l 600 192 q 581 131 600 154 q 513 108 561 108 l 279 108 q 110 148 165 108 q 56 285 56 188 l 56 544 l 229 544 q 253 551 244 544 q 261 572 261 557 l 261 688 q 251 725 261 715 q 214 735 242 735 l 324 774 q 443 754 400 774 q 486 674 486 735 l 486 550 z "},"ज़":{"ha":1011,"x_min":-28,"x_max":1039,"o":"m 719 794 l 956 794 l 956 0 l 719 0 l 719 794 m -28 892 l 1039 892 l 1039 735 l -28 735 l -28 892 m 56 656 l 292 656 l 292 299 q 301 272 292 279 q 326 265 311 265 l 351 265 q 376 272 367 265 q 386 299 386 279 l 386 656 l 757 656 l 757 499 l 622 499 l 622 285 q 573 148 622 188 q 399 108 524 108 l 279 108 q 105 148 154 108 q 56 285 56 188 l 56 656 m 264 17 l 433 17 l 433 -162 l 264 -162 l 264 17 z "},"८":{"ha":692,"x_min":49,"x_max":643,"o":"m 281 349 l 281 201 q 289 178 281 186 q 315 171 297 171 l 358 171 l 358 0 l 253 0 q 95 47 142 0 q 49 172 49 94 l 49 311 q 62 400 49 364 q 114 454 75 436 q 62 517 75 476 q 49 611 49 557 l 49 719 q 95 844 49 797 q 253 892 142 892 l 354 892 l 354 721 l 315 721 q 289 713 297 721 q 281 690 281 706 l 281 556 q 289 533 281 540 q 315 525 297 525 l 349 525 l 349 379 l 315 379 q 289 372 297 379 q 281 349 281 364 m 411 556 l 411 690 q 403 713 411 706 q 376 721 394 721 l 347 721 l 347 892 l 439 892 q 597 844 550 892 q 643 719 643 797 l 643 611 q 630 517 643 557 q 576 454 617 476 q 630 400 617 436 q 643 311 643 364 l 643 172 q 597 47 643 94 q 439 0 550 0 l 351 0 l 351 171 l 376 171 q 403 178 394 171 q 411 201 411 186 l 411 349 q 403 372 411 364 q 376 379 394 379 l 342 379 l 342 525 l 376 525 q 403 533 394 525 q 411 556 411 540 z "},"५":{"ha":692,"x_min":56,"x_max":650,"o":"m 299 313 l 299 204 q 307 181 299 189 q 333 174 315 174 l 376 174 q 403 181 394 174 q 411 204 411 189 l 411 383 q 403 406 411 399 q 376 414 394 414 l 210 414 l 210 588 l 446 588 q 603 540 557 588 q 650 415 650 493 l 650 172 q 603 47 650 94 q 446 0 557 0 l 260 0 q 102 47 149 0 q 56 172 56 94 l 56 313 l 299 313 m 306 414 l 67 414 l 67 892 l 636 892 l 636 718 l 306 718 l 306 414 z "},"४":{"ha":704,"x_min":14,"x_max":704,"o":"m 79 160 l 79 336 l 704 336 l 704 160 l 79 160 m 14 160 l 14 375 l 349 892 l 593 892 l 121 160 l 14 160 m 382 513 l 610 513 l 610 0 l 382 0 l 382 513 z "},"९":{"ha":686,"x_min":42,"x_max":635,"o":"m 278 688 l 278 533 q 286 510 278 518 q 313 503 294 503 l 458 503 l 458 343 l 246 343 q 88 390 135 343 q 42 515 42 438 l 42 719 q 88 844 42 797 q 246 892 135 892 l 344 892 l 344 718 l 313 718 q 286 710 294 718 q 278 688 278 703 m 399 204 l 399 688 q 390 710 399 703 q 364 718 382 718 l 332 718 l 332 892 l 431 892 q 588 844 542 892 q 635 719 635 797 l 635 172 q 588 47 635 94 q 431 0 542 0 l 332 0 l 332 174 l 364 174 q 390 181 382 174 q 399 204 399 189 m 289 265 l 289 204 q 297 181 289 189 q 324 174 306 174 l 353 174 l 353 0 l 257 0 q 99 47 146 0 q 53 172 53 94 l 53 265 l 289 265 z "},"१":{"ha":449,"x_min":25,"x_max":393,"o":"m 311 892 l 311 718 l 25 718 l 25 892 l 311 892 m 150 892 l 393 892 l 393 0 l 150 0 l 150 892 z "},"७":{"ha":586,"x_min":14,"x_max":579,"o":"m 526 892 l 526 704 l 14 704 l 14 892 l 526 892 m 579 892 l 579 760 l 308 0 l 57 0 l 389 892 l 579 892 z "},"६":{"ha":686,"x_min":51,"x_max":644,"o":"m 408 204 l 408 338 q 400 360 408 353 q 374 368 392 368 l 228 368 l 228 535 l 440 535 q 598 488 551 535 q 644 363 644 440 l 644 172 q 598 47 644 94 q 440 0 551 0 l 342 0 l 342 174 l 374 174 q 400 181 392 174 q 408 204 408 189 m 288 688 l 288 204 q 296 181 288 189 q 322 174 304 174 l 354 174 l 354 0 l 256 0 q 98 47 144 0 q 51 172 51 94 l 51 719 q 98 844 51 797 q 256 892 144 892 l 354 892 l 354 718 l 322 718 q 296 710 304 718 q 288 688 288 703 m 394 619 l 394 688 q 386 710 394 703 q 360 718 378 718 l 333 718 l 333 892 l 426 892 q 584 844 538 892 q 631 719 631 797 l 631 619 l 394 619 z "},"३":{"ha":663,"x_min":35,"x_max":614,"o":"m 278 688 l 278 600 l 35 600 l 35 719 q 81 844 35 797 q 239 892 128 892 l 410 892 q 567 844 521 892 q 614 719 614 797 l 614 611 q 601 517 614 557 q 547 454 588 476 q 601 400 588 436 q 614 311 614 364 l 614 172 q 567 47 614 94 q 410 0 521 0 l 239 0 q 81 47 128 0 q 35 172 35 94 l 35 292 l 278 292 l 278 204 q 286 181 278 189 q 313 174 294 174 l 340 174 q 367 181 358 174 q 375 204 375 189 l 375 342 q 367 365 375 357 q 340 372 358 372 l 228 372 l 228 532 l 340 532 q 367 540 358 532 q 375 563 375 547 l 375 688 q 367 710 375 703 q 340 718 358 718 l 313 718 q 286 710 294 718 q 278 688 278 703 z "},"२":{"ha":651,"x_min":32,"x_max":611,"o":"m 275 688 l 275 586 l 32 586 l 32 719 q 78 844 32 797 q 236 892 125 892 l 404 892 q 563 844 515 892 q 611 719 611 797 l 611 592 q 587 469 611 519 q 514 367 563 419 l 342 174 l 611 174 l 611 0 l 39 0 l 39 158 l 303 442 q 358 517 344 486 q 372 593 372 547 l 372 688 q 364 710 372 703 q 338 718 356 718 l 310 718 q 283 710 292 718 q 275 688 275 703 z "},"०":{"ha":696,"x_min":51,"x_max":644,"o":"m 644 719 l 644 172 q 598 47 644 94 q 440 0 551 0 l 256 0 q 98 47 144 0 q 51 172 51 94 l 51 719 q 98 844 51 797 q 256 892 144 892 l 440 892 q 598 844 551 892 q 644 719 644 797 m 401 204 l 401 688 q 393 710 401 703 q 367 718 385 718 l 329 718 q 303 710 311 718 q 294 688 294 703 l 294 204 q 303 181 294 189 q 329 174 311 174 l 367 174 q 393 181 385 174 q 401 204 401 189 z "},"⁄":{"ha":571,"x_min":-28,"x_max":599,"o":"m 399 975 l 599 975 l 172 -83 l -28 -83 l 399 975 z "},"¹":{"ha":303,"x_min":14,"x_max":235,"o":"m 171 892 l 171 796 l 14 796 l 14 892 l 171 892 m 82 892 l 235 892 l 235 401 l 82 401 l 82 892 z "},"³":{"ha":393,"x_min":18,"x_max":364,"o":"m 165 779 l 165 732 l 18 732 l 18 797 q 44 866 18 840 q 131 892 69 892 l 251 892 q 338 866 313 892 q 364 797 364 840 l 364 732 q 357 679 364 701 q 328 646 350 657 q 357 616 350 636 q 364 567 364 596 l 364 496 q 338 427 364 453 q 251 401 313 401 l 131 401 q 44 427 69 401 q 18 496 18 453 l 18 563 l 165 563 l 165 514 q 170 501 165 506 q 185 497 175 497 l 200 497 q 214 501 210 497 q 218 514 218 506 l 218 583 q 214 597 218 593 q 200 600 210 600 l 149 600 l 149 689 l 200 689 q 214 693 210 689 q 218 706 218 697 l 218 779 q 214 792 218 788 q 200 796 210 796 l 185 796 q 170 792 175 796 q 165 779 165 788 z "},"²":{"ha":399,"x_min":18,"x_max":364,"o":"m 165 779 l 165 710 l 18 710 l 18 797 q 44 866 18 840 q 131 892 69 892 l 253 892 q 339 866 314 892 q 364 797 364 840 l 364 739 q 348 653 364 688 q 303 593 332 619 l 201 503 l 364 503 l 364 401 l 21 401 l 21 490 l 188 644 q 213 679 208 664 q 218 728 218 694 l 218 779 q 214 792 218 788 q 200 796 210 796 l 185 796 q 170 792 175 796 q 165 779 165 788 z "},"\r":{"ha":278,"x_min":0,"x_max":0,"o":""},"\u0000":{"ha":0,"x_min":0,"x_max":0,"o":""},"‍":{"ha":0,"x_min":0,"x_max":0,"o":""},"﻿":{"ha":0,"x_min":0,"x_max":0,"o":""},"‌":{"ha":0,"x_min":-32,"x_max":33,"o":"m 33 -319 l -32 -319 l -32 1126 l 33 1126 l 33 -319 z "}," ":{"ha":278,"x_min":0,"x_max":0,"o":""}," ":{"ha":278,"x_min":0,"x_max":0,"o":""},"​":{"ha":0,"x_min":0,"x_max":0,"o":""},"॰":{"ha":551,"x_min":69,"x_max":482,"o":"m 69 443 q 126 599 69 547 q 275 650 182 650 q 426 599 369 650 q 482 443 482 547 q 426 288 482 339 q 275 236 369 236 q 126 288 182 236 q 69 443 69 339 m 232 443 q 243 381 232 396 q 275 365 254 365 q 308 381 296 365 q 319 443 319 396 q 309 506 319 490 q 275 521 299 521 q 242 506 253 521 q 232 443 232 490 z "},"।":{"ha":569,"x_min":167,"x_max":403,"o":"m 403 936 l 403 -44 l 167 -44 l 167 936 l 403 936 z "},"॥":{"ha":903,"x_min":167,"x_max":736,"o":"m 403 936 l 403 -44 l 167 -44 l 167 936 l 403 936 m 736 936 l 736 -44 l 500 -44 l 500 936 l 736 936 z "},"*":{"ha":542,"x_min":25,"x_max":518,"o":"m 293 661 l 250 661 q 234 684 250 661 q 201 753 218 707 q 185 869 185 800 l 185 892 l 358 892 l 358 868 q 342 753 358 800 q 310 684 326 707 q 293 661 293 661 m 278 682 l 265 640 q 238 632 265 640 q 162 622 211 624 q 46 643 113 621 l 25 650 l 79 814 l 101 807 q 206 757 167 786 q 261 705 244 728 q 278 682 278 682 m 254 674 l 289 649 q 289 620 289 649 q 275 544 289 592 q 219 440 261 497 l 206 422 l 65 524 l 81 544 q 160 627 121 600 q 227 664 200 654 q 254 674 254 674 m 254 649 l 289 674 q 316 665 289 674 q 384 628 343 656 q 465 543 425 600 l 479 525 l 339 424 l 324 443 q 270 545 285 499 q 255 620 256 592 q 254 649 254 649 m 278 640 l 265 682 q 282 705 265 682 q 338 758 299 728 q 443 808 378 788 l 465 815 l 518 651 l 496 643 q 383 623 432 622 q 306 632 333 624 q 278 640 278 640 z "},"\\":{"ha":571,"x_min":-28,"x_max":599,"o":"m -28 975 l 172 975 l 599 -83 l 399 -83 l -28 975 z "},"•":{"ha":550,"x_min":69,"x_max":481,"o":"m 69 446 q 97 549 69 503 q 172 624 125 596 q 275 651 219 651 q 378 624 332 651 q 453 549 425 596 q 481 446 481 503 q 453 343 481 390 q 378 268 425 296 q 275 240 332 240 q 172 268 219 240 q 97 343 125 296 q 69 446 69 390 z "},":":{"ha":350,"x_min":56,"x_max":294,"o":"m 56 465 l 56 693 l 294 693 l 294 465 l 56 465 m 56 0 l 56 228 l 294 228 l 294 0 l 56 0 z "},",":{"ha":350,"x_min":56,"x_max":294,"o":"m 56 228 l 294 228 l 294 103 l 128 -207 l 56 -207 l 56 228 z "},"…":{"ha":1044,"x_min":56,"x_max":989,"o":"m 56 0 l 56 228 l 294 228 l 294 0 l 56 0 m 403 0 l 403 228 l 642 228 l 642 0 l 403 0 m 750 0 l 750 228 l 989 228 l 989 0 l 750 0 z "},"!":{"ha":413,"x_min":69,"x_max":343,"o":"m 69 892 l 343 892 l 301 324 l 111 324 l 69 892 m 86 0 l 86 228 l 325 228 l 325 0 l 86 0 z "},"¡":{"ha":413,"x_min":69,"x_max":343,"o":"m 69 -199 l 111 369 l 301 369 l 343 -199 l 69 -199 m 86 693 l 325 693 l 325 465 l 86 465 l 86 693 z "},"#":{"ha":942,"x_min":42,"x_max":900,"o":"m 300 890 l 501 890 l 301 0 l 99 0 l 300 890 m 900 693 l 900 540 l 107 540 l 107 693 l 900 693 m 642 0 l 440 0 l 640 890 l 843 890 l 642 0 m 42 197 l 42 350 l 835 350 l 835 197 l 42 197 z "},".":{"ha":350,"x_min":56,"x_max":294,"o":"m 56 0 l 56 228 l 294 228 l 294 0 l 56 0 z "},"·":{"ha":378,"x_min":68,"x_max":307,"o":"m 68 358 l 68 572 l 307 572 l 307 358 l 68 358 z "},"?":{"ha":651,"x_min":28,"x_max":624,"o":"m 381 567 l 381 701 q 372 724 381 717 q 346 732 364 732 l 315 732 l 315 892 l 419 892 q 577 844 531 892 q 624 719 624 797 l 624 581 q 577 456 624 503 q 419 408 531 408 l 269 408 l 269 536 l 346 536 q 372 544 364 536 q 381 567 381 551 m 193 536 l 439 536 l 417 324 l 214 324 l 193 536 m 193 0 l 193 228 l 432 228 l 432 0 l 193 0 m 271 701 l 271 607 l 28 607 l 28 719 q 74 844 28 797 q 232 892 121 892 l 319 892 l 319 732 l 306 732 q 279 724 288 732 q 271 701 271 717 z "},"¿":{"ha":651,"x_min":28,"x_max":624,"o":"m 271 126 l 271 -8 q 279 -31 271 -24 q 306 -39 288 -39 l 336 -39 l 336 -199 l 232 -199 q 74 -151 121 -199 q 28 -26 28 -104 l 28 113 q 74 238 28 190 q 232 285 121 285 l 382 285 l 382 157 l 306 157 q 279 149 288 157 q 271 126 271 142 m 458 157 l 213 157 l 235 369 l 438 369 l 458 157 m 458 693 l 458 465 l 219 465 l 219 693 l 458 693 m 381 -8 l 381 86 l 624 86 l 624 -26 q 577 -151 624 -104 q 419 -199 531 -199 l 332 -199 l 332 -39 l 346 -39 q 372 -31 364 -39 q 381 -8 381 -24 z "},";":{"ha":350,"x_min":56,"x_max":294,"o":"m 56 228 l 294 228 l 294 103 l 128 -207 l 56 -207 l 56 228 m 56 465 l 56 693 l 294 693 l 294 465 l 56 465 z "},"/":{"ha":571,"x_min":-28,"x_max":599,"o":"m 399 975 l 599 975 l 172 -83 l -28 -83 l 399 975 z "},"—":{"ha":1040,"x_min":64,"x_max":964,"o":"m 64 340 l 64 500 l 964 500 l 964 340 l 64 340 z "},"–":{"ha":843,"x_min":64,"x_max":632,"o":"m 64 340 l 64 500 l 632 500 l 632 340 l 64 340 z "},"-":{"ha":476,"x_min":28,"x_max":449,"o":"m 28 340 l 28 500 l 449 500 l 449 340 l 28 340 z "},"­":{"ha":476,"x_min":28,"x_max":449,"o":"m 28 340 l 28 500 l 449 500 l 449 340 l 28 340 z "},"_":{"ha":658,"x_min":0,"x_max":658,"o":"m 0 -215 l 0 -56 l 658 -56 l 658 -215 l 0 -215 z "},"{":{"ha":453,"x_min":22,"x_max":439,"o":"m 368 908 l 368 615 q 336 492 368 531 q 260 442 304 453 q 338 398 308 439 q 368 283 368 357 l 368 -26 q 376 -49 368 -42 q 403 -57 385 -57 l 439 -57 l 439 -217 l 329 -217 q 172 -162 218 -217 q 125 -31 125 -108 l 125 250 q 104 334 125 307 q 32 361 83 361 l 22 361 l 22 521 l 32 521 q 104 548 83 521 q 125 635 125 575 l 125 913 q 172 1044 125 990 q 329 1099 218 1099 l 439 1099 l 439 939 l 403 939 q 376 931 385 939 q 368 908 368 924 z "},"}":{"ha":453,"x_min":14,"x_max":431,"o":"m 85 615 l 85 908 q 76 931 85 924 q 50 939 68 939 l 14 939 l 14 1099 l 124 1099 q 281 1044 235 1099 q 328 913 328 990 l 328 635 q 349 548 328 575 q 421 521 369 521 l 431 521 l 431 361 l 421 361 q 349 334 369 361 q 328 250 328 307 l 328 -31 q 281 -162 328 -108 q 124 -217 235 -217 l 14 -217 l 14 -57 l 50 -57 q 76 -49 68 -57 q 85 -26 85 -42 l 85 283 q 115 398 85 357 q 193 442 146 439 q 117 492 150 453 q 85 615 85 531 z "},"[":{"ha":440,"x_min":56,"x_max":426,"o":"m 138 925 l 138 1099 l 426 1099 l 426 925 l 138 925 m 56 1099 l 299 1099 l 299 -218 l 56 -218 l 56 1099 m 138 -218 l 138 -44 l 426 -44 l 426 -218 l 138 -218 z "},"]":{"ha":440,"x_min":14,"x_max":385,"o":"m 303 1099 l 303 925 l 14 925 l 14 1099 l 303 1099 m 142 1099 l 385 1099 l 385 -218 l 142 -218 l 142 1099 m 303 -44 l 303 -218 l 14 -218 l 14 -44 l 303 -44 z "},"(":{"ha":468,"x_min":56,"x_max":454,"o":"m 56 690 q 158 1008 56 900 q 442 1117 260 1117 l 454 1117 l 454 915 l 442 915 q 372 896 404 915 q 319 828 339 876 q 299 694 299 781 l 299 192 q 319 58 299 106 q 372 -10 339 10 q 442 -29 404 -29 l 454 -29 l 454 -231 l 442 -231 q 158 -122 260 -231 q 56 196 56 -14 l 56 690 z "},")":{"ha":468,"x_min":14,"x_max":413,"o":"m 413 196 q 310 -122 413 -14 q 26 -231 208 -231 l 14 -231 l 14 -29 l 26 -29 q 97 -10 65 -29 q 149 58 129 10 q 169 192 169 106 l 169 694 q 149 828 169 781 q 97 896 129 876 q 26 915 65 915 l 14 915 l 14 1117 l 26 1117 q 310 1008 208 1117 q 413 690 413 900 l 413 196 z "},"«":{"ha":696,"x_min":21,"x_max":689,"o":"m 174 133 l 21 346 l 174 556 l 394 556 l 246 346 l 394 133 l 174 133 m 468 133 l 315 346 l 468 556 l 689 556 l 540 346 l 689 133 l 468 133 z "},"»":{"ha":696,"x_min":21,"x_max":689,"o":"m 394 346 l 242 133 l 21 133 l 169 346 l 21 556 l 242 556 l 394 346 m 689 346 l 536 133 l 315 133 l 464 346 l 315 556 l 536 556 l 689 346 z "},"‹":{"ha":415,"x_min":21,"x_max":408,"o":"m 174 133 l 21 346 l 174 556 l 408 556 l 260 346 l 408 133 l 174 133 z "},"›":{"ha":415,"x_min":21,"x_max":408,"o":"m 408 346 l 256 133 l 21 133 l 169 346 l 21 556 l 256 556 l 408 346 z "},"\"":{"ha":603,"x_min":56,"x_max":547,"o":"m 56 892 l 268 892 l 268 522 l 56 522 l 56 892 m 335 892 l 547 892 l 547 522 l 335 522 l 335 892 z "},"„":{"ha":644,"x_min":56,"x_max":589,"o":"m 56 228 l 294 228 l 294 103 l 118 -207 l 56 -207 l 56 228 m 350 228 l 589 228 l 589 103 l 413 -207 l 350 -207 l 350 228 z "},"“":{"ha":644,"x_min":56,"x_max":589,"o":"m 589 457 l 350 457 l 350 582 l 526 892 l 589 892 l 589 457 m 294 457 l 56 457 l 56 582 l 232 892 l 294 892 l 294 457 z "},"”":{"ha":644,"x_min":56,"x_max":589,"o":"m 56 892 l 294 892 l 294 767 l 118 457 l 56 457 l 56 892 m 350 892 l 589 892 l 589 767 l 413 457 l 350 457 l 350 892 z "},"‘":{"ha":353,"x_min":56,"x_max":297,"o":"m 297 457 l 56 457 l 56 582 l 232 892 l 297 892 l 297 457 z "},"’":{"ha":353,"x_min":56,"x_max":297,"o":"m 56 892 l 297 892 l 297 767 l 121 457 l 56 457 l 56 892 z "},"‚":{"ha":350,"x_min":56,"x_max":294,"o":"m 56 228 l 294 228 l 294 103 l 128 -207 l 56 -207 l 56 228 z "},"'":{"ha":338,"x_min":56,"x_max":282,"o":"m 56 892 l 282 892 l 282 522 l 56 522 l 56 892 z "},"ƒ":{"ha":624,"x_min":11,"x_max":575,"o":"m 467 725 l 356 -32 q 329 -122 349 -83 q 268 -183 310 -161 q 151 -204 226 -204 l 11 -204 l 11 -31 l 85 -31 q 110 -23 103 -31 q 119 0 118 -15 l 231 757 q 258 847 239 808 q 319 908 278 886 q 435 929 361 929 l 575 929 l 575 756 l 501 756 q 476 748 483 756 q 467 725 469 740 m 574 693 l 574 519 l 104 519 l 104 693 l 574 693 z "},"ऽ":{"ha":642,"x_min":42,"x_max":600,"o":"m 547 749 l 318 749 q 294 742 303 749 q 286 721 286 736 l 286 582 q 294 560 286 567 q 318 554 303 554 l 406 554 q 560 518 519 554 q 600 406 600 482 l 600 149 q 560 36 600 72 q 406 0 519 0 l 236 0 q 82 36 122 0 q 42 149 42 72 l 42 221 l 278 221 l 278 171 q 285 149 278 156 q 301 143 292 143 l 332 143 q 356 149 347 143 q 364 171 364 156 l 364 383 q 356 405 364 399 q 332 411 347 411 l 244 411 q 90 447 131 411 q 50 560 50 483 l 50 743 q 90 856 50 819 q 244 892 131 892 l 547 892 l 547 749 z "},"ॐ":{"ha":1331,"x_min":69,"x_max":1261,"o":"m 661 990 l 831 990 l 831 811 l 661 811 l 661 990 m 551 751 l 856 751 q 885 759 876 751 q 894 788 894 767 l 894 888 l 1131 888 l 1131 757 q 1090 638 1131 681 q 936 594 1050 594 l 551 594 l 551 751 m 433 892 q 588 849 547 892 q 628 729 628 806 l 628 579 q 615 528 628 543 q 576 513 601 513 l 578 528 l 1067 528 q 1221 485 1181 528 q 1261 365 1261 442 l 1261 163 q 1221 43 1261 86 q 1067 0 1181 0 l 897 0 q 743 43 783 0 q 703 163 703 86 l 703 304 l 939 304 l 939 185 q 947 163 939 169 q 971 157 956 157 l 993 157 q 1017 163 1008 157 q 1025 185 1025 169 l 1025 340 q 1017 362 1025 356 q 993 368 1008 368 l 578 368 l 576 383 q 615 368 601 383 q 628 317 628 353 l 628 163 q 588 43 628 86 q 433 0 547 0 l 264 0 q 110 43 150 0 q 69 163 69 86 l 69 328 l 306 328 l 306 185 q 314 163 306 169 q 338 157 322 157 l 360 157 q 383 163 375 157 q 392 185 392 169 l 392 335 q 383 361 392 354 q 360 368 375 368 l 314 368 l 314 525 l 360 525 q 383 532 375 525 q 392 558 392 539 l 392 707 q 383 728 392 722 q 360 735 375 735 l 338 735 q 314 728 322 735 q 306 707 306 722 l 306 579 l 69 579 l 69 729 q 110 849 69 806 q 264 892 150 892 l 433 892 z "},"&":{"ha":868,"x_min":42,"x_max":919,"o":"m 919 -50 l 678 -50 l 189 458 q 114 548 136 514 q 92 625 92 582 l 92 719 q 138 844 92 797 q 296 892 185 892 l 458 892 q 614 844 569 892 q 658 719 658 797 l 658 625 q 642 536 658 571 q 592 476 625 501 q 513 421 560 450 l 303 301 q 279 281 288 292 q 271 249 271 269 l 271 190 q 279 167 271 175 q 306 160 288 160 l 603 160 q 629 167 621 160 q 638 190 638 175 l 638 349 l 829 349 l 829 172 q 777 47 829 94 q 614 0 725 0 l 246 0 q 88 47 135 0 q 42 172 42 94 l 42 253 q 54 333 42 301 q 95 388 67 364 q 172 439 124 413 l 351 540 q 410 578 392 564 q 429 621 429 593 l 429 706 q 421 728 429 721 q 394 736 413 736 l 363 736 q 336 728 344 736 q 328 706 328 721 l 328 615 q 335 577 328 592 q 363 542 342 563 q 424 479 383 522 l 919 -50 z "},"@":{"ha":1199,"x_min":56,"x_max":1135,"o":"m 343 450 q 383 564 343 521 q 511 607 422 607 l 533 607 q 610 585 582 607 q 649 526 639 564 l 649 607 l 836 607 l 836 256 l 897 256 q 924 263 915 256 q 932 286 932 271 l 932 668 q 924 691 932 683 q 897 699 915 699 l 299 699 q 272 691 281 699 q 264 668 264 683 l 264 46 q 272 23 264 31 q 299 15 281 15 l 838 15 l 838 -144 l 240 -144 q 99 -97 142 -144 q 56 28 56 -50 l 56 686 q 99 811 56 764 q 240 858 142 858 l 953 858 q 1093 811 1051 858 q 1135 686 1135 764 l 1135 283 q 1092 158 1135 206 q 950 111 1049 111 l 650 111 l 650 196 q 613 134 642 157 q 533 111 585 111 l 511 111 q 383 154 422 111 q 343 268 343 197 l 343 450 m 546 433 l 546 285 q 553 264 546 271 q 576 257 561 257 l 611 257 q 636 266 628 257 q 644 294 644 275 l 644 424 q 636 452 644 443 q 611 461 628 461 l 576 461 q 553 455 561 461 q 546 433 546 449 z "},"|":{"ha":369,"x_min":69,"x_max":285,"o":"m 69 1157 l 285 1157 l 285 -268 l 69 -268 l 69 1157 z "},"¦":{"ha":369,"x_min":56,"x_max":299,"o":"m 56 364 l 299 364 l 299 -129 l 56 -129 l 56 364 m 299 525 l 56 525 l 56 1018 l 299 1018 l 299 525 z "},"©":{"ha":1072,"x_min":42,"x_max":1031,"o":"m 1031 469 l 1031 422 q 1000 202 1031 297 q 892 53 969 107 q 672 0 815 0 l 400 0 q 181 53 258 0 q 72 202 103 107 q 42 422 42 297 l 42 469 q 72 690 42 596 q 181 838 103 785 q 400 892 258 892 l 672 892 q 892 838 815 892 q 1000 690 969 785 q 1031 469 1031 596 m 446 138 l 626 138 q 752 156 703 138 q 826 231 801 175 q 850 397 850 288 l 850 494 q 826 661 850 606 q 752 735 801 717 q 626 754 703 754 l 446 754 q 321 735 371 754 q 247 661 271 717 q 222 494 222 606 l 222 397 q 247 231 222 288 q 321 156 271 175 q 446 138 371 138 m 574 361 l 574 408 l 736 408 l 736 333 q 704 248 736 281 q 596 215 672 215 l 479 215 q 371 248 403 215 q 339 333 339 281 l 339 560 q 371 645 339 613 q 479 678 403 678 l 596 678 q 704 645 672 678 q 736 560 736 613 l 736 486 l 574 486 l 574 532 q 567 548 574 543 q 550 553 561 553 l 525 553 q 507 548 513 553 q 501 532 501 543 l 501 361 q 507 346 501 351 q 525 340 513 340 l 550 340 q 567 346 561 340 q 574 361 574 351 z "},"†":{"ha":631,"x_min":14,"x_max":617,"o":"m 193 892 l 436 892 l 436 -151 l 193 -151 l 193 892 m 617 681 l 617 521 l 14 521 l 14 681 l 617 681 z "},"‡":{"ha":672,"x_min":35,"x_max":638,"o":"m 214 892 l 457 892 l 457 -190 l 214 -190 l 214 892 m 638 681 l 638 521 l 35 521 l 35 681 l 638 681 m 638 181 l 638 21 l 35 21 l 35 181 l 638 181 z "},"°":{"ha":672,"x_min":56,"x_max":617,"o":"m 617 719 l 617 593 q 574 468 617 515 q 419 421 531 421 l 253 421 q 99 468 142 421 q 56 593 56 515 l 56 719 q 99 844 56 797 q 253 892 142 892 l 419 892 q 574 844 531 892 q 617 719 617 797 m 397 597 l 397 715 q 389 738 397 731 q 363 746 381 746 l 310 746 q 283 738 292 746 q 275 715 275 731 l 275 597 q 283 574 275 582 q 310 567 292 567 l 363 567 q 389 574 381 567 q 397 597 397 582 z "},"℮":{"ha":833,"x_min":47,"x_max":808,"o":"m 192 325 l 808 325 l 808 333 q 757 507 808 429 q 619 631 706 585 q 426 678 532 678 q 280 651 349 678 q 159 576 211 624 q 77 467 107 529 q 47 333 47 404 q 77 201 47 263 q 159 93 107 140 q 280 19 211 46 q 426 -7 349 -7 q 599 29 521 -7 q 728 125 676 65 l 674 125 q 565 43 629 74 q 428 13 501 13 q 300 40 360 13 q 194 114 240 67 q 188 135 188 124 l 188 322 q 192 325 188 325 m 668 538 l 668 350 q 664 343 668 343 l 192 343 q 188 350 188 343 l 188 533 q 196 557 188 547 q 301 629 242 601 q 428 657 360 657 q 555 631 496 657 q 660 560 614 604 q 668 538 668 551 z "},"¶":{"ha":790,"x_min":38,"x_max":721,"o":"m 407 892 l 407 292 l 242 292 q 84 339 131 292 q 38 464 38 386 l 38 719 q 84 844 38 797 q 242 892 131 892 l 407 892 m 272 892 l 460 892 l 460 -179 l 272 -179 l 272 892 m 533 892 l 721 892 l 721 -179 l 533 -179 l 533 892 z "},"®":{"ha":664,"x_min":42,"x_max":622,"o":"m 622 772 l 622 746 q 604 616 622 672 q 540 528 586 560 q 411 497 494 497 l 251 497 q 123 528 168 497 q 60 616 78 560 q 42 746 42 672 l 42 772 q 60 903 42 847 q 123 990 78 958 q 251 1021 168 1021 l 411 1021 q 540 990 494 1021 q 604 903 586 958 q 622 772 622 847 m 279 583 l 385 583 q 458 593 429 583 q 501 635 488 603 q 515 731 515 667 l 515 789 q 501 884 515 853 q 458 925 488 915 q 385 935 429 935 l 279 935 q 206 925 235 935 q 162 884 176 915 q 147 789 147 853 l 147 731 q 162 635 147 667 q 206 593 176 603 q 279 583 235 583 m 235 892 l 368 892 q 419 876 404 892 q 435 836 435 861 l 435 778 q 397 724 435 736 l 451 629 l 365 629 l 319 721 l 314 721 l 314 629 l 235 629 l 235 892 m 356 788 l 356 826 q 344 836 356 836 l 314 836 l 314 778 l 344 778 q 356 788 356 778 z "},"§":{"ha":750,"x_min":83,"x_max":667,"o":"m 356 213 l 356 322 l 399 322 q 425 330 417 322 q 433 353 433 338 l 433 469 q 425 492 433 485 q 399 500 417 500 l 300 500 q 142 547 189 500 q 96 672 96 594 l 96 757 q 142 882 96 835 q 300 929 189 929 l 463 929 q 620 882 574 929 q 667 757 667 835 l 667 711 l 431 711 l 431 746 q 422 769 431 761 q 396 776 414 776 l 367 776 q 340 769 349 776 q 332 746 332 761 l 332 690 q 340 667 332 675 q 367 660 349 660 l 451 660 q 609 613 563 660 q 656 488 656 565 l 656 389 q 615 258 656 304 q 463 213 575 213 l 356 213 m 394 589 l 394 500 l 351 500 q 325 492 333 500 q 317 469 317 485 l 317 353 q 325 330 317 338 q 351 322 333 322 l 450 322 q 608 275 561 322 q 654 150 654 228 l 654 65 q 608 -60 654 -12 q 450 -107 561 -107 l 288 -107 q 130 -60 176 -107 q 83 65 83 -12 l 83 111 l 319 111 l 319 76 q 328 53 319 61 q 354 46 336 46 l 383 46 q 410 53 401 46 q 418 76 418 61 l 418 132 q 410 155 418 147 q 383 163 401 163 l 299 163 q 141 210 188 163 q 94 335 94 257 l 94 414 q 135 544 94 499 q 286 589 175 589 l 394 589 z "},"™":{"ha":1015,"x_min":14,"x_max":974,"o":"m 133 808 l 301 808 l 301 431 l 133 431 l 133 808 m 422 892 l 422 760 l 14 760 l 14 892 l 422 892 m 460 892 l 626 892 l 717 636 l 807 892 l 974 892 l 974 431 l 828 431 l 828 654 l 774 490 l 658 490 l 606 651 l 606 431 l 460 431 l 460 892 z "},"ℓ":{"ha":960,"x_min":146,"x_max":901,"o":"m 651 735 l 632 735 q 607 728 617 735 q 597 701 597 721 l 597 190 q 607 164 597 171 q 632 157 617 157 l 857 157 l 857 0 l 585 0 q 410 40 460 0 q 361 176 361 79 l 361 715 q 410 852 361 813 q 585 892 460 892 l 682 892 q 806 865 757 892 q 878 795 854 838 q 901 706 901 753 q 873 586 901 638 q 788 494 844 535 l 146 43 l 146 242 l 618 575 q 674 624 650 597 q 699 682 699 651 q 687 721 699 707 q 651 735 675 735 z "},"€":{"ha":717,"x_min":21,"x_max":682,"o":"m 321 701 l 321 190 q 329 167 321 175 q 356 160 338 160 l 392 160 l 392 0 l 282 0 q 124 47 171 0 q 78 172 78 94 l 78 719 q 124 844 78 797 q 282 892 171 892 l 392 892 l 392 732 l 356 732 q 329 724 338 732 q 321 701 321 717 m 439 558 l 439 701 q 431 724 439 717 q 404 732 422 732 l 368 732 l 368 892 l 478 892 q 635 844 589 892 q 682 719 682 797 l 682 558 l 439 558 m 439 190 l 439 328 l 682 328 l 682 172 q 635 47 682 94 q 478 0 589 0 l 368 0 l 368 160 l 404 160 q 431 167 422 160 q 439 190 439 175 m 403 424 l 403 290 l 21 290 l 21 424 l 403 424 m 403 601 l 403 468 l 21 468 l 21 601 l 403 601 z "},"¢":{"ha":626,"x_min":42,"x_max":599,"o":"m 278 489 l 278 204 q 286 181 278 189 q 313 174 294 174 l 340 174 l 340 0 l 246 0 q 88 47 135 0 q 42 172 42 94 l 42 521 q 88 646 42 599 q 246 693 135 693 l 339 693 l 339 519 l 313 519 q 286 512 294 519 q 278 489 278 504 m 371 425 l 371 489 q 363 512 371 504 q 336 519 354 519 l 319 519 l 319 693 l 394 693 q 552 646 506 693 q 599 521 599 599 l 599 425 l 371 425 m 371 204 l 371 268 l 599 268 l 599 172 q 552 47 599 94 q 394 0 506 0 l 319 0 l 319 174 l 336 174 q 363 181 354 174 q 371 204 371 189 m 438 603 l 208 603 l 208 804 l 438 804 l 438 603 m 438 -111 l 208 -111 l 208 99 l 438 99 l 438 -111 z "},"¤":{"ha":826,"x_min":44,"x_max":750,"o":"m 706 453 l 706 381 q 684 244 706 303 q 608 155 663 186 q 453 124 553 124 l 349 124 q 194 155 249 124 q 117 244 139 186 q 96 381 96 303 l 96 453 q 117 590 96 532 q 194 679 139 647 q 349 711 249 711 l 453 711 q 608 679 553 711 q 684 590 663 647 q 706 453 706 532 m 389 275 l 410 275 q 490 293 463 275 q 517 381 517 311 l 517 451 q 490 540 517 521 q 410 558 463 558 l 389 558 q 308 540 335 558 q 282 451 282 521 l 282 381 q 308 293 282 311 q 389 275 335 275 m 335 667 l 192 526 l 44 674 l 185 815 l 335 667 m 603 526 l 460 667 l 610 815 l 750 674 l 603 526 m 192 335 l 335 194 l 185 46 l 44 188 l 192 335 m 460 194 l 603 335 l 750 188 l 610 46 l 460 194 z "},"$":{"ha":682,"x_min":42,"x_max":640,"o":"m 456 800 l 225 800 l 225 1010 l 456 1010 l 456 800 m 456 -117 l 225 -117 l 225 93 l 456 93 l 456 -117 m 397 204 l 397 331 q 389 353 397 346 q 363 361 381 361 l 229 361 q 81 410 121 361 q 42 536 42 458 l 42 719 q 88 844 42 797 q 244 892 133 892 l 435 892 q 592 844 546 892 q 638 719 638 797 l 638 613 l 394 613 l 394 688 q 386 710 394 703 q 360 718 378 718 l 319 718 q 293 710 301 718 q 285 688 285 703 l 285 556 q 293 533 285 540 q 319 525 301 525 l 450 525 q 599 479 558 525 q 640 356 640 433 l 640 172 q 594 47 640 94 q 438 0 549 0 l 249 0 q 91 47 138 0 q 44 172 44 94 l 44 279 l 288 279 l 288 204 q 296 181 288 189 q 322 174 304 174 l 363 174 q 389 181 381 174 q 397 204 397 189 z "},"₹":{"ha":633,"x_min":56,"x_max":578,"o":"m 578 672 l 578 535 l 56 535 l 56 672 l 578 672 m 578 892 l 578 754 l 56 754 l 56 892 l 578 892 m 385 781 q 444 774 425 781 q 470 745 464 767 q 476 678 476 724 l 476 472 q 425 334 476 374 q 242 296 374 294 l 213 296 l 268 350 l 504 0 l 254 0 l 56 296 l 56 453 l 208 453 q 232 460 224 453 q 240 486 240 467 l 240 724 q 232 747 240 739 q 206 754 224 754 l 385 781 z "},"£":{"ha":703,"x_min":28,"x_max":682,"o":"m 332 688 l 332 274 q 324 215 332 240 q 294 174 315 189 l 682 174 l 682 0 l 28 0 l 28 161 q 81 196 72 168 q 89 275 89 224 l 89 719 q 135 844 89 797 q 293 892 182 892 l 472 892 q 630 844 583 892 q 676 719 676 797 l 676 590 l 433 590 l 433 688 q 425 710 433 703 q 399 718 417 718 l 367 718 q 340 710 349 718 q 332 688 332 703 m 28 339 l 28 499 l 538 499 l 538 339 l 28 339 z "},"₺":{"ha":0,"x_min":-60,"x_max":624,"o":"m 388 425 l 624 425 l 624 172 q 581 47 624 94 q 439 0 538 0 l 271 0 l 249 174 l 353 174 q 379 181 371 174 q 388 204 388 189 l 388 425 m 56 929 l 292 929 l 292 132 l 288 132 l 288 0 l 56 0 l 56 929 m 404 651 l 404 492 l -60 269 l -60 429 l 404 651 m 404 874 l 404 714 l -60 492 l -60 651 l 404 874 z "},"¥":{"ha":735,"x_min":7,"x_max":728,"o":"m 250 513 l 250 367 l 60 367 l 60 513 l 250 513 m 683 513 l 683 367 l 493 367 l 493 513 l 683 513 m 685 319 l 685 174 l 60 174 l 60 319 l 685 319 m 479 249 l 269 249 l 7 892 l 256 892 l 372 515 l 481 892 l 728 892 l 479 249 m 253 378 l 496 378 l 496 0 l 253 0 l 253 378 z "},"≈":{"ha":782,"x_min":35,"x_max":747,"o":"m 500 465 q 434 477 463 465 q 383 505 406 489 q 337 533 360 521 q 289 544 314 544 q 258 534 265 544 q 250 500 250 524 l 250 465 l 35 465 l 35 556 q 70 661 35 628 q 189 694 106 694 l 282 694 q 360 683 328 694 q 415 655 392 671 q 456 627 438 639 q 493 615 475 615 q 524 626 517 615 q 532 660 532 636 l 532 694 l 747 694 l 747 604 q 712 499 747 532 q 593 465 676 465 l 500 465 m 500 193 q 434 205 463 193 q 383 233 406 217 q 337 260 360 249 q 289 272 314 272 q 258 262 265 272 q 250 228 250 251 l 250 193 l 35 193 l 35 283 q 70 389 35 356 q 189 422 106 422 l 282 422 q 360 410 328 422 q 415 383 392 399 q 456 355 438 367 q 493 343 475 343 q 524 353 517 343 q 532 388 532 364 l 532 422 l 747 422 l 747 332 q 712 226 747 260 q 593 193 676 193 l 500 193 z "},"^":{"ha":978,"x_min":128,"x_max":789,"o":"m 297 929 l 619 929 l 789 389 l 543 389 l 458 729 l 374 389 l 128 389 l 297 929 z "},"~":{"ha":999,"x_min":133,"x_max":860,"o":"m 613 283 q 544 299 575 283 q 488 337 514 315 q 438 374 463 358 q 388 390 413 390 q 356 380 364 390 q 349 346 349 369 l 349 283 l 133 283 l 133 401 q 169 507 133 474 q 288 540 204 540 l 381 540 q 460 524 426 540 q 520 487 494 508 q 567 449 546 465 q 606 433 588 433 q 637 444 629 433 q 644 478 644 454 l 644 540 l 860 540 l 860 422 q 824 317 860 350 q 706 283 789 283 l 613 283 z "},"∙":{"ha":350,"x_min":56,"x_max":294,"o":"m 56 332 l 56 560 l 294 560 l 294 332 l 56 332 z "},"÷":{"ha":740,"x_min":35,"x_max":706,"o":"m 35 357 l 35 531 l 706 531 l 706 357 l 35 357 m 257 746 l 483 746 l 483 586 l 257 586 l 257 746 m 257 301 l 483 301 l 483 142 l 257 142 l 257 301 z "},"∕":{"ha":571,"x_min":-28,"x_max":599,"o":"m 399 975 l 599 975 l 172 -83 l -28 -83 l 399 975 z "},"=":{"ha":740,"x_min":35,"x_max":706,"o":"m 35 501 l 35 681 l 706 681 l 706 501 l 35 501 m 35 207 l 35 386 l 706 386 l 706 207 l 35 207 z "},">":{"ha":740,"x_min":35,"x_max":706,"o":"m 472 449 l 35 558 l 35 744 l 706 553 l 706 350 l 35 147 l 35 336 l 472 449 z "},"≥":{"ha":740,"x_min":35,"x_max":706,"o":"m 542 596 l 35 636 l 35 811 l 706 703 l 706 494 l 35 375 l 35 553 l 542 596 m 35 193 l 35 357 l 706 357 l 706 193 l 35 193 z "},"∞":{"ha":843,"x_min":-18,"x_max":860,"o":"m 192 228 l 214 374 l 235 374 q 273 386 257 374 q 299 414 289 399 l 418 624 q 463 693 443 668 q 510 728 482 718 q 585 738 538 738 l 621 738 l 621 593 l 593 593 q 564 583 575 593 q 542 553 553 574 l 415 329 q 368 263 390 285 q 315 235 346 242 q 235 228 285 228 l 192 228 m 226 374 l 207 228 l 186 228 q 28 275 75 228 q -18 400 -18 322 l -18 565 q 28 690 -18 643 q 186 738 75 738 l 225 738 l 225 592 l 192 592 q 158 581 165 592 q 151 547 151 571 l 151 418 q 158 383 151 393 q 192 374 165 374 l 226 374 m 479 513 l 372 425 l 301 535 q 269 575 288 558 q 228 592 251 592 l 214 592 l 214 738 l 240 738 q 310 723 282 738 q 363 682 339 708 q 410 618 386 656 l 479 513 m 383 394 l 483 496 l 528 429 q 559 391 542 408 q 599 374 576 374 l 628 374 l 628 228 l 611 228 q 538 238 568 228 q 482 269 507 247 q 429 331 457 292 l 383 394 m 615 228 l 606 374 l 650 374 q 684 383 678 374 q 690 418 690 393 l 690 547 q 684 581 690 571 q 650 592 678 592 l 607 592 l 607 738 l 656 738 q 813 690 767 738 q 860 565 860 643 l 860 400 q 813 275 860 322 q 656 228 767 228 l 615 228 z "},"∫":{"ha":671,"x_min":122,"x_max":575,"o":"m 467 753 l 467 -33 q 420 -158 467 -111 q 263 -206 374 -206 l 122 -206 l 122 -32 l 196 -32 q 222 -24 214 -32 q 231 -1 229 -17 l 231 785 q 277 910 231 863 q 435 957 324 957 l 575 957 l 575 783 l 501 783 q 476 776 483 783 q 467 753 469 768 z "},"<":{"ha":740,"x_min":35,"x_max":706,"o":"m 706 558 l 268 449 l 706 336 l 706 147 l 35 350 l 35 553 l 706 744 l 706 558 z "},"≤":{"ha":740,"x_min":35,"x_max":706,"o":"m 706 636 l 199 596 l 706 553 l 706 375 l 35 494 l 35 703 l 706 811 l 706 636 m 706 357 l 706 193 l 35 193 l 35 357 l 706 357 z "},"¬":{"ha":788,"x_min":69,"x_max":704,"o":"m 614 579 l 614 336 l 69 336 l 69 579 l 614 579 m 704 140 l 544 140 l 544 579 l 704 579 l 704 140 z "},"−":{"ha":925,"x_min":21,"x_max":692,"o":"m 21 357 l 21 531 l 692 531 l 692 357 l 21 357 z "},"×":{"ha":669,"x_min":28,"x_max":642,"o":"m 642 260 l 507 125 l 28 604 l 163 739 l 642 260 m 507 739 l 642 604 l 163 125 l 28 260 l 507 739 z "},"≠":{"ha":740,"x_min":35,"x_max":706,"o":"m 706 207 l 35 207 l 35 386 l 706 386 l 706 207 m 706 501 l 35 501 l 35 681 l 706 681 l 706 501 m 269 124 l 118 124 l 471 764 l 622 764 l 269 124 z "},"%":{"ha":1247,"x_min":35,"x_max":1213,"o":"m 504 753 l 504 499 q 467 398 504 436 q 340 360 431 360 l 199 360 q 72 398 110 360 q 35 499 35 436 l 35 753 q 72 854 35 817 q 199 892 110 892 l 340 892 q 467 854 431 892 q 504 753 504 817 m 1213 393 l 1213 139 q 1176 38 1213 76 q 1049 0 1139 0 l 907 0 q 781 38 818 0 q 743 139 743 76 l 743 393 q 781 494 743 457 q 907 532 818 532 l 1049 532 q 1176 494 1139 532 q 1213 393 1213 457 m 308 526 l 308 725 q 302 744 308 738 q 281 750 296 750 l 258 750 q 238 744 244 750 q 231 725 231 738 l 231 526 q 238 508 231 514 q 258 503 244 503 l 281 503 q 302 508 296 503 q 308 526 308 514 m 1017 167 l 1017 365 q 1010 384 1017 378 q 989 390 1004 390 l 967 390 q 946 384 953 390 q 939 365 939 378 l 939 167 q 946 149 939 154 q 967 143 953 143 l 989 143 q 1010 149 1004 143 q 1017 167 1017 154 m 789 892 l 965 892 l 461 0 l 288 0 l 789 892 z "},"‰":{"ha":1764,"x_min":35,"x_max":1729,"o":"m 504 753 l 504 499 q 467 398 504 436 q 340 360 431 360 l 199 360 q 72 398 110 360 q 35 499 35 436 l 35 753 q 72 854 35 817 q 199 892 110 892 l 340 892 q 467 854 431 892 q 504 753 504 817 m 1213 393 l 1213 139 q 1176 38 1213 76 q 1049 0 1139 0 l 907 0 q 781 38 818 0 q 743 139 743 76 l 743 393 q 781 494 743 457 q 907 532 818 532 l 1049 532 q 1176 494 1139 532 q 1213 393 1213 457 m 308 526 l 308 725 q 302 744 308 738 q 281 750 296 750 l 258 750 q 238 744 244 750 q 231 725 231 738 l 231 526 q 238 508 231 514 q 258 503 244 503 l 281 503 q 302 508 296 503 q 308 526 308 514 m 1017 167 l 1017 365 q 1010 384 1017 378 q 989 390 1004 390 l 967 390 q 946 384 953 390 q 939 365 939 378 l 939 167 q 946 149 939 154 q 967 143 953 143 l 989 143 q 1010 149 1004 143 q 1017 167 1017 154 m 789 892 l 965 892 l 461 0 l 288 0 l 789 892 m 1729 393 l 1729 139 q 1692 38 1729 76 q 1565 0 1656 0 l 1424 0 q 1297 38 1335 0 q 1260 139 1260 76 l 1260 393 q 1297 494 1260 457 q 1424 532 1335 532 l 1565 532 q 1692 494 1656 532 q 1729 393 1729 457 m 1533 167 l 1533 365 q 1527 384 1533 378 q 1506 390 1521 390 l 1483 390 q 1463 384 1469 390 q 1456 365 1456 378 l 1456 167 q 1463 149 1456 154 q 1483 143 1469 143 l 1506 143 q 1527 149 1521 143 q 1533 167 1533 154 z "},"+":{"ha":713,"x_min":21,"x_max":692,"o":"m 21 357 l 21 531 l 692 531 l 692 357 l 21 357 m 243 746 l 469 746 l 469 142 l 243 142 l 243 746 z "},"±":{"ha":740,"x_min":35,"x_max":706,"o":"m 35 515 l 35 683 l 706 683 l 706 515 l 35 515 m 257 788 l 483 788 l 483 411 l 257 411 l 257 788 m 35 193 l 35 367 l 706 367 l 706 193 l 35 193 z "},"∏":{"ha":749,"x_min":0,"x_max":693,"o":"m 81 204 l 81 797 l 317 797 l 317 172 q 270 47 317 94 q 113 0 224 0 l 0 0 l 0 174 l 46 174 q 72 181 64 174 q 81 204 81 189 m 450 808 l 693 808 l 693 0 l 450 0 l 450 808 m 692 892 l 692 732 l 81 732 l 81 892 l 692 892 z "},"√":{"ha":1157,"x_min":115,"x_max":1001,"o":"m 176 407 l 376 407 l 475 122 l 801 975 l 1001 975 l 575 -83 l 375 -83 l 176 407 m 344 407 l 344 247 l 115 247 l 115 407 l 344 407 z "},"Ω":{"ha":739,"x_min":21,"x_max":717,"o":"m 433 519 l 433 688 q 425 710 433 703 q 399 718 417 718 l 353 718 l 353 892 l 472 892 q 630 844 583 892 q 676 719 676 797 l 676 519 l 433 519 m 433 218 l 433 538 l 676 538 l 676 297 q 630 179 676 219 q 472 139 583 139 l 408 139 l 408 174 l 413 174 q 431 188 428 174 q 433 218 433 203 m 306 688 l 306 519 l 63 519 l 63 719 q 109 844 63 797 q 267 892 156 892 l 386 892 l 386 718 l 340 718 q 314 710 322 718 q 306 688 306 703 m 306 538 l 306 218 q 309 188 306 203 q 326 174 313 174 l 331 174 l 331 139 l 267 139 q 109 179 156 139 q 63 297 63 219 l 63 538 l 306 538 m 717 174 l 717 0 l 406 0 l 406 174 l 717 174 m 333 174 l 333 0 l 21 0 l 21 174 l 333 174 z "},"µ":{"ha":679,"x_min":56,"x_max":624,"o":"m 56 693 l 292 693 l 292 204 q 300 181 292 189 q 326 174 308 174 l 350 174 q 378 183 369 174 q 388 215 388 193 l 388 253 l 396 253 l 396 128 q 363 35 396 69 q 265 0 331 0 l 240 0 q 99 47 142 0 q 56 172 56 94 l 56 693 m 388 693 l 624 693 l 624 0 l 392 0 l 392 132 l 388 132 l 388 693 m 56 624 l 292 624 l 292 -179 l 56 -179 l 56 624 z "},"◌":{"ha":917,"x_min":61,"x_max":856,"o":"m 193 718 q 210 762 193 744 q 254 779 228 779 q 299 762 282 779 q 315 718 315 744 q 299 674 315 692 q 254 656 282 656 q 210 674 228 656 q 193 718 193 692 m 79 565 q 98 609 79 592 q 143 626 117 626 q 186 609 168 626 q 204 565 204 592 q 186 522 204 539 q 143 504 168 504 q 98 522 117 504 q 79 565 79 539 m 61 390 q 78 435 61 418 q 122 453 96 453 q 167 435 150 453 q 183 390 183 418 q 167 347 183 364 q 122 331 150 331 q 78 347 96 331 q 61 390 61 364 m 133 229 q 151 273 133 256 q 194 290 168 290 q 238 273 221 290 q 256 229 256 256 q 238 185 256 203 q 194 168 221 168 q 151 185 168 168 q 133 229 133 203 m 274 125 q 292 168 274 150 q 336 186 310 186 q 380 168 363 186 q 397 125 397 150 q 380 80 397 99 q 336 61 363 61 q 292 80 310 61 q 274 125 274 99 m 450 103 q 467 147 450 131 q 511 164 485 164 q 556 147 539 164 q 574 103 574 131 q 556 59 574 76 q 511 42 539 42 q 467 59 485 42 q 450 103 450 76 m 618 176 q 635 220 618 203 q 679 238 653 238 q 724 220 706 238 q 742 176 742 203 q 724 133 742 150 q 679 115 706 115 q 635 133 653 115 q 618 176 618 150 m 719 313 q 738 358 719 340 q 782 375 756 375 q 824 358 807 375 q 842 313 842 340 q 824 269 842 286 q 782 251 807 251 q 738 269 756 251 q 719 313 719 286 m 733 499 q 751 543 733 526 q 794 560 768 560 q 838 543 821 560 q 856 499 856 526 q 838 455 856 472 q 794 438 821 438 q 751 455 768 438 q 733 499 733 472 m 664 663 q 681 708 664 690 q 725 725 699 725 q 769 708 753 725 q 786 663 786 690 q 769 619 786 636 q 725 601 753 601 q 681 619 699 601 q 664 663 664 636 m 532 757 q 550 802 532 785 q 594 819 568 819 q 638 802 621 819 q 654 757 654 785 q 638 714 654 732 q 594 696 621 696 q 550 714 568 696 q 532 757 532 732 m 357 778 q 374 822 357 806 q 418 839 392 839 q 463 822 446 839 q 479 778 479 806 q 463 734 479 751 q 418 717 446 717 q 374 734 392 717 q 357 778 357 751 z "},"◊":{"ha":971,"x_min":93,"x_max":847,"o":"m 847 449 l 615 449 l 465 718 l 325 449 l 93 449 l 346 892 l 586 892 l 847 449 m 615 449 l 847 449 l 586 1 l 346 1 l 93 449 l 325 449 l 465 174 l 615 449 z "},"ै":{"ha":0,"x_min":-657,"x_max":-64,"o":"m -657 1171 l -379 1171 l -319 1093 q -248 999 -278 1039 q -187 911 -218 960 l -181 911 q -223 994 -207 957 q -261 1083 -239 1032 l -297 1171 l -83 1171 l -64 888 l -294 888 q -365 933 -333 913 q -426 978 -396 954 q -494 1035 -456 1003 l -657 1171 z "},"ं":{"ha":0,"x_min":-251,"x_max":-82,"o":"m -251 1190 l -82 1190 l -82 1011 l -251 1011 l -251 1190 z "},"ँ":{"ha":0,"x_min":-517,"x_max":178,"o":"m -517 1232 l -322 1232 l -322 1132 q -313 1103 -322 1111 q -283 1096 -304 1096 l -56 1096 q -26 1103 -35 1096 q -17 1132 -17 1111 l -17 1232 l 178 1232 l 178 1103 q 132 1000 178 1035 q -33 965 86 965 l -306 965 q -470 1000 -424 965 q -517 1103 -517 1035 l -517 1232 m -254 1331 l -85 1331 l -85 1151 l -254 1151 l -254 1331 z "},"े":{"ha":0,"x_min":-542,"x_max":-61,"o":"m -260 1171 l -61 888 l -289 888 q -378 970 -337 926 q -461 1067 -419 1014 l -542 1171 l -260 1171 z "},"्":{"ha":0,"x_min":-306,"x_max":106,"o":"m -75 -85 l 106 -293 l -125 -293 l -306 -85 l -75 -85 z "},"ॢ":{"ha":0,"x_min":-625,"x_max":-4,"o":"m -390 14 q -342 -26 -349 14 l -337 -26 q -324 3 -335 -7 q -289 14 -314 14 l -196 14 l -196 -83 l -247 -83 q -263 -89 -260 -83 q -267 -104 -267 -94 l -267 -214 l -414 -214 l -414 -104 q -417 -89 -414 -94 q -433 -83 -421 -83 l -460 -83 q -474 -87 -468 -83 q -479 -104 -479 -92 l -479 -279 q -474 -293 -479 -289 q -460 -297 -468 -297 l -449 -297 l -449 -393 l -504 -393 q -600 -371 -575 -393 q -625 -301 -625 -349 l -625 -94 q -596 -10 -625 -33 q -511 14 -567 14 l -390 14 m -201 14 l -56 14 l -56 -353 l -165 -353 q -180 -357 -175 -353 q -185 -371 -185 -361 l -185 -400 q -180 -413 -185 -408 q -165 -418 -175 -418 l -4 -418 l -4 -514 l -211 -514 q -306 -492 -281 -514 q -331 -422 -331 -469 l -331 -358 q -306 -287 -331 -310 q -211 -264 -281 -264 l -201 -264 l -201 14 z "},"ॣ":{"ha":0,"x_min":-617,"x_max":-12,"o":"m -12 -539 l -12 -635 l -135 -635 q -236 -610 -203 -635 q -269 -526 -269 -585 l -269 -478 q -259 -444 -269 -454 q -229 -432 -249 -433 l -229 -426 q -259 -413 -249 -424 q -269 -379 -269 -403 l -269 -303 q -254 -249 -269 -271 q -204 -226 -239 -226 l -201 -226 l -201 -81 l -244 -81 q -260 -87 -257 -81 q -264 -104 -264 -94 l -264 -211 l -410 -211 l -410 -104 q -413 -87 -410 -94 q -429 -81 -417 -81 l -453 -81 q -467 -86 -462 -81 q -472 -104 -472 -92 l -472 -274 q -467 -287 -472 -283 q -453 -292 -462 -292 l -443 -292 l -443 -387 l -499 -387 q -592 -365 -568 -387 q -617 -296 -617 -343 l -617 -96 q -589 -10 -617 -35 q -506 14 -561 14 l -386 14 q -337 -26 -344 14 l -336 -26 q -322 3 -333 -7 q -286 14 -310 14 l -56 14 l -56 -321 l -104 -321 q -121 -325 -115 -321 q -126 -340 -126 -329 l -126 -361 q -121 -377 -126 -372 q -104 -382 -115 -382 l -65 -382 l -65 -476 l -104 -476 q -121 -481 -115 -476 q -126 -499 -126 -486 l -126 -517 q -121 -535 -126 -531 q -104 -539 -115 -539 l -12 -539 z "},"़":{"ha":0,"x_min":-256,"x_max":-86,"o":"m -256 -37 l -86 -37 l -86 -217 l -256 -217 l -256 -37 z "},"ृ":{"ha":0,"x_min":-429,"x_max":-14,"o":"m -56 11 l -56 -146 l -150 -146 q -185 -153 -176 -146 q -193 -189 -193 -161 l -193 -201 q -185 -236 -193 -228 q -150 -244 -176 -244 l -14 -244 l -14 -403 l -247 -403 q -383 -363 -336 -403 q -429 -226 -429 -324 l -429 -165 q -383 -28 -429 -68 q -247 11 -336 11 l -56 11 z "},"ॄ":{"ha":0,"x_min":-404,"x_max":15,"o":"m -404 -124 q -356 -18 -404 -47 q -236 11 -308 11 l -56 11 l -56 -146 l -136 -146 q -160 -153 -151 -146 q -168 -179 -168 -160 l -168 -212 q -160 -239 -168 -232 q -136 -246 -151 -246 l -72 -246 l -72 -403 l -136 -403 q -160 -410 -151 -403 q -168 -436 -168 -417 l -168 -469 q -160 -496 -168 -489 q -136 -503 -151 -503 l 15 -503 l 15 -660 l -181 -660 q -349 -620 -294 -660 q -404 -483 -404 -581 l -404 -406 q -387 -349 -404 -367 q -339 -328 -369 -332 l -339 -321 q -387 -299 -369 -317 q -404 -243 -404 -282 l -404 -124 z "},"ु":{"ha":0,"x_min":-644,"x_max":54,"o":"m -128 10 q 8 -30 -37 10 q 54 -167 54 -69 l 54 -228 q 8 -365 54 -325 q -128 -404 -37 -404 l -321 -404 q -448 -387 -397 -404 q -535 -334 -499 -369 q -603 -244 -571 -299 l -644 -174 l -368 -174 l -340 -217 q -315 -241 -329 -235 q -279 -247 -301 -247 l -225 -247 q -190 -239 -197 -247 q -182 -204 -182 -231 l -182 -192 q -190 -156 -182 -164 q -225 -149 -197 -149 l -292 -149 l -292 10 l -128 10 z "},"ॆ":{"ha":0,"x_min":-632,"x_max":-56,"o":"m -632 1093 l -632 1093 l -632 1182 l -396 1182 l -396 1172 q -386 1131 -396 1140 q -344 1122 -376 1122 l -183 1122 q -56 994 -56 1122 l -56 842 l -292 842 l -292 915 q -301 956 -292 947 q -342 965 -311 965 l -504 965 q -632 1093 -632 965 z "},"ू":{"ha":0,"x_min":-444,"x_max":351,"o":"m -87 11 q 39 -6 -11 11 q 125 -59 89 -24 q 194 -149 161 -94 l 351 -403 l 75 -403 l -68 -176 q -93 -151 -79 -157 q -129 -146 -107 -146 l -165 -146 q -200 -153 -192 -146 q -208 -189 -208 -161 l -208 -201 q -200 -236 -208 -228 q -165 -244 -192 -244 l -99 -244 l -99 -403 l -262 -403 q -398 -363 -351 -403 q -444 -226 -444 -324 l -444 -165 q -398 -28 -444 -68 q -262 11 -351 11 l -87 11 z "},"ः":{"ha":364,"x_min":97,"x_max":267,"o":"m 97 260 l 267 260 l 267 81 l 97 81 l 97 260 m 97 674 l 267 674 l 267 494 l 97 494 l 97 674 z "},"´":{"ha":694,"x_min":161,"x_max":532,"o":"m 161 739 l 296 947 l 532 947 l 347 739 l 161 739 z "},"˘":{"ha":694,"x_min":74,"x_max":621,"o":"m 413 947 l 621 947 l 621 911 q 574 786 621 833 q 417 739 528 739 l 333 739 l 333 871 l 378 871 q 404 878 396 871 q 413 901 413 886 l 413 947 m 74 947 l 282 947 l 282 901 q 290 878 282 886 q 317 871 299 871 l 361 871 l 361 739 l 278 739 q 120 786 167 739 q 74 911 74 833 l 74 947 z "},"ˇ":{"ha":694,"x_min":56,"x_max":639,"o":"m 240 739 l 56 947 l 274 947 l 347 851 l 421 947 l 639 947 l 454 739 l 240 739 z "},"¸":{"ha":694,"x_min":168,"x_max":499,"o":"m 276 -171 l 276 -64 l 499 -64 l 499 -189 q 452 -314 499 -267 q 294 -361 406 -361 l 168 -361 l 168 -201 l 242 -201 q 268 -194 260 -201 q 276 -171 276 -186 z "},"ˆ":{"ha":694,"x_min":56,"x_max":639,"o":"m 56 739 l 240 947 l 454 947 l 639 739 l 421 739 l 347 835 l 274 739 l 56 739 z "},"¨":{"ha":694,"x_min":75,"x_max":619,"o":"m 75 753 l 75 933 l 286 933 l 286 753 l 75 753 m 408 753 l 408 933 l 619 933 l 619 753 l 408 753 z "},"˙":{"ha":694,"x_min":235,"x_max":460,"o":"m 235 753 l 235 933 l 460 933 l 460 753 l 235 753 z "},"`":{"ha":694,"x_min":133,"x_max":504,"o":"m 369 947 l 504 739 l 318 739 l 133 947 l 369 947 z "},"˝":{"ha":694,"x_min":46,"x_max":649,"o":"m 310 739 l 444 947 l 649 947 l 464 739 l 310 739 m 46 739 l 181 947 l 385 947 l 200 739 l 46 739 z "},"¯":{"ha":694,"x_min":76,"x_max":617,"o":"m 76 771 l 76 918 l 617 918 l 617 771 l 76 771 z "},"˛":{"ha":694,"x_min":201,"x_max":521,"o":"m 201 -168 q 235 -63 201 -103 q 361 -24 268 -24 l 496 -24 l 496 -158 l 394 -158 q 372 -165 379 -158 q 365 -183 365 -171 l 365 -221 q 372 -240 365 -233 q 394 -246 379 -246 l 521 -246 l 521 -381 l 361 -381 q 235 -341 268 -381 q 201 -235 201 -301 l 201 -168 m 496 -31 l 369 -31 l 369 21 l 496 21 l 496 -31 z "},"˚":{"ha":694,"x_min":146,"x_max":549,"o":"m 549 854 l 549 832 q 518 742 549 776 q 407 708 488 708 l 288 708 q 176 742 207 708 q 146 832 146 776 l 146 854 q 176 945 146 911 q 288 979 207 979 l 407 979 q 518 945 488 979 q 549 854 549 911 m 401 833 l 401 853 q 395 873 401 867 q 374 879 389 879 l 321 879 q 299 873 306 879 q 293 853 293 867 l 293 833 q 299 813 293 819 q 321 807 306 807 l 374 807 q 395 813 389 807 q 401 833 401 819 z "},"˜":{"ha":694,"x_min":74,"x_max":619,"o":"m 456 739 q 383 757 415 739 q 326 793 350 775 q 286 811 301 811 q 261 782 261 811 l 261 739 l 74 739 l 74 815 q 103 912 74 876 q 211 947 133 947 l 238 947 q 310 929 278 947 q 368 893 343 911 q 407 875 393 875 q 426 883 419 875 q 432 904 432 890 l 432 947 l 619 947 l 619 864 q 589 771 619 803 q 479 739 558 739 l 456 739 z "},"ʼ":{"ha":353,"x_min":56,"x_max":297,"o":"m 56 892 l 297 892 l 297 767 l 121 457 l 56 457 l 56 892 z "},"ˉ":{"ha":694,"x_min":76,"x_max":617,"o":"m 76 769 l 76 918 l 617 918 l 617 769 l 76 769 z "}}}
